<?xml version="1.0" encoding="utf-8"?>
<!-- Generator: Adobe Illustrator 15.1.0, SVG Export Plug-In . SVG Version: 6.00 Build 0)  -->
<!DOCTYPE svg PUBLIC "-//W3C//DTD SVG 1.1//EN" "http://www.w3.org/Graphics/SVG/1.1/DTD/svg11.dtd">
<svg version="1.1" id="puzzle" xmlns="http://www.w3.org/2000/svg" xmlns:xlink="http://www.w3.org/1999/xlink" x="0px" y="0px"
	 width="756px" height="756px" viewBox="0 0 756 756" enable-background="new 0 0 756 756" xml:space="preserve">
<g>
	<path d="M84.362,605.275c29.391,15.471,108.312,23.118,144.799,8.204c25.597-10.463,36.259-27.786,24.481-54.555
		c-20.795-47.274,9.203-86.373,58-86.373c48.784,0,78.785,39.099,57.99,86.373c-11.777,26.769-1.115,44.092,24.482,54.555
		c36.492,14.914,115.407,7.267,144.798-8.204c-15.469-29.39-23.118-108.309-8.203-144.798
		c10.463-25.598,27.786-36.257,54.554-24.482c47.275,20.797,86.374-9.204,86.374-57.995c0-48.789-39.097-78.791-86.37-57.996
		c-26.769,11.777-44.092,1.116-54.558-24.481c-14.915-36.488-7.262-115.407,8.203-144.799
		c-29.391-15.468-108.308-23.118-144.798-8.202c-25.598,10.461-36.26,27.784-24.482,54.554
		c20.795,47.274-9.206,86.372-57.995,86.372c-48.792,0-78.79-39.094-57.995-86.368c11.777-26.77,1.115-44.093-24.481-54.558
		c-36.491-14.916-115.408-7.263-144.799,8.202V605.275z"/>
</g>
</svg>
