<?xml version="1.0" encoding="utf-8"?>
<!-- Generator: Adobe Illustrator 15.1.0, SVG Export Plug-In . SVG Version: 6.00 Build 0)  -->
<!DOCTYPE svg PUBLIC "-//W3C//DTD SVG 1.1//EN" "http://www.w3.org/Graphics/SVG/1.1/DTD/svg11.dtd">
<svg version="1.1" id="puzzle" xmlns="http://www.w3.org/2000/svg" xmlns:xlink="http://www.w3.org/1999/xlink" x="0px" y="0px"
	 width="756px" height="756px" viewBox="0 0 756 756" enable-background="new 0 0 756 756" xml:space="preserve">
<g>
	<path d="M605.275,547.033c-29.391-15.468-108.312-23.115-144.799-8.202c-25.597,10.464-36.258,27.784-24.48,54.556
		c20.794,47.274-9.207,86.371-58.001,86.371c-48.786,0-78.785-39.097-57.991-86.371c11.775-26.771,1.116-44.092-24.482-54.556
		c-36.491-14.913-115.406-7.266-144.798,8.202c15.47-29.387,23.118-108.305,8.204-144.794
		c-10.463-25.599-27.785-36.261-54.556-24.482C57.098,398.551,18,368.551,18,319.762c0-48.793,39.098-78.793,86.372-57.996
		c26.771,11.775,44.093,1.113,54.556-24.48c14.914-36.486,7.266-115.413-8.204-144.799c29.392-15.468,108.307-23.121,144.798-8.207
		c25.599,10.467,36.258,27.788,24.482,54.561c-20.794,47.273,9.205,86.37,57.991,86.37c48.794,0,78.795-39.101,58.001-86.375
		c-11.777-26.768-1.116-44.093,24.48-54.556c36.487-14.914,115.408-7.266,144.799,8.207c-15.47,29.387-23.117,108.313-8.204,144.799
		c10.464,25.594,27.786,36.256,54.554,24.48C698.9,240.969,738,270.969,738,319.762c0,48.789-39.1,78.789-86.375,57.995
		c-26.768-11.778-44.09-1.116-54.554,24.482C582.158,438.729,589.806,517.646,605.275,547.033z"/>
</g>
</svg>
