<?xml version="1.0" encoding="utf-8"?>
<!-- Generator: Adobe Illustrator 15.1.0, SVG Export Plug-In . SVG Version: 6.00 Build 0)  -->
<!DOCTYPE svg PUBLIC "-//W3C//DTD SVG 1.1//EN" "http://www.w3.org/Graphics/SVG/1.1/DTD/svg11.dtd">
<svg version="1.1" id="puzzle" xmlns="http://www.w3.org/2000/svg" xmlns:xlink="http://www.w3.org/1999/xlink" x="0px" y="0px"
	 width="756px" height="756px" viewBox="0 0 756 756" enable-background="new 0 0 756 756" xml:space="preserve">
<path d="M597.158,613.398c15.465-29.39,23.118-108.326,8.204-144.813c-10.465-25.599-27.788-36.259-54.559-24.482
	c-47.273,20.796-86.37-9.206-86.37-57.995c0-48.791,39.102-78.792,86.374-57.995c26.77,11.774,44.091,1.114,54.555-24.481
	c14.914-36.49,7.266-115.409-8.204-144.799c-29.39-15.471-108.305-23.12-144.799-8.203c-25.596,10.461-36.257,27.784-24.482,54.554
	c20.797,47.273-9.204,86.372-57.991,86.372c-48.793,0-78.795-39.099-57.999-86.372c11.776-26.77,1.116-44.093-24.482-54.554
	c-36.483-14.917-115.407-7.268-144.795,8.203L142.6,613.41L597.158,613.398z"/>
</svg>
