<?xml version="1.0" encoding="utf-8"?>
<!-- Generator: Adobe Illustrator 15.1.0, SVG Export Plug-In . SVG Version: 6.00 Build 0)  -->
<!DOCTYPE svg PUBLIC "-//W3C//DTD SVG 1.1//EN" "http://www.w3.org/Graphics/SVG/1.1/DTD/svg11.dtd">
<svg version="1.1" id="puzzle" xmlns="http://www.w3.org/2000/svg" xmlns:xlink="http://www.w3.org/1999/xlink" x="0px" y="0px"
	 width="756px" height="756px" viewBox="0 0 756 756" enable-background="new 0 0 756 756" xml:space="preserve">
<path d="M605.275,613.404c-15.465-29.393-23.117-108.324-8.204-144.814c10.465-25.598,27.79-36.256,54.558-24.482
	C698.903,464.904,738,434.902,738,386.113s-39.1-78.791-86.375-57.996c-26.768,11.775-44.09,1.117-54.554-24.482
	c-14.913-36.488-7.266-115.406,8.204-144.797c-29.391-15.467-108.309-23.12-144.799-8.203
	c-25.597,10.465-36.258,27.787-24.48,54.557c20.794,47.273-9.207,86.369-57.996,86.369c-48.791,0-78.79-39.096-57.996-86.371
	c11.775-26.77,1.116-44.092-24.482-54.555c-36.488-14.917-115.406-7.265-144.798,8.201c15.47,29.391,23.118,108.309,8.204,144.797
	c-10.463,25.598-27.785,36.26-54.556,24.482C57.098,307.32,18,337.322,18,386.111c0,48.791,39.097,78.791,86.369,57.994
	c26.77-11.773,44.092-1.113,54.559,24.484c14.914,36.488,7.262,115.422-8.204,144.814H605.275z"/>
</svg>
