<?xml version="1.0" encoding="utf-8"?>
<!-- Generator: Adobe Illustrator 15.1.0, SVG Export Plug-In . SVG Version: 6.00 Build 0)  -->
<!DOCTYPE svg PUBLIC "-//W3C//DTD SVG 1.1//EN" "http://www.w3.org/Graphics/SVG/1.1/DTD/svg11.dtd">
<svg version="1.1" id="puzzle" xmlns="http://www.w3.org/2000/svg" xmlns:xlink="http://www.w3.org/1999/xlink" x="0px" y="0px"
	 width="756px" height="756px" viewBox="0 0 756 756" enable-background="new 0 0 756 756" xml:space="preserve">
<path d="M150.724,150.725c29.392-15.469,108.307-23.119,144.798-8.203c25.599,10.462,36.258,27.785,24.482,54.553
	c-20.794,47.276,9.205,86.374,57.991,86.374c48.794,0,78.795-39.098,58.001-86.374c-11.777-26.768-1.116-44.091,24.48-54.553
	c36.487-14.916,115.408-7.266,144.799,8.203c15.469,29.391,23.119,108.309,8.203,144.799
	c-10.461,25.598-27.784,36.256-54.555,24.482c-47.273-20.799-86.372,9.205-86.372,57.994c0,48.791,39.099,78.793,86.372,57.996
	c26.767-11.775,44.094-1.115,54.555,24.48c14.916,36.491,7.266,115.408-8.203,144.801c-29.391,15.467-108.312,23.117-144.799,8.201
	c-25.597-10.461-36.258-27.784-24.48-54.552c20.794-47.274-9.207-86.374-58.001-86.374c-48.786,0-78.785,39.1-57.991,86.374
	c11.775,26.768,1.116,44.091-24.482,54.552c-36.491,14.916-115.406,7.266-144.798-8.201c-15.466-29.393-23.118-108.31-8.202-144.801
	c10.465-25.596,27.788-36.256,54.556-24.48c47.274,20.797,86.371-9.205,86.371-57.996c0-48.789-39.1-78.793-86.372-57.994
	c-26.771,11.773-44.094,1.115-54.555-24.482C127.605,259.033,135.254,180.115,150.724,150.725z"/>
</svg>
