<?xml version="1.0" encoding="utf-8"?>
<!-- Generator: Adobe Illustrator 15.1.0, SVG Export Plug-In . SVG Version: 6.00 Build 0)  -->
<!DOCTYPE svg PUBLIC "-//W3C//DTD SVG 1.1//EN" "http://www.w3.org/Graphics/SVG/1.1/DTD/svg11.dtd">
<svg version="1.1" id="puzzle" xmlns="http://www.w3.org/2000/svg" xmlns:xlink="http://www.w3.org/1999/xlink" x="0px" y="0px"
	 width="756px" height="756px" viewBox="0 0 756 756" enable-background="new 0 0 756 756" xml:space="preserve">
<path d="M150.724,605.275c15.47-29.387,23.118-108.305,8.204-144.799c-10.463-25.594-27.785-36.256-54.556-24.482
	C57.098,456.791,18,426.793,18,378.004c0-48.794,39.098-78.793,86.372-58c26.771,11.779,44.093,1.116,54.556-24.482
	c14.914-36.484,7.266-115.407-8.204-144.798c29.392,15.472,108.313,23.121,144.798,8.206c25.599-10.463,36.258-27.787,24.482-54.555
	C299.21,57.101,329.209,18,378.004,18c48.785,0,78.786,39.101,57.992,86.375c-11.777,26.768-1.116,44.092,24.48,54.555
	c36.493,14.915,115.408,7.266,144.799-8.206c-15.47,29.391-23.117,108.313-8.204,144.798c10.464,25.599,27.786,36.262,54.554,24.482
	c47.275-20.793,86.375,9.206,86.375,58c0,48.789-39.1,78.787-86.375,57.99c-26.768-11.773-44.09-1.111-54.554,24.482
	c-14.913,36.494-7.266,115.412,8.204,144.799c-29.391-15.469-108.306-23.116-144.799-8.203
	c-25.597,10.464-36.258,27.785-24.48,54.557C456.79,698.903,426.789,738,378.004,738c-48.795,0-78.794-39.097-58-86.371
	c11.775-26.771,1.116-44.093-24.482-54.557C259.036,582.159,180.115,589.807,150.724,605.275z"/>
</svg>
