<?xml version="1.0" encoding="utf-8"?>
<!-- Generator: Adobe Illustrator 15.1.0, SVG Export Plug-In . SVG Version: 6.00 Build 0)  -->
<!DOCTYPE svg PUBLIC "-//W3C//DTD SVG 1.1//EN" "http://www.w3.org/Graphics/SVG/1.1/DTD/svg11.dtd">
<svg version="1.1" id="puzzle" xmlns="http://www.w3.org/2000/svg" xmlns:xlink="http://www.w3.org/1999/xlink" x="0px" y="0px"
	 width="756px" height="756px" viewBox="0 60 756 756" enable-background="new 0 0 756 756" xml:space="preserve">
<path d="M605.275,663.518c-29.391,15.469-108.306,23.117-144.799,8.203c-25.597-10.463-36.258-27.785-24.48-54.555
	c20.794-47.273-9.207-86.373-57.992-86.373c-48.795,0-78.794,39.096-58,86.369c11.775,26.77,1.116,44.093-24.482,54.559
	c-36.485,14.914-115.406,7.262-144.798-8.203c-15.469-29.391-23.118-108.311-8.202-144.799
	c10.46-25.598,27.784-36.258,54.554-24.482c47.272,20.797,86.372-9.205,86.372-57.994c0-48.791-39.097-78.793-86.371-57.996
	c-26.768,11.775-44.091,1.115-54.555-24.482c-14.916-36.49-7.264-115.408,8.202-144.799c29.392,15.467,108.313,23.119,144.798,8.203
	c25.599-10.465,36.258-27.787,24.482-54.557c-20.794-47.274,9.205-86.37,58-86.37c48.785,0,78.786,39.099,57.992,86.372
	c-11.777,26.771-1.116,44.094,24.48,54.555c36.493,14.916,115.408,7.268,144.799-8.203c15.467,29.391,23.119,108.309,8.203,144.799
	c-10.467,25.598-27.788,36.258-54.557,24.482c-47.275-20.797-86.37,9.205-86.37,57.996c0,48.789,39.099,78.791,86.372,57.994
	c26.771-11.775,44.094-1.115,54.555,24.482C628.395,555.207,620.744,634.127,605.275,663.518z"/>
</svg>
