<?xml version="1.0" encoding="utf-8"?>
<!-- Generator: Adobe Illustrator 15.1.0, SVG Export Plug-In . SVG Version: 6.00 Build 0)  -->
<!DOCTYPE svg PUBLIC "-//W3C//DTD SVG 1.1//EN" "http://www.w3.org/Graphics/SVG/1.1/DTD/svg11.dtd">
<svg version="1.1" id="puzzle" xmlns="http://www.w3.org/2000/svg" xmlns:xlink="http://www.w3.org/1999/xlink" x="0px" y="0px"
	 width="756px" height="756px" viewBox="0 0 756 756" enable-background="new 0 0 756 756" xml:space="preserve">
<path d="M671.638,547.033c-29.391-15.468-108.313-23.116-144.799-8.202c-25.598,10.463-36.259,27.785-24.482,54.553
	c20.796,47.272-9.205,86.374-57.999,86.374c-48.787,0-78.787-39.097-57.99-86.371c11.774-26.768,1.115-44.093-24.482-54.556
	c-36.492-14.914-115.408-7.262-144.799,8.202c15.47-29.391,23.119-108.308,8.204-144.799c-10.463-25.597-27.786-36.256-54.556-24.48
	c-47.274,20.797-86.372-9.207-86.372-57.996s39.097-78.793,86.37-57.995c26.769,11.774,44.09,1.115,54.558-24.482
	c14.915-36.489,7.262-115.408-8.204-144.799c29.391-15.463,108.307-23.116,144.799-8.202c25.598,10.464,36.257,27.788,24.482,54.556
	c-20.797,47.274,9.203,86.371,57.99,86.371c48.794,0,78.795-39.097,57.999-86.375c-11.776-26.768-1.115-44.088,24.482-54.552
	c36.485-14.914,115.408-7.266,144.799,8.202V547.033z"/>
</svg>
