<?xml version="1.0" encoding="utf-8"?>
<!-- Generator: Adobe Illustrator 15.1.0, SVG Export Plug-In . SVG Version: 6.00 Build 0)  -->
<!DOCTYPE svg PUBLIC "-//W3C//DTD SVG 1.1//EN" "http://www.w3.org/Graphics/SVG/1.1/DTD/svg11.dtd">
<svg version="1.1" id="puzzle" xmlns="http://www.w3.org/2000/svg" xmlns:xlink="http://www.w3.org/1999/xlink" x="0px" y="0px"
	 width="756px" height="756px" viewBox="0 0 756 756" enable-background="new 0 0 756 756" xml:space="preserve">
<path d="M142.609,538.914c29.388-15.465,108.308-23.119,144.795-8.203c25.599,10.466,36.259,27.788,24.482,54.558
	c-20.796,47.274,9.206,86.368,57.995,86.368c48.791,0,78.792-39.098,57.995-86.371c-11.774-26.771-1.113-44.093,24.482-54.555
	c36.489-14.916,115.409-7.265,144.799,8.203c15.47-29.39,23.118-108.31,8.204-144.798c-10.464-25.598-27.785-36.258-54.555-24.482
	c-47.272,20.797-86.374-9.205-86.374-57.995s39.097-78.791,86.37-57.995c26.771,11.775,44.094,1.115,54.559-24.483
	c14.914-36.488,7.261-115.407-8.204-144.797H142.6L142.609,538.914z"/>
</svg>
