<?xml version="1.0" encoding="utf-8"?>
<!-- Generator: Adobe Illustrator 15.1.0, SVG Export Plug-In . SVG Version: 6.00 Build 0)  -->
<!DOCTYPE svg PUBLIC "-//W3C//DTD SVG 1.1//EN" "http://www.w3.org/Graphics/SVG/1.1/DTD/svg11.dtd">
<svg version="1.1" id="puzzle" xmlns="http://www.w3.org/2000/svg" xmlns:xlink="http://www.w3.org/1999/xlink" x="0px" y="0px"
	 width="756px" height="756px" viewBox="0 0 756 756" enable-background="new 0 0 756 756" xml:space="preserve">
<path d="M663.518,597.156c-29.391,15.469-108.307,23.118-144.798,8.201c-25.599-10.46-36.259-27.783-24.482-54.553
	c20.795-47.274-9.206-86.373-57.994-86.373c-48.793,0-78.793,39.097-57.996,86.369c11.774,26.769,1.113,44.092-24.482,54.557
	c-36.486,14.917-115.409,7.264-144.799-8.201c15.468-29.39,23.119-108.31,8.202-144.799c-10.46-25.597-27.783-36.258-54.554-24.482
	c-47.273,20.797-86.373-9.204-86.373-57.995c0-48.792,39.096-78.792,86.371-57.995c26.768,11.775,44.09,1.114,54.556-24.482
	c14.917-36.489,7.265-115.409-8.202-144.799h454.552c15.464,29.39,23.119,108.31,8.202,144.799
	c-10.465,25.597-27.788,36.258-54.559,24.482c-47.272-20.797-86.368,9.203-86.368,57.995c0,48.791,39.1,78.792,86.374,57.995
	c26.77-11.775,44.093-1.114,54.553,24.482C686.637,488.847,678.985,567.767,663.518,597.156z"/>
</svg>
