<?xml version="1.0" encoding="utf-8"?>
<!-- Generator: Adobe Illustrator 15.1.0, SVG Export Plug-In . SVG Version: 6.00 Build 0)  -->
<!DOCTYPE svg PUBLIC "-//W3C//DTD SVG 1.1//EN" "http://www.w3.org/Graphics/SVG/1.1/DTD/svg11.dtd">
<svg version="1.1" id="puzzle" xmlns="http://www.w3.org/2000/svg" xmlns:xlink="http://www.w3.org/1999/xlink" x="0px" y="0px"
	 width="756px" height="756px" viewBox="0 0 756 756" enable-background="new 0 0 756 756" xml:space="preserve">
<path d="M217.076,538.914c15.47-29.391,23.117-108.309,8.201-144.799c-10.461-25.598-27.783-36.258-54.554-24.482
	c-47.273,20.797-86.372-9.205-86.372-57.994c0-48.791,39.097-78.793,86.371-57.996c26.768,11.775,44.09,1.115,54.555-24.482
	c14.916-36.49,7.264-115.408-8.201-144.798h454.572l-0.021,454.552c-29.392-15.468-108.313-23.121-144.799-8.203
	c-25.598,10.46-36.26,27.784-24.482,54.553c20.795,47.273-9.206,86.375-57.999,86.375c-48.788,0-78.789-39.098-57.99-86.371
	c11.773-26.77,1.113-44.094-24.482-54.557C325.382,515.793,246.465,523.446,217.076,538.914z"/>
</svg>
