<?xml version="1.0" encoding="utf-8"?>
<!-- Generator: Adobe Illustrator 15.1.0, SVG Export Plug-In . SVG Version: 6.00 Build 0)  -->
<!DOCTYPE svg PUBLIC "-//W3C//DTD SVG 1.1//EN" "http://www.w3.org/Graphics/SVG/1.1/DTD/svg11.dtd">
<svg version="1.1" id="puzzle" xmlns="http://www.w3.org/2000/svg" xmlns:xlink="http://www.w3.org/1999/xlink" x="0px" y="0px"
	 width="756px" height="756px" viewBox="0 0 756 756" enable-background="new 0 0 756 756" xml:space="preserve">
<g>
	<path d="M84.362,605.277c29.391-15.471,108.312-23.119,144.799-8.205c25.597,10.463,36.259,27.785,24.481,54.555
		c-20.795,47.273,9.203,86.373,58,86.373c48.784,0,78.785-39.1,57.99-86.373c-11.777-26.77-1.115-44.092,24.482-54.555
		c36.492-14.914,115.407-7.266,144.798,8.205c-15.469-29.393-23.118-108.308-8.203-144.799
		c10.463-25.598,27.786-36.259,54.554-24.482c47.275,20.795,86.374-9.205,86.374-57.991c0-48.795-39.099-78.797-86.374-57.999
		c-26.768,11.775-44.091,1.114-54.554-24.482c-14.915-36.486-7.266-115.409,8.203-144.799
		c-29.391,15.471-108.306,23.119-144.798,8.203c-25.598-10.462-36.26-27.785-24.482-54.554C390.428,57.101,360.427,18,311.643,18
		c-48.797,0-78.795,39.101-58,86.374c11.777,26.769,1.115,44.092-24.481,54.554c-36.487,14.916-115.408,7.268-144.799-8.203V605.277
		z"/>
</g>
</svg>
