<?xml version="1.0" encoding="utf-8"?>
<!-- Generator: Adobe Illustrator 15.1.0, SVG Export Plug-In . SVG Version: 6.00 Build 0)  -->
<!DOCTYPE svg PUBLIC "-//W3C//DTD SVG 1.1//EN" "http://www.w3.org/Graphics/SVG/1.1/DTD/svg11.dtd">
<svg version="1.1" id="puzzle" xmlns="http://www.w3.org/2000/svg" xmlns:xlink="http://www.w3.org/1999/xlink" x="0px" y="0px"
	 width="756px" height="756px" viewBox="0 0 756 756" enable-background="new 0 0 756 756" xml:space="preserve">
<path d="M467.699,116.359c10.332-4.226,17.123-10.2,20.178-17.762c2.895-7.158,2.336-15.387-1.656-24.456
	c-4.754-10.812-4.541-21.108,0.605-28.993c5.371-8.227,15.48-12.945,27.748-12.945c12.26,0,22.375,4.719,27.744,12.945
	c5.145,7.885,5.361,18.182,0.604,28.996c-3.992,9.071-4.547,17.301-1.652,24.456c3.055,7.562,9.846,13.536,20.178,17.759
	c10.832,4.429,25.225,5.357,35.391,5.357c18.615,0,37.723-2.923,50.557-7.534c6.74,19.528,9.143,57.78,2.105,74.999
	c-4.824,11.804-10.41,13.168-14.191,13.168c-2.65,0-5.73-0.764-9.158-2.272c-6.971-3.067-13.932-4.621-20.691-4.621
	c-23.857,0-41.172,19.335-41.172,45.974s17.314,45.971,41.172,45.971c6.76,0,13.721-1.554,20.691-4.621
	c3.428-1.508,6.508-2.271,9.158-2.271c3.781,0,9.367,1.363,14.191,13.168c7.037,17.221,4.635,55.471-2.105,74.998
	c-0.127-0.047-0.264-0.09-0.393-0.135c-0.391-0.138-0.797-0.273-1.197-0.408c-0.529-0.178-1.059-0.35-1.605-0.52
	c-0.428-0.139-0.863-0.271-1.303-0.4c-0.559-0.168-1.125-0.33-1.703-0.49c-0.443-0.126-0.879-0.248-1.33-0.369
	c-0.662-0.177-1.346-0.348-2.031-0.515c-0.377-0.095-0.744-0.192-1.127-0.282c-1.025-0.243-2.074-0.479-3.133-0.703
	c-0.482-0.101-0.975-0.195-1.461-0.296c-0.645-0.13-1.293-0.261-1.953-0.383c-0.539-0.103-1.086-0.197-1.631-0.295
	c-0.627-0.11-1.26-0.22-1.9-0.323c-0.559-0.092-1.121-0.185-1.689-0.272c-0.652-0.101-1.311-0.194-1.971-0.288
	c-0.561-0.08-1.119-0.162-1.688-0.237c-0.76-0.101-1.527-0.192-2.295-0.282c-0.752-0.093-1.508-0.178-2.268-0.261
	c-0.891-0.095-1.793-0.19-2.693-0.272c-0.584-0.053-1.168-0.098-1.754-0.148c-0.689-0.057-1.381-0.114-2.074-0.162
	c-0.609-0.045-1.221-0.085-1.83-0.123c-0.682-0.042-1.361-0.08-2.045-0.114c-0.613-0.032-1.229-0.063-1.848-0.088
	c-0.699-0.03-1.404-0.052-2.107-0.072c-0.59-0.021-1.174-0.04-1.764-0.053c-0.891-0.018-1.779-0.024-2.672-0.03
	c-0.363-0.002-0.729-0.012-1.096-0.012c-10.162,0-24.555,0.928-35.387,5.355c-10.332,4.225-17.123,10.199-20.178,17.76
	c-1.088,2.685-1.686,5.521-1.801,8.496c-0.193,4.954,0.961,10.296,3.453,15.965c2.375,5.404,3.512,10.682,3.41,15.593
	c-0.104,4.909-1.443,9.454-4.014,13.397c-5.369,8.227-15.484,12.945-27.75,12.945c-10.729,0-19.811-3.613-25.514-10.025
	c-0.814-0.918-1.557-1.891-2.229-2.92c-0.643-0.985-1.211-2.009-1.697-3.064c-1.469-3.172-2.24-6.65-2.318-10.333
	c-0.102-4.911,1.035-10.188,3.41-15.595c2.498-5.67,3.65-11.012,3.457-15.965c-0.119-2.975-0.717-5.81-1.801-8.494
	c-3.055-7.561-9.846-13.535-20.178-17.76c-10.836-4.428-25.229-5.355-35.391-5.355c-0.184,0-0.367,0.004-0.551,0.004
	c-1.092,0.006-2.189,0.016-3.287,0.041c-0.498,0.01-0.998,0.027-1.5,0.042c-0.799,0.022-1.594,0.05-2.391,0.083
	c-0.551,0.022-1.098,0.05-1.648,0.077c-0.76,0.04-1.514,0.083-2.27,0.13c-0.547,0.035-1.092,0.068-1.635,0.107
	c-0.791,0.059-1.58,0.121-2.365,0.188c-0.494,0.041-0.99,0.078-1.48,0.126c-1.156,0.104-2.314,0.223-3.457,0.351
	c-0.402,0.042-0.799,0.095-1.199,0.14c-0.908,0.107-1.814,0.218-2.715,0.338c-0.506,0.065-1.008,0.14-1.51,0.21
	c-0.727,0.103-1.443,0.207-2.156,0.318c-0.52,0.08-1.041,0.164-1.557,0.247c-0.691,0.115-1.375,0.233-2.049,0.353
	c-0.508,0.09-1.012,0.178-1.512,0.273c-0.711,0.133-1.412,0.272-2.113,0.412c-0.436,0.09-0.877,0.176-1.313,0.268
	c-1.08,0.229-2.145,0.466-3.189,0.713c-0.314,0.076-0.619,0.158-0.932,0.233c-0.754,0.185-1.5,0.372-2.23,0.567
	c-0.418,0.113-0.824,0.229-1.234,0.341c-0.609,0.17-1.215,0.345-1.809,0.521c-0.41,0.122-0.818,0.248-1.221,0.375
	c-0.58,0.183-1.143,0.367-1.703,0.556c-0.371,0.125-0.746,0.247-1.105,0.375c-0.137,0.05-0.287,0.095-0.418,0.143
	c-0.039-0.11-0.078-0.223-0.115-0.333c-0.371-1.096-0.734-2.234-1.076-3.438c-0.035-0.115-0.063-0.237-0.098-0.353
	c-0.35-1.246-0.688-2.54-1.008-3.884c-0.012-0.052-0.025-0.102-0.039-0.154c-0.318-1.355-0.617-2.762-0.904-4.198
	c-0.033-0.183-0.072-0.362-0.105-0.548c-0.273-1.398-0.529-2.832-0.768-4.291c-0.035-0.223-0.074-0.445-0.107-0.668
	c-0.234-1.471-0.449-2.965-0.648-4.48c-0.027-0.198-0.049-0.396-0.072-0.594c-0.201-1.576-0.385-3.168-0.547-4.773
	c-0.004-0.065-0.01-0.131-0.018-0.195c-0.162-1.641-0.299-3.295-0.418-4.951c-0.004-0.088-0.014-0.176-0.018-0.263
	c-0.111-1.614-0.195-3.235-0.264-4.849c-0.01-0.215-0.021-0.431-0.031-0.644c-0.061-1.565-0.098-3.13-0.115-4.681
	c0-0.238-0.004-0.476-0.004-0.713c-0.008-1.555,0-3.098,0.035-4.621c0.004-0.19,0.012-0.381,0.018-0.57
	c0.041-1.58,0.105-3.146,0.199-4.677c0-0.032,0.004-0.065,0.01-0.101c0.094-1.523,0.217-3.012,0.365-4.471
	c0.014-0.145,0.027-0.293,0.043-0.438c0.145-1.398,0.326-2.755,0.525-4.081c0.029-0.215,0.064-0.431,0.098-0.643
	c0.201-1.284,0.432-2.524,0.688-3.721c0.043-0.205,0.09-0.407,0.133-0.612c0.268-1.191,0.559-2.342,0.879-3.431
	c0.043-0.14,0.084-0.275,0.129-0.413c0.346-1.129,0.711-2.211,1.121-3.207c4.822-11.805,10.406-13.168,14.188-13.168
	c2.65,0,5.73,0.764,9.158,2.271c6.973,3.064,13.936,4.621,20.695,4.621c23.854,0,41.168-19.335,41.168-45.971
	c0-26.639-17.314-45.974-41.168-45.974c-6.76,0-13.723,1.554-20.695,4.621c-3.428,1.507-6.508,2.272-9.158,2.272
	c-2.041,0-4.609-0.416-7.299-2.641c-2.291-1.896-4.668-5.102-6.889-10.53c-0.41-0.995-0.775-2.077-1.121-3.205
	c-0.045-0.14-0.09-0.272-0.129-0.417c-0.32-1.084-0.611-2.234-0.875-3.424c-0.047-0.207-0.094-0.415-0.141-0.625
	c-0.252-1.191-0.482-2.427-0.684-3.705c-0.033-0.218-0.068-0.44-0.102-0.66c-0.195-1.319-0.377-2.67-0.521-4.064
	c-0.016-0.152-0.029-0.313-0.047-0.467c-0.145-1.434-0.268-2.897-0.361-4.395c0-0.057-0.01-0.114-0.014-0.174
	c-0.09-1.512-0.154-3.056-0.195-4.614c-0.006-0.213-0.014-0.423-0.018-0.638c-0.035-1.499-0.049-3.02-0.035-4.551
	c0-0.266,0.004-0.533,0.004-0.804c0.018-1.523,0.055-3.06,0.115-4.599c0.01-0.245,0.021-0.492,0.031-0.738
	c0.068-1.584,0.148-3.17,0.26-4.754c0.008-0.13,0.021-0.262,0.029-0.393c0.115-1.594,0.248-3.182,0.402-4.762
	c0.008-0.109,0.016-0.217,0.029-0.327c0.158-1.576,0.336-3.138,0.533-4.684c0.029-0.226,0.055-0.452,0.086-0.681
	c0.195-1.488,0.41-2.959,0.637-4.403c0.041-0.25,0.08-0.501,0.123-0.748c0.234-1.438,0.486-2.854,0.75-4.233
	c0.043-0.203,0.082-0.4,0.125-0.604c0.281-1.42,0.58-2.814,0.895-4.155c0.014-0.063,0.031-0.122,0.049-0.185
	c0.314-1.336,0.652-2.625,0.998-3.863c0.035-0.117,0.063-0.235,0.098-0.351c0.346-1.206,0.705-2.352,1.08-3.45
	c0.033-0.107,0.072-0.215,0.107-0.32c12.838,4.606,31.939,7.529,50.557,7.529C442.48,121.717,456.865,120.788,467.699,116.359z
	 M89.018,266.305c-4.629,0-9.636,1.168-14.877,3.473c-5.156,2.269-10.192,3.417-14.973,3.417c-7.635,0-14.246-2.923-19.119-8.452
	c-5.058-5.738-7.846-14.018-7.846-23.314c0-18.705,11.089-31.768,26.965-31.768c4.776,0,9.816,1.148,14.973,3.418
	c5.241,2.307,10.248,3.475,14.877,3.475c8.371,0,19.907-3.818,27.342-22c8.659-21.184,5.962-63.214-2.177-85.939
	c11.13-3.833,28.655-6.415,44.983-6.415c12.568,0,23.227,1.528,30.016,4.301c6.648,2.72,10.82,6.063,12.381,9.936
	c1.406,3.47,0.906,7.983-1.484,13.415c-6.752,15.353-6.146,30.437,1.711,42.477c8.041,12.319,22.488,19.387,39.637,19.387
	c17.152,0,31.604-7.067,39.645-19.39c7.857-12.037,8.465-27.124,1.707-42.474c-2.385-5.432-2.889-9.945-1.484-13.415
	c1.566-3.873,5.732-7.216,12.387-9.936c6.785-2.772,17.441-4.301,30.01-4.301c16.33,0,33.857,2.582,44.984,6.415
	c-0.037,0.113-0.076,0.245-0.115,0.36c-0.457,1.288-0.896,2.627-1.318,4.03c-0.031,0.105-0.061,0.216-0.09,0.323
	c-0.422,1.431-0.828,2.912-1.211,4.446c-0.021,0.09-0.045,0.175-0.07,0.265c-0.375,1.528-0.729,3.11-1.066,4.724
	c-0.051,0.229-0.098,0.451-0.145,0.678c-0.32,1.572-0.619,3.178-0.9,4.814c-0.047,0.27-0.094,0.54-0.137,0.813
	c-0.277,1.646-0.529,3.315-0.76,5.012c-0.035,0.24-0.064,0.48-0.094,0.721c-0.234,1.762-0.449,3.535-0.631,5.332
	c-0.014,0.092-0.018,0.188-0.031,0.282c-0.178,1.804-0.338,3.618-0.469,5.442c-0.008,0.145-0.021,0.287-0.029,0.432
	c-0.129,1.797-0.223,3.596-0.295,5.393c-0.014,0.27-0.021,0.535-0.035,0.806c-0.063,1.749-0.098,3.493-0.111,5.229
	c-0.004,0.292-0.004,0.582-0.004,0.875c-0.004,1.746,0.018,3.482,0.07,5.201c0.006,0.226,0.016,0.451,0.023,0.676
	c0.061,1.791,0.146,3.565,0.264,5.31c0.006,0.045,0.01,0.087,0.016,0.132c0.123,1.734,0.281,3.436,0.469,5.107
	c0.021,0.172,0.039,0.35,0.055,0.522c0.188,1.608,0.414,3.181,0.662,4.716c0.041,0.253,0.08,0.506,0.123,0.756
	c0.256,1.494,0.541,2.945,0.859,4.354c0.055,0.242,0.111,0.479,0.166,0.719c0.332,1.41,0.691,2.776,1.088,4.082
	c0.051,0.168,0.105,0.326,0.158,0.49c0.426,1.359,0.879,2.67,1.383,3.898c7.43,18.185,18.967,22,27.336,22
	c4.635,0,9.641-1.168,14.877-3.475c5.16-2.27,10.197-3.418,14.977-3.418c15.877,0,26.965,13.063,26.965,31.77
	c0,18.702-11.088,31.765-26.965,31.765c-4.779,0-9.816-1.148-14.977-3.417c-5.24-2.305-10.242-3.473-14.877-3.473
	c-8.369,0-19.906,3.814-27.336,21.996c-0.504,1.229-0.957,2.54-1.383,3.898c-0.053,0.165-0.107,0.322-0.158,0.49
	c-0.396,1.307-0.756,2.675-1.088,4.086c-0.055,0.238-0.111,0.476-0.166,0.715c-0.318,1.409-0.604,2.863-0.859,4.356
	c-0.043,0.251-0.082,0.503-0.123,0.753c-0.248,1.539-0.475,3.107-0.662,4.719c-0.016,0.173-0.033,0.348-0.055,0.521
	c-0.184,1.671-0.346,3.372-0.469,5.106c-0.006,0.048-0.01,0.09-0.016,0.135c-0.117,1.744-0.203,3.518-0.264,5.307
	c-0.008,0.229-0.018,0.451-0.023,0.679c-0.053,1.719-0.074,3.452-0.07,5.202c0,0.289,0,0.58,0.004,0.873
	c0.014,1.736,0.049,3.482,0.111,5.23c0.014,0.268,0.021,0.536,0.035,0.804c0.072,1.799,0.166,3.598,0.295,5.392
	c0.008,0.147,0.021,0.291,0.029,0.436c0.131,1.824,0.291,3.638,0.469,5.441c0.014,0.096,0.018,0.188,0.031,0.28
	c0.182,1.796,0.396,3.573,0.631,5.335c0.029,0.24,0.059,0.479,0.094,0.717c0.23,1.697,0.482,3.368,0.76,5.018
	c0.043,0.268,0.09,0.537,0.137,0.805c0.281,1.639,0.58,3.248,0.9,4.819c0.047,0.228,0.094,0.448,0.141,0.673
	c0.342,1.616,0.695,3.197,1.074,4.729c0.021,0.088,0.045,0.173,0.066,0.258c0.383,1.536,0.789,3.022,1.211,4.456
	c0.029,0.104,0.059,0.213,0.09,0.317c0.422,1.404,0.861,2.745,1.318,4.036c0.039,0.11,0.072,0.235,0.111,0.345
	c-0.127,0.045-0.252,0.093-0.385,0.139c-0.271,0.092-0.555,0.182-0.832,0.271c-0.533,0.174-1.078,0.344-1.639,0.508
	c-0.316,0.096-0.637,0.191-0.965,0.283c-0.563,0.16-1.139,0.318-1.725,0.473c-0.324,0.086-0.645,0.173-0.977,0.258
	c-0.695,0.178-1.412,0.348-2.135,0.516c-0.232,0.055-0.455,0.113-0.695,0.165c-0.943,0.213-1.908,0.421-2.893,0.618
	c-0.342,0.067-0.695,0.133-1.041,0.2c-0.67,0.13-1.342,0.258-2.025,0.38c-0.426,0.075-0.861,0.148-1.291,0.223
	c-0.629,0.105-1.26,0.211-1.895,0.309c-0.453,0.072-0.91,0.143-1.367,0.209c-0.652,0.098-1.311,0.191-1.971,0.278
	c-0.441,0.06-0.881,0.122-1.328,0.181c-0.811,0.102-1.635,0.199-2.459,0.293c-0.295,0.031-0.584,0.072-0.879,0.104
	c-1.088,0.118-2.189,0.223-3.289,0.323c-0.42,0.037-0.838,0.066-1.256,0.102c-0.73,0.061-1.455,0.118-2.186,0.17
	c-0.465,0.031-0.93,0.061-1.395,0.088c-0.705,0.045-1.41,0.086-2.113,0.121c-0.457,0.021-0.918,0.045-1.375,0.064
	c-0.75,0.029-1.502,0.055-2.254,0.075c-0.4,0.013-0.797,0.027-1.197,0.034c-1.131,0.025-2.268,0.041-3.389,0.041
	c0,0-0.018,0-0.027,0c-12.568,0-23.225-1.526-30.01-4.301c-6.654-2.721-10.82-6.063-12.387-9.936
	c-1.404-3.471-0.9-7.984,1.484-13.413c6.758-15.354,6.15-30.438-1.707-42.476c-8.041-12.322-22.488-19.388-39.641-19.388h-0.004l0,0
	c-17.152,0-31.6,7.065-39.641,19.388c-7.857,12.037-8.463,27.121-1.707,42.476c2.385,5.429,2.891,9.942,1.484,13.413
	c-1.566,3.873-5.732,7.215-12.385,9.936c-4.242,1.733-9.996,2.979-16.781,3.67c-4.072,0.416-8.514,0.631-13.227,0.631
	c-1.164,0-2.338-0.016-3.514-0.043c-0.264-0.005-0.527-0.016-0.797-0.022c-0.9-0.022-1.801-0.053-2.707-0.093
	c-0.336-0.015-0.674-0.029-1.016-0.047c-0.855-0.043-1.715-0.09-2.572-0.146c-0.324-0.021-0.645-0.04-0.965-0.06
	c-0.951-0.068-1.904-0.141-2.854-0.223c-0.205-0.018-0.41-0.033-0.615-0.051c-2.347-0.207-4.673-0.46-6.948-0.756
	c-0.251-0.029-0.495-0.064-0.741-0.1c-0.871-0.115-1.741-0.238-2.597-0.365c-0.306-0.045-0.613-0.093-0.916-0.141
	c-0.816-0.127-1.618-0.258-2.416-0.395c-0.286-0.051-0.572-0.098-0.854-0.148c-0.887-0.157-1.763-0.32-2.619-0.49
	c-0.167-0.032-0.338-0.063-0.501-0.098c-1.049-0.209-2.078-0.428-3.081-0.655c-0.051-0.013-0.094-0.022-0.14-0.032
	c-0.919-0.211-1.814-0.428-2.689-0.65c-0.248-0.063-0.482-0.128-0.727-0.193c-0.674-0.178-1.34-0.357-1.983-0.543
	c-0.266-0.077-0.529-0.154-0.795-0.232c-0.617-0.182-1.216-0.37-1.805-0.563c-0.234-0.075-0.475-0.152-0.704-0.229
	c-0.149-0.049-0.281-0.102-0.427-0.152c8.135-22.728,10.832-64.745,2.173-85.93C108.925,270.119,97.389,266.305,89.018,266.305z
	 M288.305,639.641c-10.338,4.224-17.123,10.201-20.178,17.762c-2.895,7.155-2.34,15.385,1.65,24.454
	c4.76,10.813,4.541,21.108-0.602,28.992c-5.369,8.229-15.482,12.948-27.746,12.948c-12.266,0-22.377-4.719-27.746-12.948
	c-5.146-7.884-5.359-18.182-0.605-28.992c3.99-9.072,4.551-17.299,1.656-24.457c-3.057-7.561-9.846-13.535-20.18-17.759
	c-10.83-4.428-25.223-5.359-35.389-5.359c-18.616,0-37.724,2.926-50.558,7.533c-6.739-19.525-9.143-57.777-2.104-74.996
	c4.822-11.804,10.406-13.17,14.187-13.17c2.65,0,5.731,0.766,9.159,2.271c6.975,3.068,13.935,4.621,20.695,4.621
	c23.854,0,41.168-19.332,41.168-45.968c0-26.642-17.314-45.974-41.168-45.974c-6.761,0-13.721,1.554-20.695,4.621
	c-3.428,1.506-6.509,2.27-9.159,2.27c-3.78,0.002-9.364-1.363-14.187-13.168c-7.041-17.219-4.639-55.469,2.104-74.996
	c0.142,0.053,0.294,0.098,0.436,0.147c0.35,0.125,0.713,0.245,1.07,0.365c0.573,0.192,1.153,0.383,1.747,0.571
	c0.393,0.122,0.784,0.242,1.182,0.362c0.614,0.183,1.237,0.36,1.869,0.535c0.389,0.11,0.776,0.22,1.174,0.327
	c0.764,0.203,1.545,0.398,2.339,0.594c0.277,0.067,0.551,0.141,0.832,0.207c1.05,0.25,2.121,0.488,3.214,0.721
	c0.414,0.088,0.84,0.168,1.26,0.253c0.717,0.146,1.434,0.29,2.162,0.425c0.496,0.094,0.991,0.181,1.49,0.271
	c0.684,0.119,1.366,0.237,2.062,0.352c0.517,0.086,1.032,0.168,1.558,0.248c0.713,0.11,1.434,0.215,2.155,0.318
	c0.505,0.07,1.004,0.145,1.512,0.21c0.892,0.12,1.792,0.229,2.691,0.335c0.42,0.051,0.829,0.1,1.248,0.145
	c1.131,0.129,2.274,0.244,3.422,0.349c0.509,0.048,1.017,0.085,1.528,0.13c0.768,0.063,1.535,0.125,2.309,0.18
	c0.555,0.041,1.113,0.078,1.672,0.111c0.744,0.047,1.486,0.09,2.229,0.129c0.564,0.027,1.123,0.056,1.686,0.078
	c0.781,0.032,1.563,0.061,2.344,0.082c0.518,0.016,1.029,0.033,1.539,0.043c1.086,0.025,2.166,0.035,3.244,0.04
	c0.193,0,0.391,0.005,0.58,0.005c6.355,0,14.359-0.363,22.113-1.717c4.652-0.811,9.219-1.979,13.281-3.64
	c10.334-4.226,17.123-10.2,20.18-17.765c2.895-7.154,2.334-15.384-1.656-24.453c-4.754-10.811-4.541-21.109,0.605-28.993
	c5.369-8.226,15.48-12.944,27.742-12.944c12.268,0,22.377,4.719,27.746,12.944c5.146,7.886,5.361,18.183,0.605,28.995
	c-3.99,9.072-4.549,17.299-1.656,24.457c3.057,7.561,9.846,13.535,20.18,17.759c10.836,4.429,25.223,5.356,35.389,5.356l0,0h0.006
	c1.301,0,2.604-0.018,3.908-0.045c0.393-0.008,0.785-0.022,1.184-0.035c0.916-0.025,1.834-0.055,2.752-0.095
	c0.451-0.018,0.9-0.04,1.35-0.063c0.887-0.046,1.775-0.095,2.658-0.153c0.426-0.027,0.854-0.053,1.281-0.082
	c0.971-0.07,1.936-0.147,2.9-0.232c0.32-0.027,0.645-0.051,0.969-0.08c1.301-0.117,2.596-0.248,3.881-0.393l0.012-0.003
	c1.254-0.14,2.502-0.296,3.734-0.46c0.346-0.048,0.684-0.098,1.029-0.146c0.896-0.125,1.787-0.255,2.676-0.394
	c0.393-0.063,0.785-0.125,1.178-0.188c0.842-0.137,1.674-0.282,2.502-0.428c0.371-0.067,0.746-0.135,1.117-0.202
	c0.904-0.171,1.801-0.349,2.686-0.528c0.26-0.053,0.52-0.103,0.777-0.157c1.146-0.243,2.277-0.495,3.379-0.759
	c0.115-0.024,0.223-0.055,0.334-0.082c0.963-0.232,1.91-0.473,2.836-0.721c0.326-0.088,0.641-0.175,0.957-0.266
	c0.713-0.194,1.408-0.395,2.096-0.6c0.346-0.105,0.688-0.211,1.029-0.318c0.643-0.202,1.275-0.407,1.898-0.617
	c0.32-0.107,0.645-0.216,0.961-0.328c0.154-0.053,0.314-0.103,0.465-0.158c0.037,0.115,0.076,0.233,0.115,0.348
	c0.367,1.084,0.725,2.213,1.066,3.398c0.037,0.147,0.082,0.303,0.125,0.45c0.328,1.176,0.645,2.395,0.947,3.655
	c0.029,0.127,0.059,0.248,0.09,0.373c0.303,1.285,0.588,2.625,0.861,3.985c0.051,0.268,0.105,0.53,0.158,0.798
	c0.256,1.316,0.494,2.665,0.717,4.033c0.057,0.33,0.111,0.663,0.162,0.996c0.217,1.366,0.418,2.754,0.602,4.16
	c0.043,0.328,0.086,0.661,0.123,0.994c0.186,1.443,0.355,2.904,0.5,4.378c0.025,0.243,0.047,0.491,0.068,0.735
	c0.131,1.384,0.252,2.772,0.354,4.168c0.018,0.271,0.043,0.539,0.061,0.809c0.098,1.471,0.18,2.947,0.242,4.424
	c0.014,0.363,0.031,0.729,0.043,1.091c0.055,1.44,0.09,2.88,0.107,4.311c0.004,0.368,0.008,0.735,0.008,1.104
	c0.01,1.441,0,2.87-0.029,4.286c-0.008,0.313-0.021,0.62-0.031,0.931c-0.041,1.472-0.098,2.93-0.182,4.358
	c-0.012,0.152-0.027,0.303-0.035,0.457c-0.088,1.371-0.199,2.718-0.332,4.039c-0.021,0.223-0.043,0.453-0.064,0.676
	c-0.145,1.344-0.314,2.648-0.508,3.926c-0.037,0.262-0.076,0.527-0.119,0.787c-0.195,1.246-0.42,2.455-0.666,3.621
	c-0.051,0.232-0.102,0.465-0.152,0.695c-0.266,1.168-0.547,2.299-0.863,3.367c-0.047,0.16-0.098,0.311-0.15,0.469
	c-0.336,1.105-0.695,2.164-1.096,3.142c-0.004,0.011-0.004,0.021-0.01,0.03c-4.826,11.805-10.412,13.168-14.195,13.168
	c-1.787,0-3.785-0.375-5.936-1.063c-1.037-0.333-2.104-0.716-3.219-1.206c-3.486-1.533-6.969-2.689-10.426-3.46
	c-3.457-0.773-6.889-1.161-10.27-1.161c-23.854,0-41.168,19.332-41.168,45.971c0,1.624,0.068,3.228,0.197,4.809
	c0.066,0.813,0.191,1.592,0.289,2.387c0.094,0.738,0.158,1.486,0.279,2.215c0.17,1.031,0.4,2.021,0.625,3.022
	c0.107,0.47,0.186,0.956,0.303,1.423c0.254,0.981,0.561,1.928,0.863,2.875c0.15,0.469,0.273,0.951,0.436,1.412
	c0.291,0.828,0.637,1.618,0.965,2.416c0.234,0.561,0.443,1.134,0.695,1.682c0.291,0.633,0.623,1.23,0.943,1.844
	c0.346,0.676,0.678,1.361,1.059,2.014c0.264,0.453,0.563,0.871,0.84,1.312c0.482,0.761,0.957,1.528,1.482,2.255
	c0.252,0.348,0.533,0.662,0.793,1c0.533,0.688,1.051,1.394,1.623,2.045c0.055,0.064,0.117,0.117,0.178,0.182
	c0.424,0.473,0.883,0.9,1.328,1.354c0.516,0.525,1.016,1.076,1.557,1.568c0.939,0.859,1.926,1.66,2.938,2.42
	c0.068,0.051,0.127,0.11,0.195,0.16c5.484,4.046,12.014,6.625,19.262,7.361c0.227,0.021,0.461,0.015,0.688,0.035
	c1.195,0.102,2.402,0.185,3.635,0.185c6.762,0,13.723-1.556,20.691-4.621c3.428-1.509,6.51-2.272,9.16-2.272
	c0.943,0,2.002,0.086,3.133,0.398c3.389,0.936,7.434,3.916,11.053,12.77c0.01,0.023,0.018,0.048,0.027,0.07
	c0.391,0.963,0.746,2.004,1.078,3.09c0.053,0.166,0.107,0.323,0.154,0.488c0.313,1.063,0.598,2.189,0.857,3.35
	c0.051,0.238,0.107,0.476,0.158,0.719c0.246,1.16,0.471,2.364,0.666,3.609c0.043,0.261,0.082,0.525,0.119,0.786
	c0.193,1.278,0.363,2.587,0.508,3.936c0.021,0.213,0.039,0.433,0.061,0.647c0.137,1.342,0.248,2.705,0.336,4.1
	c0.008,0.135,0.023,0.268,0.029,0.404c0.09,1.441,0.146,2.918,0.188,4.404c0.01,0.292,0.023,0.582,0.027,0.877
	c0.033,1.43,0.043,2.875,0.033,4.332c0,0.35-0.004,0.703-0.008,1.055c-0.018,1.444-0.053,2.896-0.107,4.352
	c-0.012,0.348-0.029,0.698-0.043,1.049c-0.068,1.483-0.145,2.969-0.246,4.455c-0.018,0.264-0.039,0.528-0.061,0.793
	c-0.098,1.392-0.219,2.777-0.35,4.156c-0.021,0.256-0.043,0.51-0.068,0.764c-0.145,1.455-0.314,2.899-0.496,4.328
	c-0.041,0.357-0.084,0.713-0.131,1.063c-0.184,1.385-0.381,2.745-0.594,4.089c-0.055,0.365-0.115,0.728-0.176,1.089
	c-0.217,1.333-0.451,2.646-0.699,3.928c-0.061,0.317-0.123,0.628-0.188,0.94c-0.266,1.313-0.537,2.606-0.828,3.851
	c-0.047,0.189-0.094,0.367-0.141,0.555c-0.277,1.159-0.566,2.279-0.871,3.363c-0.059,0.223-0.119,0.453-0.184,0.67
	c-0.324,1.127-0.66,2.195-1.012,3.226c-0.051,0.155-0.102,0.308-0.154,0.458c-12.832-4.605-31.939-7.531-50.553-7.531
	C313.523,634.281,299.137,635.213,288.305,639.641z M696.832,546.338c-4.781,0-9.816-1.148-14.979-3.418
	c-5.24-2.307-10.242-3.475-14.877-3.475c-8.369,0-19.906,3.818-27.336,22c-8.66,21.188-5.963,63.217,2.176,85.939
	c-11.125,3.832-28.654,6.414-44.982,6.414c-12.57,0-23.227-1.525-30.018-4.301c-6.65-2.719-10.818-6.063-12.381-9.936
	c-1.404-3.47-0.904-7.982,1.486-13.412c6.75-15.352,6.145-30.439-1.713-42.477c-8.041-12.321-22.486-19.39-39.641-19.39
	c-17.152,0-31.6,7.068-39.641,19.39c-7.855,12.037-8.463,27.122-1.707,42.477c2.387,5.43,2.891,9.942,1.486,13.412
	c-1.566,3.873-5.732,7.217-12.387,9.936c-6.785,2.775-17.445,4.301-30.016,4.301c-16.33,0-33.854-2.582-44.98-6.414
	c0.029-0.08,0.057-0.176,0.082-0.258c0.477-1.339,0.934-2.734,1.369-4.199c0.01-0.024,0.018-0.052,0.027-0.08
	c0.9-3.031,1.711-6.316,2.432-9.77c0.025-0.141,0.055-0.275,0.086-0.412c0.336-1.649,0.652-3.338,0.947-5.057
	c0.029-0.178,0.059-0.355,0.09-0.536c0.289-1.729,0.559-3.485,0.797-5.269c0.021-0.139,0.039-0.275,0.057-0.41
	c0.498-3.766,0.896-7.624,1.172-11.515c0-0.021,0-0.04,0.006-0.063c0.133-1.894,0.234-3.793,0.307-5.689
	c0.008-0.163,0.014-0.323,0.021-0.485c0.068-1.842,0.107-3.676,0.119-5.502c0-0.195,0-0.388,0-0.58
	c0.004-1.836-0.018-3.658-0.072-5.465c-0.004-0.127-0.008-0.252-0.012-0.38c-0.125-3.751-0.375-7.413-0.777-10.921
	c-0.01-0.086-0.018-0.17-0.025-0.256c-0.197-1.681-0.428-3.32-0.691-4.924c-0.029-0.18-0.057-0.359-0.09-0.54
	c-0.26-1.554-0.559-3.06-0.889-4.521c-0.043-0.186-0.084-0.368-0.127-0.551c-0.342-1.461-0.713-2.877-1.127-4.229
	c-0.035-0.112-0.072-0.223-0.107-0.338c-0.436-1.394-0.9-2.734-1.412-3.99c-5.578-13.641-13.461-19.195-20.584-21.121
	c-2.377-0.641-4.67-0.881-6.762-0.881c-4.629,0-9.635,1.168-14.877,3.475c-5.156,2.27-10.191,3.418-14.973,3.418
	c-0.09,0-0.17-0.01-0.256-0.013c-0.895-0.007-1.779-0.045-2.646-0.135c-0.055-0.005-0.111-0.021-0.166-0.025
	c-10.396-1.155-18.369-8.171-21.898-18.699c-0.223-0.665-0.404-1.354-0.588-2.044c-0.086-0.311-0.188-0.605-0.266-0.921
	c-0.486-2.007-0.814-4.11-0.99-6.28c-0.098-1.191-0.154-2.404-0.154-3.647c0-18.704,11.094-31.771,26.969-31.771
	c2.387,0,4.84,0.288,7.342,0.859c2.502,0.57,5.051,1.426,7.627,2.559c1.434,0.631,2.842,1.158,4.238,1.616
	c3.709,1.224,7.277,1.859,10.645,1.859c8.369,0,19.906-3.818,27.34-21.997c0.508-1.254,0.973-2.59,1.408-3.979
	c0.039-0.125,0.076-0.242,0.115-0.367c0.41-1.342,0.781-2.748,1.119-4.199c0.047-0.195,0.094-0.387,0.137-0.582
	c0.324-1.449,0.619-2.945,0.883-4.484c0.033-0.197,0.064-0.397,0.094-0.596c0.26-1.586,0.49-3.207,0.684-4.871
	c0.012-0.104,0.023-0.215,0.033-0.322c0.398-3.48,0.648-7.113,0.773-10.831c0.004-0.149,0.012-0.298,0.016-0.448
	c0.051-1.786,0.072-3.59,0.068-5.404c0-0.215,0-0.428,0-0.645c-0.012-1.807-0.051-3.621-0.119-5.439
	c-0.004-0.188-0.018-0.375-0.021-0.563c-0.076-1.875-0.174-3.746-0.307-5.615c-0.006-0.055-0.008-0.107-0.012-0.162
	c-0.139-1.955-0.305-3.9-0.502-5.832l-0.004-0.013c-0.188-1.864-0.41-3.706-0.652-5.532c-0.025-0.172-0.047-0.346-0.068-0.518
	c-0.238-1.746-0.5-3.468-0.781-5.162c-0.039-0.225-0.076-0.445-0.115-0.668c-0.285-1.674-0.592-3.32-0.922-4.926
	c-0.039-0.193-0.08-0.381-0.119-0.57c-0.346-1.646-0.703-3.26-1.092-4.816c-0.014-0.058-0.031-0.113-0.043-0.173
	c-0.393-1.566-0.803-3.083-1.238-4.544c-0.025-0.092-0.051-0.188-0.076-0.277c-0.424-1.408-0.863-2.75-1.318-4.043
	c-0.043-0.113-0.078-0.24-0.115-0.351c0.135-0.048,0.264-0.097,0.404-0.143c0.248-0.085,0.512-0.167,0.768-0.253
	c0.564-0.18,1.141-0.362,1.734-0.537c0.281-0.086,0.566-0.168,0.857-0.253c0.619-0.178,1.258-0.351,1.908-0.521
	c0.26-0.07,0.52-0.141,0.785-0.207c0.84-0.216,1.699-0.424,2.576-0.623c0.088-0.021,0.164-0.041,0.248-0.061
	c0.994-0.226,2.016-0.443,3.053-0.65c0.188-0.037,0.379-0.072,0.563-0.107c0.842-0.166,1.688-0.326,2.549-0.479
	c0.303-0.055,0.613-0.107,0.916-0.16c0.773-0.13,1.551-0.26,2.34-0.38c0.33-0.053,0.652-0.103,0.986-0.153
	c0.828-0.122,1.664-0.24,2.506-0.352c0.271-0.038,0.545-0.076,0.818-0.111c2.266-0.292,4.576-0.545,6.91-0.752
	c0.23-0.021,0.465-0.035,0.699-0.059c0.918-0.074,1.84-0.146,2.762-0.213c0.342-0.021,0.688-0.045,1.029-0.064
	c0.84-0.055,1.68-0.1,2.521-0.143c0.346-0.016,0.697-0.033,1.041-0.047c0.893-0.041,1.781-0.068,2.668-0.094
	c0.277-0.007,0.559-0.018,0.836-0.021c1.17-0.027,2.34-0.043,3.5-0.043c12.57,0,23.23,1.529,30.018,4.303
	c6.648,2.721,10.818,6.063,12.381,9.936c0.525,1.301,0.785,2.748,0.775,4.336c-0.012,2.647-0.768,5.682-2.262,9.074
	c-2.467,5.607-3.939,11.174-4.447,16.574c-0.887,9.387,1.17,18.262,6.154,25.902c8.041,12.322,22.492,19.391,39.646,19.391
	c17.152,0,31.6-7.066,39.639-19.389c4.418-6.772,6.543-14.506,6.355-22.71c-0.145-6.385-1.689-13.05-4.646-19.769
	c-2.387-5.429-2.891-9.941-1.486-13.412c0.004-0.013,0.014-0.023,0.018-0.033c1.58-3.857,5.736-7.189,12.367-9.9
	c6.787-2.773,17.443-4.301,30.01-4.301c1.186,0,2.377,0.016,3.566,0.041c0.191,0.004,0.385,0.012,0.578,0.018
	c0.977,0.024,1.957,0.057,2.939,0.1c0.285,0.012,0.568,0.027,0.854,0.04c0.922,0.045,1.844,0.098,2.766,0.155
	c0.268,0.018,0.533,0.035,0.803,0.053c1.027,0.07,2.053,0.15,3.072,0.237c0.141,0.01,0.277,0.022,0.418,0.032
	c2.379,0.211,4.73,0.469,7.033,0.766c0.201,0.025,0.402,0.055,0.604,0.083c0.922,0.12,1.838,0.25,2.744,0.386
	c0.271,0.042,0.541,0.082,0.811,0.125c0.854,0.132,1.699,0.27,2.533,0.414c0.254,0.043,0.506,0.086,0.756,0.129
	c0.936,0.167,1.861,0.34,2.77,0.52c0.121,0.023,0.24,0.045,0.359,0.07c1.068,0.213,2.113,0.436,3.133,0.666v0.002
	c0.969,0.221,1.908,0.447,2.826,0.684c0.227,0.057,0.443,0.115,0.66,0.175c0.701,0.181,1.385,0.37,2.049,0.56
	c0.252,0.073,0.504,0.146,0.752,0.219c0.637,0.189,1.25,0.383,1.852,0.578c0.227,0.072,0.453,0.145,0.67,0.217
	c0.15,0.051,0.285,0.105,0.436,0.155c-8.135,22.73-10.832,64.745-2.172,85.93c7.43,18.182,18.967,21.997,27.336,21.997
	c4.635,0,9.637-1.166,14.877-3.473c5.162-2.27,10.197-3.418,14.979-3.418c15.875,0,26.965,13.063,26.965,31.771
	C723.797,533.275,712.707,546.338,696.832,546.338z"/>
</svg>
