<?xml version="1.0" encoding="utf-8"?>
<!-- Generator: Adobe Illustrator 15.1.0, SVG Export Plug-In . SVG Version: 6.00 Build 0)  -->
<!DOCTYPE svg PUBLIC "-//W3C//DTD SVG 1.1//EN" "http://www.w3.org/Graphics/SVG/1.1/DTD/svg11.dtd">
<svg version="1.1" id="puzzle" xmlns="http://www.w3.org/2000/svg" xmlns:xlink="http://www.w3.org/1999/xlink" x="0px" y="0px"
	 width="756px" height="756px" viewBox="0 0 756 756" enable-background="new 0 0 756 756" xml:space="preserve">
<path d="M696.832,468.599c-6.762,0-13.723,1.557-20.697,4.621c-3.426,1.509-6.508,2.271-9.158,2.271
	c-3.781,0-9.363-1.363-14.186-13.168c-7.867-19.232-3.949-64.697,4.635-81.01l0.004-0.006c10.4-19.76,14.883-69.356,5.221-93.002
	c-7.438-18.185-18.973-22-27.342-22c-4.631,0-9.637,1.168-14.879,3.473c-5.154,2.27-10.195,3.42-14.971,3.42
	c-15.877,0-26.969-13.063-26.969-31.768c0-18.704,11.092-31.77,26.969-31.77c4.775,0,9.816,1.15,14.971,3.42
	c5.242,2.305,10.248,3.473,14.879,3.473c8.369,0,19.904-3.817,27.342-21.996c9.662-23.648,5.18-73.248-5.221-93.008
	c-1.83-3.471-6.129-4.805-9.594-2.978c-9.844,5.181-31.293,8.942-50.998,8.942c-12.57,0-23.23-1.527-30.018-4.301
	c-6.654-2.721-10.818-6.063-12.385-9.936c-1.404-3.471-0.9-7.984,1.486-13.414c6.756-15.354,6.148-30.438-1.709-42.475
	c-8.039-12.322-22.486-19.391-39.639-19.391c-17.154,0-31.605,7.068-39.641,19.391c-7.857,12.037-8.463,27.121-1.713,42.473
	c2.391,5.43,2.891,9.943,1.49,13.413c-1.566,3.873-5.736,7.218-12.385,9.938c-6.787,2.773-17.443,4.301-30.014,4.301
	c-19.709,0-41.158-3.762-51.006-8.942c-12.018-6.325-35.172-10.576-57.617-10.576c-10.162,0-24.553,0.929-35.385,5.356
	c-10.332,4.224-17.123,10.198-20.178,17.76c-2.895,7.158-2.34,15.385,1.65,24.456c4.76,10.813,4.541,21.108-0.602,28.995
	c-5.369,8.227-15.482,12.945-27.75,12.945c-12.262,0-22.373-4.717-27.742-12.945c-5.146-7.884-5.359-18.182-0.605-28.995
	c3.99-9.071,4.551-17.298,1.656-24.456c-3.057-7.562-9.846-13.536-20.18-17.76c-10.836-4.428-25.227-5.356-35.389-5.356
	c-22.44,0-45.599,4.251-57.617,10.576c-3.47,1.826-4.801,6.12-2.975,9.593c8.583,16.313,12.497,61.785,4.64,81.016
	c-4.827,11.804-10.414,13.168-14.196,13.168c-2.649,0-5.73-0.764-9.158-2.272c-6.969-3.065-13.931-4.621-20.691-4.621
	C35.314,195.455,18,214.79,18,241.429c0,12.758,4.046,24.371,11.392,32.708c7.541,8.554,18.112,13.265,29.776,13.263
	c6.761,0,13.723-1.554,20.691-4.621c3.428-1.506,6.509-2.271,9.158-2.271c3.782,0,9.369,1.365,14.191,13.17
	c7.862,19.23,3.944,64.705-4.639,81.016c-0.005,0.008-0.005,0.016-0.005,0.016c-10.396,19.785-14.873,69.354-5.21,92.99
	c7.43,18.184,18.966,22,27.335,21.997c4.636,0,9.642-1.169,14.879-3.474c5.159-2.269,10.194-3.42,14.976-3.42
	c15.877,0,26.965,13.065,26.965,31.773c0,18.701-11.088,31.764-26.965,31.764c-4.781,0-9.816-1.15-14.976-3.42
	c-5.241-2.305-10.243-3.473-14.879-3.473c-8.369,0-19.905,3.818-27.335,22c-9.668,23.646-5.182,73.244,5.219,93.005
	c1.822,3.468,6.112,4.806,9.59,2.978c9.847-5.182,31.297-8.941,51.002-8.941c12.568,0,23.23,1.527,30.016,4.301
	c6.648,2.719,10.82,6.062,12.381,9.938c1.406,3.467,0.906,7.98-1.484,13.412c-6.752,15.353-6.146,30.438,1.707,42.474
	c8.041,12.322,22.492,19.388,39.645,19.39c17.152,0,31.6-7.067,39.641-19.39c7.857-12.036,8.465-27.121,1.707-42.474
	c-2.385-5.429-2.889-9.942-1.484-13.412c1.566-3.873,5.732-7.219,12.387-9.938c6.785-2.773,17.441-4.301,30.006-4.301
	c19.709,0,41.16,3.76,51.006,8.941l0,0c12.02,6.324,35.174,10.576,57.613,10.576c10.166,0,24.559-0.929,35.391-5.359
	c10.332-4.224,17.121-10.198,20.178-17.76c2.893-7.154,2.34-15.384-1.652-24.453c-4.758-10.814-4.541-21.111,0.604-28.996
	c5.369-8.229,15.482-12.947,27.744-12.947s22.377,4.721,27.746,12.947c5.148,7.885,5.359,18.182,0.607,28.996
	c-3.992,9.069-4.551,17.299-1.658,24.453c3.057,7.562,9.848,13.536,20.18,17.76c10.836,4.431,25.225,5.359,35.391,5.359
	c22.443,0,45.598-4.252,57.617-10.576c3.473-1.829,4.805-6.123,2.979-9.593c-8.588-16.31-12.502-61.783-4.639-81.016
	c4.822-11.804,10.404-13.171,14.186-13.171c2.65,0,5.732,0.766,9.158,2.272c6.975,3.067,13.936,4.621,20.697,4.621
	c23.854,0,41.168-19.335,41.168-45.968C738,487.934,720.686,468.599,696.832,468.599z M467.699,116.36
	c10.332-4.225,17.123-10.199,20.178-17.764c2.895-7.155,2.336-15.385-1.656-24.453c-4.754-10.812-4.541-21.109,0.605-28.993
	c5.371-8.227,15.48-12.945,27.748-12.945c12.26,0,22.375,4.719,27.744,12.945c5.145,7.884,5.361,18.182,0.604,28.995
	c-3.992,9.072-4.547,17.299-1.652,24.457c3.055,7.561,9.846,13.535,20.178,17.758c10.832,4.43,25.225,5.357,35.391,5.357
	c18.615,0,37.723-2.925,50.557-7.533c6.74,19.527,9.143,57.779,2.105,74.996c-4.824,11.804-10.41,13.17-14.191,13.17
	c-2.65,0-5.73-0.766-9.158-2.271c-6.971-3.068-13.932-4.621-20.691-4.621c-23.857,0-41.172,19.335-41.172,45.973
	c0,26.639,17.314,45.971,41.172,45.971c6.76,0,13.721-1.556,20.691-4.621c3.428-1.508,6.508-2.271,9.158-2.271
	c3.781,0,9.367,1.363,14.191,13.168c7.037,17.219,4.635,55.471-2.105,74.998c-0.127-0.047-0.264-0.09-0.393-0.135
	c-0.391-0.137-0.797-0.272-1.197-0.407c-0.529-0.178-1.059-0.351-1.605-0.522c-0.428-0.136-0.863-0.269-1.303-0.4
	c-0.559-0.166-1.125-0.328-1.703-0.488c-0.443-0.125-0.879-0.248-1.33-0.368c-0.662-0.177-1.346-0.348-2.031-0.515
	c-0.377-0.096-0.744-0.193-1.127-0.283c-1.025-0.245-2.074-0.479-3.133-0.703c-0.482-0.1-0.975-0.195-1.461-0.295
	c-0.645-0.131-1.293-0.261-1.953-0.383c-0.539-0.104-1.086-0.197-1.631-0.295c-0.627-0.111-1.26-0.221-1.9-0.326
	c-0.559-0.092-1.121-0.182-1.689-0.27c-0.652-0.101-1.311-0.195-1.971-0.288c-0.561-0.08-1.119-0.163-1.688-0.237
	c-0.76-0.101-1.527-0.193-2.295-0.285c-0.752-0.09-1.508-0.176-2.268-0.258c-0.891-0.096-1.793-0.19-2.693-0.273
	c-0.584-0.053-1.168-0.1-1.754-0.147c-0.689-0.058-1.381-0.114-2.074-0.163c-0.609-0.045-1.221-0.084-1.83-0.122
	c-0.682-0.042-1.361-0.08-2.045-0.117c-0.613-0.03-1.229-0.06-1.848-0.088c-0.699-0.027-1.404-0.05-2.107-0.072
	c-0.59-0.018-1.174-0.038-1.764-0.05c-0.891-0.018-1.779-0.025-2.672-0.03c-0.363-0.003-0.729-0.013-1.096-0.013
	c-10.162,0-24.555,0.928-35.387,5.356c-10.332,4.224-17.123,10.198-20.178,17.759c-1.088,2.686-1.686,5.521-1.801,8.497
	c-0.193,4.954,0.961,10.296,3.453,15.962c2.375,5.407,3.512,10.684,3.41,15.596c-0.104,4.908-1.443,9.454-4.014,13.397
	c-5.369,8.227-15.484,12.944-27.75,12.944c-10.729,0-19.811-3.612-25.514-10.027c-0.814-0.916-1.557-1.889-2.229-2.917
	c-0.643-0.985-1.211-2.009-1.697-3.067c-1.469-3.17-2.24-6.648-2.318-10.33c-0.102-4.912,1.035-10.191,3.41-15.596
	c2.498-5.669,3.65-11.011,3.457-15.965c-0.119-2.975-0.717-5.809-1.801-8.494c-3.055-7.561-9.846-13.535-20.178-17.759
	c-10.836-4.429-25.229-5.356-35.391-5.356c-0.184,0-0.367,0.005-0.551,0.005c-1.092,0.003-2.189,0.015-3.287,0.038
	c-0.498,0.012-0.998,0.029-1.5,0.045c-0.799,0.021-1.594,0.05-2.391,0.082c-0.551,0.023-1.098,0.051-1.648,0.078
	c-0.76,0.039-1.514,0.082-2.27,0.13c-0.547,0.034-1.092,0.067-1.635,0.107c-0.791,0.058-1.58,0.12-2.365,0.188
	c-0.494,0.04-0.99,0.077-1.48,0.126c-1.156,0.104-2.314,0.223-3.457,0.348c-0.402,0.045-0.799,0.094-1.199,0.143
	c-0.908,0.107-1.814,0.217-2.715,0.334c-0.506,0.068-1.008,0.144-1.51,0.213c-0.727,0.104-1.443,0.208-2.156,0.318
	c-0.52,0.08-1.041,0.165-1.557,0.248c-0.691,0.115-1.375,0.229-2.049,0.353c-0.508,0.087-1.012,0.177-1.512,0.271
	c-0.711,0.135-1.412,0.275-2.113,0.414c-0.436,0.091-0.877,0.176-1.313,0.266c-1.08,0.23-2.145,0.469-3.189,0.716
	c-0.314,0.075-0.619,0.155-0.932,0.233c-0.754,0.185-1.5,0.372-2.23,0.567c-0.418,0.11-0.824,0.226-1.234,0.341
	c-0.609,0.17-1.215,0.342-1.809,0.52c-0.41,0.123-0.818,0.248-1.221,0.375c-0.58,0.181-1.143,0.368-1.703,0.557
	c-0.371,0.125-0.746,0.247-1.105,0.375c-0.137,0.047-0.287,0.095-0.418,0.143c-0.039-0.11-0.078-0.223-0.115-0.333
	c-0.371-1.097-0.734-2.237-1.076-3.438c-0.035-0.114-0.063-0.236-0.098-0.352c-0.35-1.246-0.688-2.54-1.008-3.884
	c-0.012-0.052-0.025-0.103-0.039-0.157c-0.318-1.354-0.617-2.76-0.904-4.195c-0.033-0.186-0.072-0.365-0.105-0.549
	c-0.273-1.398-0.529-2.832-0.768-4.293c-0.035-0.221-0.074-0.443-0.107-0.668c-0.234-1.469-0.449-2.963-0.648-4.479
	c-0.027-0.197-0.049-0.398-0.072-0.594c-0.201-1.576-0.385-3.167-0.547-4.773c-0.004-0.064-0.01-0.13-0.018-0.195
	c-0.162-1.641-0.299-3.295-0.418-4.953c-0.004-0.086-0.014-0.173-0.018-0.26c-0.111-1.614-0.195-3.236-0.264-4.85
	c-0.01-0.215-0.021-0.43-0.031-0.643c-0.061-1.568-0.098-3.131-0.115-4.682c0-0.237-0.004-0.475-0.004-0.713
	c-0.008-1.554,0-3.098,0.035-4.621c0.004-0.193,0.012-0.381,0.018-0.57c0.041-1.582,0.105-3.145,0.199-4.676
	c0-0.033,0.004-0.068,0.01-0.101c0.094-1.524,0.217-3.015,0.365-4.472c0.014-0.145,0.027-0.292,0.043-0.438
	c0.145-1.398,0.326-2.757,0.525-4.08c0.029-0.215,0.064-0.431,0.098-0.643c0.201-1.284,0.432-2.525,0.688-3.721
	c0.043-0.205,0.09-0.408,0.133-0.613c0.268-1.193,0.559-2.342,0.879-3.43c0.043-0.143,0.084-0.275,0.129-0.414
	c0.346-1.128,0.711-2.211,1.121-3.207c4.822-11.805,10.406-13.17,14.188-13.17c2.65,0,5.73,0.766,9.158,2.271
	c6.973,3.067,13.936,4.621,20.695,4.621c23.854,0,41.168-19.332,41.168-45.969c0-26.641-17.314-45.976-41.168-45.976
	c-6.76,0-13.723,1.556-20.695,4.621c-3.428,1.509-6.508,2.272-9.158,2.272c-2.041,0-4.609-0.414-7.299-2.638
	c-2.291-1.896-4.668-5.102-6.889-10.53c-0.41-0.996-0.775-2.077-1.121-3.205c-0.045-0.141-0.09-0.275-0.129-0.418
	c-0.32-1.084-0.611-2.234-0.875-3.423c-0.047-0.208-0.094-0.415-0.141-0.626c-0.252-1.19-0.482-2.426-0.684-3.705
	c-0.033-0.217-0.068-0.439-0.102-0.66c-0.195-1.318-0.377-2.67-0.521-4.063c-0.016-0.155-0.029-0.313-0.047-0.468
	c-0.145-1.434-0.268-2.896-0.361-4.396c0-0.057-0.01-0.114-0.014-0.172c-0.09-1.512-0.154-3.055-0.195-4.616
	c-0.006-0.21-0.014-0.421-0.018-0.636c-0.035-1.498-0.049-3.02-0.035-4.551c0-0.268,0.004-0.535,0.004-0.803
	c0.018-1.527,0.055-3.061,0.115-4.6c0.01-0.244,0.021-0.492,0.031-0.737c0.068-1.587,0.148-3.171,0.26-4.754
	c0.008-0.133,0.021-0.263,0.029-0.396c0.115-1.594,0.248-3.182,0.402-4.759c0.008-0.11,0.016-0.218,0.029-0.327
	c0.158-1.576,0.336-3.138,0.533-4.684c0.029-0.226,0.055-0.453,0.086-0.682c0.195-1.488,0.41-2.959,0.637-4.405
	c0.041-0.247,0.08-0.498,0.123-0.745c0.234-1.439,0.486-2.855,0.75-4.234c0.043-0.202,0.082-0.4,0.125-0.603
	c0.281-1.421,0.58-2.814,0.895-4.155c0.014-0.063,0.031-0.123,0.049-0.186c0.314-1.336,0.652-2.625,0.998-3.865
	c0.035-0.115,0.063-0.232,0.098-0.348c0.346-1.206,0.705-2.352,1.08-3.451c0.033-0.107,0.072-0.215,0.107-0.322
	c12.838,4.606,31.939,7.531,50.557,7.531C442.48,121.718,456.865,120.787,467.699,116.36z M89.018,266.304
	c-4.629,0-9.636,1.168-14.877,3.475c-5.156,2.27-10.192,3.418-14.973,3.418c-7.635,0-14.246-2.923-19.119-8.452
	c-5.058-5.739-7.846-14.019-7.846-23.315c0-18.705,11.089-31.768,26.965-31.768c4.776,0,9.816,1.148,14.973,3.418
	c5.241,2.305,10.248,3.473,14.877,3.473c8.371,0,19.907-3.815,27.342-21.997c8.659-21.187,5.962-63.214-2.177-85.94
	c11.13-3.832,28.655-6.414,44.983-6.414c12.568,0,23.227,1.525,30.016,4.301c6.648,2.719,10.82,6.063,12.381,9.936
	c1.406,3.47,0.906,7.983-1.484,13.412c-6.752,15.355-6.146,30.439,1.711,42.479c8.041,12.32,22.488,19.385,39.637,19.385
	c17.152,0,31.604-7.064,39.645-19.387c7.857-12.037,8.465-27.124,1.707-42.477c-2.385-5.429-2.889-9.942-1.484-13.412
	c1.566-3.873,5.732-7.217,12.387-9.936c6.785-2.775,17.441-4.301,30.01-4.301c16.33,0,33.857,2.582,44.984,6.414
	c-0.037,0.113-0.076,0.246-0.115,0.361c-0.457,1.288-0.896,2.627-1.318,4.03c-0.031,0.104-0.061,0.216-0.09,0.323
	c-0.422,1.431-0.828,2.912-1.211,4.445c-0.021,0.09-0.045,0.176-0.07,0.263c-0.375,1.531-0.729,3.112-1.066,4.726
	c-0.051,0.229-0.098,0.451-0.145,0.679c-0.32,1.571-0.619,3.178-0.9,4.813c-0.047,0.271-0.094,0.541-0.137,0.813
	c-0.277,1.646-0.529,3.315-0.76,5.011c-0.035,0.238-0.064,0.48-0.094,0.721c-0.234,1.76-0.449,3.535-0.631,5.332
	c-0.014,0.093-0.018,0.188-0.031,0.283c-0.178,1.801-0.338,3.617-0.469,5.441c-0.008,0.145-0.021,0.287-0.029,0.433
	c-0.129,1.797-0.223,3.596-0.295,5.392c-0.014,0.271-0.021,0.535-0.035,0.807c-0.063,1.748-0.098,3.492-0.111,5.229
	c-0.004,0.293-0.004,0.583-0.004,0.875c-0.004,1.747,0.018,3.483,0.07,5.202c0.006,0.226,0.016,0.45,0.023,0.675
	c0.061,1.789,0.146,3.566,0.264,5.308c0.006,0.045,0.01,0.09,0.016,0.135c0.123,1.733,0.281,3.435,0.469,5.106
	c0.021,0.173,0.039,0.351,0.055,0.523c0.188,1.608,0.414,3.18,0.662,4.716c0.041,0.253,0.08,0.505,0.123,0.755
	c0.256,1.494,0.541,2.945,0.859,4.354c0.055,0.24,0.111,0.479,0.166,0.719c0.332,1.408,0.691,2.777,1.088,4.083
	c0.051,0.167,0.105,0.325,0.158,0.49c0.426,1.358,0.879,2.67,1.383,3.898c7.43,18.185,18.967,21.999,27.336,21.997
	c4.635,0,9.641-1.168,14.877-3.473c5.16-2.27,10.197-3.418,14.977-3.418c15.877,0,26.965,13.063,26.965,31.77
	c0,18.703-11.088,31.766-26.965,31.766c-4.779,0-9.816-1.148-14.977-3.418c-5.24-2.307-10.242-3.475-14.877-3.475
	c-8.369,0-19.906,3.817-27.336,21.999c-0.504,1.229-0.957,2.54-1.383,3.897c-0.053,0.166-0.107,0.323-0.158,0.491
	c-0.396,1.306-0.756,2.675-1.088,4.085c-0.055,0.238-0.111,0.477-0.166,0.716c-0.318,1.409-0.604,2.862-0.859,4.356
	c-0.043,0.248-0.082,0.5-0.123,0.753c-0.248,1.538-0.475,3.107-0.662,4.719c-0.016,0.173-0.033,0.348-0.055,0.521
	c-0.184,1.671-0.346,3.373-0.469,5.105c-0.006,0.046-0.01,0.091-0.016,0.136c-0.117,1.744-0.203,3.518-0.264,5.307
	c-0.008,0.226-0.018,0.45-0.023,0.676c-0.053,1.719-0.074,3.455-0.07,5.201c0,0.293,0,0.583,0.004,0.876
	c0.014,1.736,0.049,3.482,0.111,5.231c0.014,0.268,0.021,0.536,0.035,0.804c0.072,1.799,0.166,3.598,0.295,5.391
	c0.008,0.146,0.021,0.291,0.029,0.436c0.131,1.822,0.291,3.639,0.469,5.441c0.014,0.094,0.018,0.188,0.031,0.281
	c0.182,1.796,0.396,3.572,0.631,5.334c0.029,0.24,0.059,0.48,0.094,0.718c0.23,1.696,0.482,3.368,0.76,5.015
	c0.043,0.27,0.09,0.54,0.137,0.808c0.281,1.636,0.58,3.245,0.9,4.819c0.047,0.225,0.094,0.447,0.141,0.672
	c0.342,1.614,0.695,3.198,1.074,4.729c0.021,0.088,0.045,0.171,0.066,0.258c0.383,1.537,0.789,3.023,1.211,4.457
	c0.029,0.104,0.059,0.213,0.09,0.317c0.422,1.403,0.861,2.742,1.318,4.033c0.039,0.112,0.072,0.237,0.111,0.348
	c-0.127,0.045-0.252,0.093-0.385,0.138c-0.271,0.092-0.555,0.183-0.832,0.27c-0.533,0.174-1.078,0.346-1.639,0.511
	c-0.316,0.095-0.637,0.19-0.965,0.282c-0.563,0.16-1.139,0.318-1.725,0.474c-0.324,0.085-0.645,0.173-0.977,0.258
	c-0.695,0.177-1.412,0.348-2.135,0.515c-0.232,0.056-0.455,0.113-0.695,0.166c-0.943,0.213-1.908,0.42-2.893,0.615
	c-0.342,0.07-0.695,0.135-1.041,0.203c-0.67,0.129-1.342,0.258-2.025,0.377c-0.426,0.078-0.861,0.15-1.291,0.226
	c-0.629,0.104-1.26,0.21-1.895,0.308c-0.453,0.072-0.91,0.143-1.367,0.21c-0.652,0.098-1.311,0.188-1.971,0.278
	c-0.441,0.06-0.881,0.122-1.328,0.18c-0.811,0.103-1.635,0.2-2.459,0.293c-0.295,0.032-0.584,0.072-0.879,0.103
	c-1.088,0.118-2.189,0.226-3.289,0.325c-0.42,0.037-0.838,0.067-1.256,0.103c-0.73,0.06-1.455,0.118-2.186,0.167
	c-0.465,0.033-0.93,0.063-1.395,0.091c-0.705,0.045-1.41,0.085-2.113,0.12c-0.457,0.022-0.918,0.045-1.375,0.064
	c-0.75,0.03-1.502,0.056-2.254,0.076c-0.4,0.012-0.797,0.027-1.197,0.034c-1.131,0.025-2.268,0.04-3.389,0.04c0,0-0.018,0-0.027,0
	c-12.568,0-23.225-1.528-30.01-4.301c-6.654-2.72-10.82-6.063-12.387-9.938c-1.404-3.468-0.9-7.981,1.484-13.413
	c6.758-15.353,6.15-30.437-1.707-42.474c-8.041-12.322-22.488-19.39-39.641-19.39h-0.004l0,0c-17.152,0-31.6,7.067-39.641,19.39
	c-7.857,12.037-8.463,27.121-1.707,42.474c2.385,5.432,2.891,9.945,1.484,13.413c-1.566,3.875-5.732,7.218-12.385,9.938
	c-4.242,1.734-9.996,2.98-16.781,3.67c-4.072,0.416-8.514,0.631-13.227,0.631c-1.164,0-2.338-0.015-3.514-0.043
	c-0.264-0.004-0.527-0.015-0.797-0.021c-0.9-0.025-1.801-0.056-2.707-0.093c-0.336-0.015-0.674-0.03-1.016-0.048
	c-0.855-0.043-1.715-0.09-2.572-0.145c-0.324-0.021-0.645-0.041-0.965-0.061c-0.951-0.067-1.904-0.141-2.854-0.223
	c-0.205-0.018-0.41-0.033-0.615-0.051c-2.347-0.207-4.673-0.459-6.948-0.755c-0.251-0.03-0.495-0.067-0.741-0.101
	c-0.871-0.115-1.741-0.237-2.597-0.365c-0.306-0.045-0.613-0.092-0.916-0.14c-0.816-0.128-1.618-0.261-2.416-0.396
	c-0.286-0.05-0.572-0.098-0.854-0.147c-0.887-0.157-1.763-0.32-2.619-0.49c-0.167-0.032-0.338-0.063-0.501-0.098
	c-1.049-0.21-2.078-0.428-3.081-0.655c-0.051-0.013-0.094-0.023-0.14-0.033c-0.919-0.21-1.814-0.428-2.689-0.652
	c-0.248-0.061-0.482-0.125-0.727-0.19c-0.674-0.178-1.34-0.358-1.983-0.543c-0.266-0.077-0.529-0.155-0.795-0.232
	c-0.617-0.183-1.216-0.37-1.805-0.563c-0.234-0.074-0.475-0.152-0.704-0.228c-0.149-0.05-0.281-0.103-0.427-0.152
	c8.135-22.728,10.832-64.745,2.173-85.93C108.925,270.121,97.389,266.304,89.018,266.304z M288.305,639.642
	c-10.338,4.225-17.123,10.199-20.178,17.762c-2.895,7.156-2.34,15.385,1.65,24.455c4.76,10.813,4.541,21.108-0.602,28.992
	c-5.369,8.227-15.482,12.947-27.746,12.947c-12.266,0-22.377-4.721-27.746-12.947c-5.146-7.887-5.359-18.182-0.605-28.992
	c3.99-9.072,4.551-17.299,1.656-24.457c-3.057-7.561-9.846-13.535-20.18-17.76c-10.83-4.428-25.223-5.358-35.389-5.358
	c-18.616,0-37.724,2.925-50.558,7.533c-6.739-19.528-9.143-57.778-2.104-74.996c4.822-11.804,10.406-13.171,14.187-13.171
	c2.65,0,5.731,0.766,9.159,2.272c6.975,3.067,13.935,4.621,20.695,4.621c23.854,0,41.168-19.333,41.168-45.968
	c0-26.642-17.314-45.977-41.168-45.977c-6.761,0-13.721,1.557-20.695,4.621c-3.428,1.509-6.509,2.271-9.159,2.271
	c-3.78,0.003-9.364-1.363-14.187-13.168c-7.041-17.218-4.639-55.468,2.104-74.996c0.142,0.051,0.294,0.098,0.436,0.148
	c0.35,0.125,0.713,0.244,1.07,0.365c0.573,0.192,1.153,0.383,1.747,0.57c0.393,0.12,0.784,0.242,1.182,0.359
	c0.614,0.186,1.237,0.363,1.869,0.539c0.389,0.109,0.776,0.22,1.174,0.324c0.764,0.203,1.545,0.4,2.339,0.596
	c0.277,0.068,0.551,0.141,0.832,0.208c1.05,0.247,2.121,0.487,3.214,0.721c0.414,0.085,0.84,0.167,1.26,0.253
	c0.717,0.145,1.434,0.29,2.162,0.425c0.496,0.093,0.991,0.181,1.49,0.271c0.684,0.12,1.366,0.238,2.062,0.35
	c0.517,0.086,1.032,0.171,1.558,0.251c0.713,0.11,1.434,0.215,2.155,0.317c0.505,0.07,1.004,0.143,1.512,0.211
	c0.892,0.119,1.792,0.229,2.691,0.334c0.42,0.049,0.829,0.101,1.248,0.146c1.131,0.125,2.274,0.242,3.422,0.348
	c0.509,0.047,1.017,0.084,1.528,0.127c0.768,0.064,1.535,0.127,2.309,0.183c0.555,0.04,1.113,0.077,1.672,0.11
	c0.744,0.047,1.486,0.09,2.229,0.127c0.564,0.027,1.123,0.059,1.686,0.08c0.781,0.033,1.563,0.059,2.344,0.08
	c0.518,0.018,1.029,0.035,1.539,0.045c1.086,0.025,2.166,0.035,3.244,0.041c0.193,0,0.391,0.004,0.58,0.004
	c6.355,0,14.359-0.362,22.113-1.716c4.652-0.813,9.219-1.979,13.281-3.64c10.334-4.227,17.123-10.201,20.18-17.765
	c2.895-7.155,2.334-15.384-1.656-24.454c-4.754-10.813-4.541-21.109,0.605-28.992c5.369-8.227,15.48-12.945,27.742-12.947
	c12.268,0.002,22.377,4.721,27.746,12.947c5.146,7.886,5.361,18.182,0.605,28.995c-3.99,9.069-4.549,17.298-1.656,24.456
	c3.057,7.559,9.846,13.535,20.18,17.76c10.836,4.428,25.223,5.355,35.389,5.355l0,0c0,0,0,0,0.006,0
	c1.301,0,2.604-0.018,3.908-0.045c0.393-0.01,0.785-0.024,1.184-0.035c0.916-0.024,1.834-0.055,2.752-0.094
	c0.451-0.018,0.9-0.041,1.35-0.063c0.887-0.046,1.775-0.096,2.658-0.153c0.426-0.027,0.854-0.056,1.281-0.085
	c0.971-0.068,1.936-0.145,2.9-0.23c0.32-0.027,0.645-0.053,0.969-0.08c1.301-0.117,2.596-0.248,3.881-0.393l0.012-0.002
	c1.254-0.141,2.502-0.296,3.734-0.463c0.346-0.045,0.684-0.096,1.029-0.143c0.896-0.125,1.787-0.256,2.676-0.394
	c0.393-0.063,0.785-0.125,1.178-0.19c0.842-0.137,1.674-0.279,2.502-0.428c0.371-0.064,0.746-0.133,1.117-0.199
	c0.904-0.171,1.801-0.348,2.686-0.528c0.26-0.056,0.52-0.105,0.777-0.157c1.146-0.243,2.277-0.496,3.379-0.759
	c0.115-0.024,0.223-0.056,0.334-0.083c0.963-0.232,1.91-0.473,2.836-0.721c0.326-0.087,0.641-0.177,0.957-0.265
	c0.713-0.198,1.408-0.396,2.096-0.603c0.346-0.104,0.688-0.208,1.029-0.315c0.643-0.202,1.275-0.407,1.898-0.618
	c0.32-0.107,0.645-0.215,0.961-0.328c0.154-0.053,0.314-0.102,0.465-0.157c0.037,0.12,0.08,0.243,0.123,0.365
	c0.363,1.073,0.713,2.189,1.051,3.365c0.051,0.165,0.094,0.341,0.141,0.508c0.32,1.146,0.627,2.332,0.922,3.558
	c0.037,0.152,0.076,0.298,0.111,0.448c0.299,1.263,0.576,2.577,0.846,3.913c0.059,0.295,0.117,0.588,0.178,0.889
	c0.248,1.285,0.482,2.606,0.699,3.945c0.061,0.362,0.121,0.728,0.18,1.098c0.209,1.336,0.406,2.692,0.59,4.068
	c0.047,0.363,0.09,0.729,0.137,1.094c0.18,1.418,0.346,2.848,0.49,4.291c0.025,0.277,0.047,0.561,0.076,0.84
	c0.129,1.336,0.238,2.678,0.338,4.025c0.021,0.301,0.047,0.596,0.068,0.896c0.098,1.456,0.174,2.914,0.24,4.373
	c0.016,0.378,0.033,0.756,0.051,1.131c0.049,1.437,0.084,2.867,0.102,4.291c0.004,0.373,0.008,0.743,0.008,1.113
	c0.01,1.441,0,2.873-0.029,4.289c-0.008,0.305-0.021,0.607-0.031,0.912c-0.041,1.479-0.098,2.945-0.188,4.381
	c-0.006,0.139-0.016,0.273-0.023,0.411c-0.094,1.403-0.205,2.774-0.342,4.123c-0.021,0.2-0.039,0.405-0.061,0.605
	c-0.145,1.368-0.32,2.694-0.512,3.988c-0.033,0.24-0.072,0.479-0.105,0.716c-0.205,1.271-0.432,2.499-0.684,3.686
	c-0.043,0.209-0.09,0.417-0.139,0.625c-0.268,1.193-0.557,2.344-0.877,3.43c-0.039,0.139-0.082,0.266-0.125,0.4
	c-0.346,1.131-0.717,2.217-1.123,3.215c-0.217,0.531-0.439,1.016-0.656,1.504c-4.674,10.396-9.926,11.664-13.539,11.664
	c-1.787,0-3.785-0.375-5.936-1.063c-1.037-0.334-2.104-0.717-3.219-1.207c-3.486-1.533-6.969-2.689-10.426-3.459
	c-3.457-0.773-6.889-1.164-10.27-1.164c-23.854,0-41.168,19.335-41.168,45.973c0,1.625,0.068,3.229,0.197,4.81
	c0.066,0.811,0.191,1.591,0.289,2.384c0.094,0.741,0.158,1.489,0.279,2.217c0.17,1.031,0.4,2.021,0.625,3.021
	c0.107,0.473,0.186,0.958,0.303,1.423c0.254,0.984,0.561,1.93,0.863,2.878c0.15,0.468,0.273,0.95,0.436,1.411
	c0.291,0.828,0.637,1.616,0.965,2.416c0.234,0.561,0.443,1.135,0.695,1.68c0.291,0.635,0.623,1.233,0.943,1.844
	c0.346,0.678,0.678,1.363,1.059,2.017c0.264,0.45,0.563,0.87,0.84,1.312c0.482,0.76,0.957,1.528,1.482,2.254
	c0.252,0.346,0.533,0.663,0.793,1c0.533,0.688,1.051,1.395,1.623,2.045c0.055,0.063,0.117,0.117,0.178,0.18
	c0.424,0.476,0.883,0.903,1.328,1.356c0.516,0.525,1.016,1.075,1.557,1.568c0.939,0.858,1.926,1.659,2.938,2.419
	c0.068,0.051,0.127,0.111,0.195,0.16c5.484,4.047,12.014,6.626,19.262,7.361c0.227,0.022,0.461,0.016,0.688,0.035
	c1.195,0.1,2.402,0.186,3.635,0.186c6.762,0,13.723-1.557,20.691-4.621c3.428-1.51,6.51-2.272,9.16-2.272
	c0.943,0,2.002,0.085,3.133,0.396c3.227,0.893,7.047,3.663,10.523,11.555c0.18,0.402,0.359,0.79,0.533,1.218
	c0.406,0.995,0.773,2.079,1.119,3.21c0.043,0.138,0.09,0.271,0.129,0.41c0.32,1.084,0.609,2.232,0.873,3.42
	c0.049,0.213,0.094,0.421,0.143,0.636c0.252,1.184,0.479,2.415,0.684,3.683c0.033,0.236,0.066,0.471,0.105,0.706
	c0.191,1.301,0.367,2.635,0.512,4.011c0.021,0.183,0.039,0.373,0.057,0.558c0.141,1.384,0.254,2.795,0.348,4.233
	c0.006,0.103,0.016,0.203,0.021,0.305c0.09,1.467,0.15,2.968,0.193,4.481c0.004,0.266,0.018,0.53,0.021,0.798
	c0.033,1.449,0.043,2.915,0.033,4.392c0,0.333-0.004,0.665-0.008,0.998c-0.018,1.458-0.053,2.927-0.107,4.398
	c-0.012,0.333-0.029,0.665-0.043,0.999c-0.063,1.498-0.145,2.999-0.246,4.498c-0.018,0.248-0.039,0.495-0.057,0.745
	c-0.102,1.409-0.223,2.817-0.354,4.216c-0.025,0.242-0.043,0.488-0.068,0.73c-0.145,1.464-0.314,2.912-0.496,4.352
	c-0.041,0.348-0.084,0.695-0.131,1.041c-0.184,1.386-0.381,2.752-0.594,4.1c-0.055,0.361-0.115,0.719-0.176,1.076
	c-0.217,1.339-0.451,2.654-0.699,3.943c-0.061,0.313-0.123,0.617-0.188,0.926c-0.266,1.316-0.537,2.611-0.832,3.857
	c-0.043,0.188-0.09,0.365-0.133,0.551c-0.281,1.161-0.57,2.284-0.875,3.373c-0.064,0.22-0.119,0.447-0.184,0.665
	c-0.324,1.126-0.66,2.194-1.012,3.226c-0.051,0.154-0.102,0.307-0.154,0.457c-12.832-4.605-31.939-7.53-50.553-7.53
	C313.523,634.283,299.137,635.214,288.305,639.642z M696.832,546.339c-4.781,0-9.816-1.15-14.979-3.42
	c-5.24-2.305-10.242-3.473-14.877-3.473c-8.369,0-19.906,3.818-27.336,22c-8.66,21.189-5.963,63.215,2.176,85.939
	c-11.125,3.833-28.654,6.415-44.982,6.415c-12.57,0-23.227-1.528-30.018-4.301c-6.65-2.72-10.818-6.063-12.381-9.938
	c-1.404-3.467-0.904-7.98,1.486-13.412c6.75-15.352,6.145-30.437-1.713-42.477c-8.041-12.318-22.486-19.387-39.641-19.387
	c-17.152,0-31.6,7.068-39.641,19.387c-7.855,12.04-8.463,27.125-1.707,42.477c2.387,5.432,2.891,9.945,1.486,13.412
	c-1.566,3.876-5.732,7.219-12.387,9.938c-6.785,2.772-17.445,4.301-30.016,4.301c-16.33,0-33.854-2.582-44.98-6.415
	c0.029-0.082,0.057-0.176,0.082-0.258c0.477-1.341,0.934-2.734,1.369-4.198c0.01-0.024,0.018-0.056,0.027-0.083
	c0.9-3.029,1.711-6.31,2.428-9.762c0.029-0.141,0.059-0.281,0.09-0.424c0.336-1.643,0.652-3.324,0.943-5.038
	c0.033-0.188,0.063-0.373,0.094-0.561c0.289-1.724,0.559-3.476,0.797-5.252c0.021-0.14,0.039-0.282,0.057-0.423
	c0.498-3.756,0.896-7.605,1.17-11.484c0.002-0.031,0.002-0.063,0.008-0.092c0.133-1.885,0.23-3.773,0.307-5.66
	c0.008-0.174,0.014-0.348,0.021-0.522c0.068-1.829,0.107-3.65,0.119-5.464c0-0.211,0-0.418,0-0.629
	c0.004-1.818-0.018-3.627-0.068-5.416c-0.004-0.147-0.012-0.293-0.016-0.44c-0.125-3.713-0.375-7.341-0.77-10.821
	c-0.014-0.115-0.025-0.23-0.037-0.345c-0.193-1.656-0.424-3.268-0.68-4.844c-0.033-0.21-0.068-0.421-0.102-0.628
	c-0.26-1.529-0.551-3.013-0.875-4.449c-0.047-0.213-0.098-0.42-0.146-0.633c-0.336-1.434-0.703-2.822-1.104-4.148
	c-0.049-0.146-0.094-0.287-0.143-0.436c-0.432-1.37-0.887-2.691-1.391-3.93c-5.113-12.502-12.162-18.212-18.791-20.559
	c-0.021-0.008-0.043-0.013-0.061-0.02c-0.58-0.205-1.162-0.386-1.732-0.539c-2.377-0.643-4.666-0.883-6.762-0.883
	c-4.629,0-9.635,1.168-14.877,3.473c-5.156,2.27-10.191,3.42-14.973,3.42c-0.09,0-0.17-0.01-0.256-0.012
	c-0.895-0.008-1.779-0.045-2.646-0.139c-0.055-0.004-0.111-0.017-0.166-0.021c-10.396-1.156-18.369-8.174-21.898-18.699
	c-0.223-0.666-0.404-1.357-0.588-2.045c-0.086-0.311-0.188-0.605-0.266-0.92c-0.486-2.008-0.814-4.111-0.99-6.281
	c-0.098-1.19-0.154-2.404-0.154-3.646c0-18.708,11.094-31.771,26.969-31.771c2.387,0,4.84,0.288,7.342,0.858
	s5.051,1.426,7.627,2.559c1.434,0.631,2.842,1.156,4.238,1.617c3.709,1.223,7.277,1.859,10.645,1.859c8.369,0,19.906-3.818,27.34-22
	c0.504-1.234,0.959-2.557,1.391-3.926c0.049-0.15,0.098-0.295,0.143-0.447c0.4-1.319,0.762-2.7,1.1-4.127
	c0.053-0.223,0.104-0.439,0.154-0.665c0.32-1.427,0.611-2.897,0.865-4.411c0.039-0.223,0.078-0.45,0.111-0.678
	c0.258-1.562,0.482-3.158,0.676-4.797c0.012-0.135,0.023-0.271,0.041-0.407c0.391-3.45,0.641-7.051,0.76-10.733
	c0.01-0.17,0.018-0.338,0.021-0.508c0.051-1.771,0.072-3.561,0.068-5.359c0-0.23,0-0.461,0-0.69
	c-0.012-1.794-0.051-3.595-0.119-5.401c-0.004-0.201-0.018-0.4-0.025-0.604c-0.072-1.859-0.17-3.721-0.299-5.576
	c-0.01-0.07-0.012-0.141-0.016-0.211c-0.143-1.941-0.305-3.873-0.502-5.789c-0.004-0.008-0.004-0.018-0.004-0.018
	c-0.188-1.861-0.41-3.698-0.652-5.518c-0.021-0.182-0.047-0.365-0.068-0.547c-0.238-1.736-0.5-3.451-0.781-5.137
	c-0.039-0.232-0.076-0.463-0.115-0.693c-0.285-1.669-0.592-3.311-0.922-4.911c-0.039-0.195-0.08-0.386-0.119-0.578
	c-0.346-1.644-0.703-3.255-1.092-4.809c-0.014-0.063-0.031-0.12-0.047-0.183c-0.389-1.564-0.803-3.075-1.23-4.533
	c-0.029-0.096-0.055-0.19-0.08-0.283c-0.424-1.408-0.863-2.75-1.318-4.041c-0.043-0.112-0.078-0.24-0.115-0.35
	c0.135-0.048,0.264-0.098,0.404-0.143c0.248-0.088,0.512-0.168,0.768-0.253c0.564-0.183,1.141-0.362,1.734-0.538
	c0.281-0.085,0.566-0.168,0.857-0.252c0.619-0.178,1.258-0.352,1.908-0.523c0.26-0.068,0.52-0.141,0.785-0.205
	c0.84-0.215,1.699-0.423,2.576-0.623c0.088-0.02,0.164-0.043,0.248-0.061c0.994-0.225,2.016-0.442,3.053-0.65
	c0.188-0.037,0.379-0.072,0.563-0.109c0.842-0.166,1.688-0.323,2.549-0.479c0.303-0.053,0.613-0.105,0.916-0.158
	c0.773-0.132,1.551-0.26,2.34-0.379c0.33-0.053,0.652-0.104,0.986-0.153c0.828-0.122,1.664-0.24,2.506-0.353
	c0.271-0.037,0.545-0.075,0.818-0.11c2.266-0.292,4.576-0.546,6.91-0.753c0.23-0.02,0.465-0.037,0.699-0.058
	c0.918-0.075,1.84-0.147,2.762-0.213c0.342-0.022,0.688-0.045,1.029-0.065c0.84-0.055,1.68-0.102,2.521-0.143
	c0.346-0.018,0.697-0.031,1.041-0.047c0.893-0.04,1.781-0.07,2.668-0.093c0.277-0.007,0.559-0.018,0.836-0.022
	c1.17-0.027,2.34-0.043,3.5-0.043c12.57,0,23.23,1.529,30.018,4.301c6.648,2.723,10.818,6.065,12.381,9.938
	c0.525,1.301,0.785,2.747,0.775,4.336c-0.012,2.645-0.768,5.682-2.262,9.074c-2.467,5.606-3.939,11.174-4.447,16.573
	c-0.887,9.387,1.17,18.26,6.154,25.902c8.041,12.322,22.492,19.388,39.646,19.391c17.152,0,31.6-7.068,39.639-19.388
	c4.418-6.772,6.543-14.509,6.355-22.713c-0.145-6.382-1.689-13.048-4.646-19.766c-2.387-5.429-2.891-9.942-1.486-13.413
	c0.004-0.012,0.014-0.022,0.018-0.032c1.58-3.86,5.736-7.19,12.367-9.903c6.787-2.771,17.443-4.301,30.01-4.301
	c1.186,0,2.377,0.016,3.566,0.043c0.191,0.005,0.385,0.013,0.578,0.018c0.977,0.025,1.957,0.058,2.939,0.1
	c0.285,0.014,0.568,0.027,0.854,0.041c0.922,0.045,1.844,0.098,2.766,0.154c0.268,0.018,0.533,0.035,0.803,0.053
	c1.027,0.07,2.053,0.15,3.072,0.238c0.141,0.01,0.277,0.021,0.418,0.032c2.379,0.21,4.73,0.468,7.033,0.766
	c0.201,0.024,0.402,0.055,0.604,0.079c0.922,0.123,1.838,0.254,2.744,0.389c0.271,0.04,0.541,0.082,0.811,0.125
	c0.854,0.133,1.699,0.27,2.533,0.415c0.254,0.043,0.506,0.085,0.756,0.128c0.936,0.168,1.861,0.34,2.77,0.521
	c0.121,0.022,0.24,0.045,0.359,0.069c1.068,0.213,2.113,0.436,3.133,0.666v0.002c0.969,0.219,1.908,0.448,2.826,0.682
	c0.227,0.057,0.443,0.117,0.66,0.175c0.701,0.183,1.385,0.37,2.049,0.563c0.252,0.073,0.504,0.146,0.752,0.218
	c0.637,0.19,1.25,0.383,1.852,0.578c0.227,0.072,0.453,0.143,0.67,0.218c0.15,0.05,0.285,0.104,0.436,0.155
	c-8.135,22.73-10.832,64.745-2.172,85.93c7.43,18.182,18.967,21.997,27.336,21.997c4.635,0,9.637-1.169,14.877-3.474
	c5.162-2.269,10.197-3.42,14.979-3.42c15.875,0,26.965,13.065,26.965,31.773C723.797,533.276,712.707,546.339,696.832,546.339z"/>
</svg>
