<?xml version="1.0" encoding="utf-8"?>
<!-- Generator: Adobe Illustrator 15.1.0, SVG Export Plug-In . SVG Version: 6.00 Build 0)  -->
<!DOCTYPE svg PUBLIC "-//W3C//DTD SVG 1.1//EN" "http://www.w3.org/Graphics/SVG/1.1/DTD/svg11.dtd">
<svg version="1.1" id="puzzle" xmlns="http://www.w3.org/2000/svg" xmlns:xlink="http://www.w3.org/1999/xlink" x="0px" y="0px"
	 width="756px" height="756px" viewBox="0 0 756 756" enable-background="new 0 0 756 756" xml:space="preserve">
<path d="M663.518,84.364c15.464,29.39,23.119,108.311,8.202,144.796c-10.465,25.599-27.788,36.262-54.559,24.482
	c-47.272-20.793-86.368,9.206-86.368,57.998c0,48.791,39.1,78.79,86.374,57.995c26.77-11.777,44.093-1.116,54.553,24.482
	c14.917,36.487,7.266,115.407-8.202,144.796c-29.391-15.464-108.311-23.116-144.798-8.202
	c-25.599,10.467-36.259,27.788-24.482,54.558c20.795,47.274-9.206,86.368-57.996,86.368c-48.791,0-78.791-39.096-57.994-86.37
	c11.774-26.768,1.113-44.093-24.482-54.556c-36.49-14.914-115.409-7.264-144.799,8.202c15.468-29.391,23.119-108.309,8.202-144.799
	c-10.46-25.598-27.783-36.257-54.554-24.481c-47.273,20.797-86.373-9.206-86.373-57.996c0-48.789,39.096-78.792,86.371-57.995
	c26.768,11.775,44.09,1.116,54.556-24.482c14.917-36.489,7.265-115.406-8.202-144.798L663.518,84.364z"/>
</svg>
