<?xml version="1.0" encoding="utf-8"?>
<!-- Generator: Adobe Illustrator 15.1.0, SVG Export Plug-In . SVG Version: 6.00 Build 0)  -->
<!DOCTYPE svg PUBLIC "-//W3C//DTD SVG 1.1//EN" "http://www.w3.org/Graphics/SVG/1.1/DTD/svg11.dtd">
<svg version="1.1" id="puzzle" xmlns="http://www.w3.org/2000/svg" xmlns:xlink="http://www.w3.org/1999/xlink" x="0px" y="0px"
	 width="756px" height="756px" viewBox="0 0 756 756" enable-background="new 0 0 756 756" xml:space="preserve">
<path d="M651.144,97.204H104.856c-4.224,0-7.648,3.424-7.648,7.648v546.295c0,4.223,3.425,7.648,7.648,7.648h546.287
	c4.225,0,7.648-3.426,7.648-7.648V104.853C658.792,100.628,655.368,97.204,651.144,97.204z M643.495,366.82
	c-23.5-7.101-62.184-9.042-82.256-0.833c-10.476,4.281-17.364,10.355-20.479,18.059c-2.95,7.299-2.392,15.67,1.66,24.88
	c4.68,10.638,4.48,20.751-0.56,28.478c-5.267,8.07-15.216,12.699-27.291,12.699c-12.073,0-22.02-4.629-27.286-12.699
	c-5.042-7.725-5.239-17.837-0.56-28.475c4.05-9.211,4.608-17.582,1.66-24.88c-3.114-7.701-10.004-13.78-20.479-18.062
	c-18.741-7.661-53.703-6.478-77.385-0.514c5.969-23.68,7.15-58.641-0.51-77.383c-4.282-10.475-10.358-17.365-18.063-20.479
	c-7.298-2.952-15.669-2.392-24.879,1.659c-10.643,4.679-20.752,4.481-28.476-0.558c-8.07-5.267-12.699-15.215-12.699-27.291
	c0-12.075,4.629-22.022,12.699-27.289c7.724-5.039,17.836-5.239,28.473-0.561c9.212,4.053,17.584,4.611,24.88,1.661
	c7.705-3.112,13.782-10.003,18.064-20.479c8.203-20.073,6.266-58.756-0.836-82.257h254.321V366.82z M373.049,112.499
	c7.23,18.723,10.036,58.771,2.802,76.467c-2.663,6.514-5.904,10.579-9.636,12.088c-3.334,1.346-7.702,0.846-12.99-1.481
	c-15.301-6.73-30.971-6.093-42.992,1.751c-12.478,8.145-19.636,22.761-19.636,40.1c0,17.341,7.158,31.957,19.637,40.098
	c12.017,7.844,27.69,8.487,42.993,1.752c5.291-2.326,9.656-2.827,12.989-1.479c3.733,1.509,6.975,5.574,9.633,12.084
	c6.944,16.988,4.64,54.556-1.945,74.104c-22.958-8.026-64.677-10.634-85.808-1.996c-10.476,4.28-17.363,10.357-20.479,18.059
	c-2.948,7.298-2.392,15.67,1.66,24.882c4.68,10.638,4.482,20.751-0.56,28.478c-5.267,8.068-15.213,12.697-27.286,12.697
	c-12.077,0-22.024-4.629-27.291-12.7c-5.04-7.724-5.239-17.837-0.56-28.475c4.051-9.212,4.61-17.584,1.66-24.882
	c-3.115-7.701-10.004-13.778-20.479-18.059c-20.076-8.209-58.756-6.266-82.256,0.835V112.499H373.049z M112.505,382.942
	c18.72-7.228,58.765-10.035,76.469-2.799c6.51,2.662,10.575,5.902,12.084,9.635c1.347,3.328,0.848,7.698-1.48,12.99
	c-6.73,15.299-6.093,30.972,1.752,42.99c8.146,12.48,22.761,19.639,40.102,19.639c17.339,0,31.954-7.158,40.097-19.636
	c7.845-12.021,8.482-27.694,1.752-42.993c-2.328-5.292-2.827-9.662-1.48-12.99c1.509-3.732,5.574-6.973,12.084-9.635
	c18.323-7.491,60.624-4.221,78.388,3.58c7.801,17.762,11.071,60.059,3.578,78.387c-2.658,6.512-5.899,10.575-9.633,12.084
	c-3.333,1.346-7.698,0.846-12.989-1.479c-15.307-6.732-30.977-6.096-42.993,1.751c-12.479,8.144-19.637,22.761-19.637,40.099
	c0,17.342,7.158,31.955,19.636,40.1c12.021,7.841,27.69,8.483,42.992,1.751c5.288-2.327,9.656-2.829,12.99-1.481
	c3.731,1.509,6.973,5.577,9.634,12.087c7.236,17.702,4.431,57.753-2.8,76.478H112.505V382.942z M389.174,643.499
	c7.102-23.504,9.041-62.191,0.834-82.268c-4.28-10.475-10.357-17.363-18.063-20.478c-7.296-2.95-15.668-2.392-24.88,1.661
	c-10.642,4.676-20.749,4.479-28.473-0.561c-8.07-5.267-12.699-15.212-12.699-27.289c0-12.076,4.629-22.021,12.699-27.289
	c7.724-5.039,17.833-5.241,28.476-0.561c9.21,4.051,17.581,4.611,24.879,1.662c7.704-3.115,13.78-10.006,18.063-20.48
	c8.634-21.127,6.028-62.848-1.997-85.805c19.549-6.586,57.117-8.891,74.104-1.947c6.51,2.662,10.575,5.902,12.084,9.635
	c1.347,3.328,0.848,7.699-1.48,12.99c-6.73,15.303-6.093,30.973,1.751,42.994c8.144,12.477,22.759,19.633,40.098,19.633
	c17.341,0,31.959-7.156,40.102-19.636c7.845-12.021,8.482-27.691,1.752-42.993c-2.328-5.292-2.828-9.662-1.48-12.99
	c1.509-3.73,5.574-6.973,12.084-9.633c17.701-7.24,57.749-4.431,76.469,2.797v260.557H389.174z"/>
</svg>
