<?xml version="1.0" encoding="utf-8"?>
<!-- Generator: Adobe Illustrator 15.1.0, SVG Export Plug-In . SVG Version: 6.00 Build 0)  -->
<!DOCTYPE svg PUBLIC "-//W3C//DTD SVG 1.1//EN" "http://www.w3.org/Graphics/SVG/1.1/DTD/svg11.dtd">
<svg version="1.1" id="puzzle" xmlns="http://www.w3.org/2000/svg" xmlns:xlink="http://www.w3.org/1999/xlink" x="0px" y="0px"
	 width="756px" height="756px" viewBox="0 0 756 756" enable-background="new 0 0 756 756" xml:space="preserve">
<path d="M643.495,366.822c-23.5-7.102-62.184-9.043-82.256-0.834c-10.476,4.281-17.364,10.355-20.479,18.059
	c-2.95,7.299-2.392,15.67,1.66,24.881c4.68,10.639,4.48,20.75-0.56,28.477c-5.267,8.072-15.216,12.699-27.291,12.699
	c-12.073,0-22.019-4.627-27.286-12.699c-5.042-7.723-5.239-17.836-0.559-28.475c4.049-9.209,4.607-17.582,1.659-24.879
	c-3.114-7.701-10.004-13.781-20.479-18.063c-18.741-7.66-53.703-6.477-77.385-0.512c5.969-23.682,7.15-58.643-0.51-77.385
	c-4.282-10.475-10.358-17.365-18.063-20.477c-7.298-2.953-15.669-2.393-24.879,1.658c-10.643,4.678-20.755,4.48-28.476-0.559
	c-8.07-5.266-12.699-15.215-12.699-27.291c0-12.074,4.629-22.021,12.699-27.289c7.724-5.039,17.836-5.238,28.473-0.561
	c9.212,4.053,17.583,4.611,24.88,1.662c7.706-3.113,13.782-10.004,18.064-20.479c8.203-20.074,6.266-58.756-0.836-82.257h254.321
	V366.822z M373.049,112.5c7.23,18.722,10.036,58.771,2.802,76.468c-2.663,6.512-5.904,10.578-9.636,12.086
	c-3.334,1.346-7.702,0.846-12.99-1.48c-15.301-6.73-30.968-6.094-42.992,1.75c-12.478,8.145-19.636,22.762-19.636,40.1
	c0,17.342,7.158,31.955,19.637,40.1c12.017,7.844,27.689,8.486,42.993,1.75c5.291-2.326,9.654-2.826,12.989-1.479
	c3.733,1.51,6.975,5.574,9.633,12.084c6.944,16.988,4.64,54.557-1.945,74.104c-22.958-8.025-64.677-10.633-85.808-1.996
	c-10.476,4.281-17.363,10.357-20.479,18.059c-2.948,7.299-2.392,15.67,1.66,24.883c4.68,10.639,4.483,20.75-0.56,28.477
	c-5.267,8.068-15.213,12.697-27.286,12.697c-12.077,0-22.024-4.629-27.291-12.699c-5.04-7.725-5.239-17.836-0.56-28.475
	c4.051-9.213,4.61-17.584,1.66-24.883c-3.115-7.701-10.004-13.777-20.479-18.059c-20.076-8.209-58.756-6.266-82.256,0.836V112.5
	H373.049z M112.505,382.945c18.72-7.229,58.765-10.037,76.469-2.801c6.51,2.662,10.575,5.902,12.084,9.635
	c1.347,3.328,0.848,7.699-1.48,12.988c-6.73,15.301-6.093,30.975,1.752,42.994c8.146,12.479,22.761,19.637,40.102,19.637
	c17.339,0,31.954-7.158,40.097-19.635c7.845-12.021,8.482-27.695,1.752-42.996c-2.328-5.289-2.827-9.66-1.48-12.988
	c1.509-3.732,5.574-6.973,12.084-9.635c18.323-7.49,60.624-4.221,78.388,3.58c7.801,17.762,11.071,60.061,3.578,78.387
	c-2.658,6.512-5.899,10.576-9.633,12.084c-3.335,1.346-7.698,0.846-12.989-1.479c-15.309-6.732-30.977-6.094-42.993,1.752
	c-12.479,8.143-19.637,22.76-19.637,40.098c0,17.342,7.158,31.955,19.636,40.1c12.021,7.842,27.69,8.484,42.992,1.752
	c5.288-2.328,9.656-2.83,12.99-1.482c3.731,1.51,6.973,5.578,9.634,12.086c7.236,17.703,4.431,57.754-2.8,76.479H112.505V382.945z
	 M389.174,643.5c7.102-23.504,9.041-62.191,0.834-82.266c-4.28-10.477-10.356-17.365-18.063-20.479
	c-7.297-2.951-15.668-2.393-24.88,1.66c-10.642,4.676-20.752,4.479-28.473-0.561c-8.07-5.266-12.699-15.211-12.699-27.289
	c0-12.076,4.629-22.021,12.699-27.287c7.724-5.039,17.833-5.242,28.476-0.561c9.21,4.051,17.581,4.609,24.879,1.658
	c7.704-3.113,13.78-10.004,18.063-20.479c8.634-21.127,6.03-62.848-1.997-85.805c19.547-6.586,57.117-8.889,74.104-1.947
	c6.51,2.662,10.575,5.902,12.084,9.635c1.347,3.328,0.848,7.699-1.48,12.99c-6.73,15.303-6.093,30.973,1.751,42.994
	c8.144,12.479,22.759,19.633,40.098,19.633c17.341,0,31.959-7.154,40.102-19.635c7.845-12.021,8.482-27.691,1.752-42.994
	c-2.328-5.291-2.828-9.662-1.48-12.99c1.509-3.73,5.574-6.973,12.084-9.633c17.701-7.24,57.749-4.43,76.469,2.799V643.5H389.174z"/>
</svg>
