<?xml version="1.0" encoding="UTF-8" standalone="no"?>
<!DOCTYPE svg PUBLIC "-//W3C//DTD SVG 1.1//EN" "http://www.w3.org/Graphics/SVG/1.1/DTD/svg11.dtd">
<svg width="612px" height="792px" version="1.1" xmlns="http://www.w3.org/2000/svg" xmlns:xlink="http://www.w3.org/1999/xlink" xml:space="preserve" xmlns:serif="http://www.serif.com/" style="fill-rule:evenodd;clip-rule:evenodd;stroke-linejoin:round;stroke-miterlimit:10;">
    <g transform="matrix(0.24,0,0,0.24,0,0)">
        <g id="PolpoDesign_Puzzle_25_4x4_single-line" transform="matrix(4.16667,0,0,4.16667,0,0)">
            <path d="M449.998,684C454.897,674.689 457.322,649.685 452.598,638.124C449.282,630.015 443.794,626.638 435.314,630.368C420.338,636.956 407.953,627.452 407.953,611.997C407.953,596.539 420.34,587.035 435.315,593.623C443.795,597.353 449.284,593.977 452.598,585.867C457.323,574.308 454.899,549.306 449.998,539.996C445.098,530.685 442.675,505.685 447.399,494.125C450.713,486.017 456.201,482.639 464.681,486.369C479.658,492.958 492.044,483.453 492.044,467.998C492.044,452.541 479.657,443.036 464.681,449.625C456.201,453.355 450.713,449.978 447.399,441.869C442.674,430.31 445.097,405.308 449.998,395.998C454.898,386.687 457.322,361.687 452.598,350.127C449.284,342.018 443.795,338.641 435.315,342.371C420.339,348.959 407.953,339.455 407.953,324C407.953,308.542 420.339,299.038 435.314,305.626C443.794,309.356 449.282,305.98 452.598,297.87C457.323,286.311 454.898,261.309 449.998,251.999C454.898,242.688 457.322,217.688 452.598,206.128C449.284,198.019 443.795,194.643 435.315,198.372C420.339,204.96 407.953,195.457 407.953,180C407.953,164.544 420.339,155.04 435.314,161.628C443.794,165.358 449.282,161.982 452.598,153.872C457.323,142.312 454.898,117.311 449.998,108.001" style="fill:none;fill-rule:nonzero;stroke:black;stroke-width:1px;"/>
            <path d="M306,108C310.899,117.311 313.324,142.312 308.599,153.871C305.284,161.98 299.795,165.357 291.316,161.627C276.339,155.039 263.955,164.543 263.955,180C263.955,195.456 276.341,204.96 291.317,198.372C299.797,194.642 305.285,198.018 308.599,206.128C313.325,217.688 310.901,242.689 306,251.999C310.899,261.31 313.324,286.311 308.599,297.87C305.284,305.979 299.795,309.356 291.316,305.626C276.339,299.038 263.955,308.542 263.955,323.998C263.955,339.455 276.341,348.959 291.317,342.371C299.797,338.641 305.285,342.017 308.599,350.127C313.324,361.687 310.9,386.688 306,395.998C310.9,405.309 313.324,430.311 308.599,441.869C305.285,449.977 299.797,453.355 291.317,449.625C276.34,443.036 263.955,452.541 263.955,467.998C263.955,483.453 276.341,492.958 291.317,486.369C299.797,482.639 305.285,486.016 308.599,494.125C313.324,505.686 310.9,530.686 306,539.996C301.1,549.307 298.676,574.309 303.401,585.867C306.714,593.976 312.203,597.353 320.683,593.623C335.659,587.035 348.045,596.539 348.045,611.997C348.045,627.452 335.659,636.956 320.684,630.368C312.204,626.638 306.716,630.014 303.401,638.124C298.675,649.685 301.1,674.689 306,684" style="fill:none;fill-rule:nonzero;stroke:black;stroke-width:1px;"/>
            <path d="M162.001,684C166.9,674.689 169.325,649.684 164.6,638.124C161.286,630.015 155.797,626.638 147.317,630.368C132.34,636.956 119.956,627.452 119.956,611.996C119.956,596.539 132.343,587.035 147.318,593.623C155.798,597.353 161.286,593.977 164.6,585.867C169.326,574.307 166.903,549.306 162.001,539.996C157.101,530.685 154.678,505.685 159.402,494.125C162.716,486.017 168.205,482.639 176.684,486.369C191.661,492.958 204.046,483.453 204.046,467.998C204.046,452.541 191.66,443.036 176.684,449.625C168.205,453.355 162.716,449.978 159.402,441.869C154.677,430.31 157.1,405.308 162.001,395.998C157.101,386.687 154.678,361.686 159.402,350.127C162.716,342.018 168.205,338.641 176.684,342.371C191.661,348.959 204.046,339.455 204.046,323.998C204.046,308.542 191.661,299.038 176.685,305.626C168.205,309.356 162.717,305.98 159.402,297.87C154.677,286.31 157.101,261.309 162.001,251.999C166.902,242.688 169.325,217.687 164.6,206.128C161.286,198.019 155.798,194.642 147.318,198.372C132.342,204.96 119.956,195.456 119.956,180C119.956,164.543 132.341,155.039 147.317,161.627C155.797,165.357 161.286,161.981 164.6,153.871C169.326,142.311 166.901,117.31 162.001,108" style="fill:none;fill-rule:nonzero;stroke:black;stroke-width:1px;"/>
            <path d="M18,108L18,684L594,684" style="fill:none;stroke:black;stroke-width:1px;"/>
            <path d="M593.997,539.996C584.686,535.098 559.684,532.673 548.126,537.397C540.017,540.713 536.64,546.202 540.37,554.682C546.958,569.658 537.454,582.041 521.996,582.041C506.541,582.041 497.037,569.655 503.625,554.679C507.355,546.199 503.979,540.711 495.869,537.397C484.308,532.672 459.308,535.095 449.998,539.996C440.687,535.096 415.685,532.673 404.127,537.397C396.019,540.711 392.641,546.199 396.371,554.679C402.96,569.656 393.455,582.041 377.998,582.041C362.543,582.041 353.039,569.655 359.627,554.679C363.357,546.199 359.981,540.711 351.871,537.397C340.31,532.672 315.31,535.095 306,539.996C296.689,535.098 271.688,532.673 260.129,537.397C252.02,540.713 248.643,546.202 252.373,554.682C258.961,569.658 249.457,582.041 234,582.041C218.544,582.041 209.04,569.656 215.628,554.68C219.358,546.201 215.982,540.712 207.872,537.397C196.312,532.672 171.311,535.096 162.001,539.996C152.69,535.096 127.69,532.673 116.13,537.397C108.022,540.711 104.644,546.199 108.375,554.679C114.963,569.656 105.459,582.041 90.003,582.041C74.545,582.041 65.041,569.655 71.629,554.679C75.359,546.199 71.983,540.711 63.874,537.397C52.315,532.672 27.313,535.095 18.003,539.996" style="fill:none;fill-rule:nonzero;stroke:black;stroke-width:1px;"/>
            <path d="M18.003,395.998C27.314,400.898 52.316,403.321 63.874,398.597C71.982,395.283 75.359,389.795 71.629,381.315C65.041,366.338 74.545,353.953 90.003,353.953C105.459,353.953 114.963,366.339 108.375,381.315C104.644,389.795 108.021,395.283 116.13,398.597C127.691,403.322 152.691,400.899 162.001,395.998C171.312,400.897 196.314,403.321 207.872,398.597C215.981,395.282 219.358,389.793 215.628,381.314C209.04,366.337 218.544,353.953 234.002,353.953C249.457,353.953 258.961,366.339 252.373,381.315C248.643,389.795 252.019,395.283 260.129,398.597C271.69,403.322 296.69,400.899 306,395.998C315.311,391.099 340.311,388.674 351.871,393.399C359.98,396.715 363.357,402.203 359.627,410.683C353.039,425.66 362.543,438.043 377.998,438.043C393.455,438.043 402.96,425.656 396.371,410.681C392.641,402.201 396.018,396.712 404.127,393.399C415.686,388.673 440.688,391.097 449.998,395.998C459.309,391.1 484.309,388.674 495.869,393.399C503.978,396.715 507.355,402.203 503.625,410.683C497.037,425.66 506.541,438.043 521.996,438.043C537.454,438.043 546.958,425.656 540.37,410.681C536.64,402.201 540.016,396.712 548.126,393.399C559.685,388.673 584.687,391.097 593.997,395.998" style="fill:none;fill-rule:nonzero;stroke:black;stroke-width:1px;"/>
            <path d="M593.997,251.999C584.686,247.099 559.684,244.676 548.126,249.4C540.017,252.714 536.64,258.202 540.37,266.682C546.958,281.659 537.454,294.044 521.996,294.044C506.541,294.044 497.037,281.66 503.625,266.684C507.355,258.205 503.979,252.716 495.869,249.4C484.308,244.675 459.308,247.1 449.998,251.999C440.687,247.101 415.686,244.676 404.127,249.4C396.019,252.716 392.641,258.205 396.371,266.684C402.96,281.661 393.455,294.044 377.999,294.044C362.543,294.044 353.039,281.659 359.627,266.683C363.357,258.203 359.981,252.715 351.871,249.4C340.311,244.675 315.31,247.099 306,251.999C296.689,256.899 271.689,259.323 260.129,254.598C252.02,251.284 248.643,245.796 252.373,237.316C258.961,222.34 249.457,209.954 234.002,209.954C218.544,209.954 209.04,222.339 215.628,237.315C219.358,245.795 215.982,251.283 207.872,254.598C196.314,259.324 171.311,256.899 162.001,251.999C152.69,247.099 127.689,244.676 116.13,249.4C108.022,252.714 104.644,258.202 108.375,266.682C114.963,281.659 105.459,294.044 90.002,294.044C74.545,294.044 65.041,281.659 71.629,266.683C75.359,258.203 71.983,252.715 63.874,249.4C52.314,244.675 27.313,247.099 18.003,251.999" style="fill:none;fill-rule:nonzero;stroke:black;stroke-width:1px;"/>
            <path d="M594,684L594,108L18,108" style="fill:none;stroke:black;stroke-width:1px;"/>
        </g>
    </g>
</svg>
