<?xml version="1.0" encoding="UTF-8" standalone="no"?>
<!DOCTYPE svg PUBLIC "-//W3C//DTD SVG 1.1//EN" "http://www.w3.org/Graphics/SVG/1.1/DTD/svg11.dtd">
<svg width="756px" height="756px" version="1.1" xmlns="http://www.w3.org/2000/svg" xmlns:xlink="http://www.w3.org/1999/xlink" xml:space="preserve" xmlns:serif="http://www.serif.com/" style="fill-rule:evenodd;clip-rule:evenodd;stroke-linejoin:round;stroke-miterlimit:2;">
    <g transform="matrix(0.24,0,0,0.24,0,0)">
        <g id="PolpoDesign_Puzzle_27_2x2_single-line" transform="matrix(-15.5145,0,0,15.5145,216.841,-137.849)">
            <g transform="matrix(-0.0644558,0,0,0.0644558,13.9766,8.88514)">
                <path d="M2712.77,2712.77C2674.08,2639.22 2654.92,2441.67 2692.25,2350.34C2718.43,2286.26 2761.8,2259.58 2828.8,2289.05C2947.13,2341.12 3045,2266.02 3045,2143.89C3045,2021.77 2947.12,1946.68 2828.8,1998.73C2761.8,2028.19 2718.43,2001.51 2692.25,1937.42C2654.92,1846.12 2674.06,1648.55 2712.77,1575C2751.5,1501.45 2770.63,1303.9 2733.3,1212.58C2707.12,1148.49 2663.76,1121.81 2596.74,1151.27C2478.41,1203.33 2380.54,1128.24 2380.54,1006.11C2380.54,883.999 2478.41,808.893 2596.74,860.96C2663.76,890.438 2707.12,863.722 2733.3,799.647C2770.63,708.344 2751.5,510.782 2712.77,437.228" style="fill:none;stroke:black;stroke-width:4.17px;"/>
            </g>
            <g transform="matrix(-0.0644558,0,0,0.0644558,13.9766,8.88514)">
                <path d="M1575,437.228C1536.28,510.782 1517.13,708.359 1554.47,799.662C1580.65,863.737 1624.01,890.438 1691.02,860.96C1809.33,808.909 1907.21,883.999 1907.21,1006.13C1907.21,1128.24 1809.33,1203.35 1691.02,1151.27C1624.01,1121.81 1580.65,1148.51 1554.47,1212.58C1517.13,1303.91 1536.28,1501.45 1575,1575C1613.71,1648.55 1632.88,1846.12 1595.54,1937.42C1569.34,2001.51 1525.97,2028.19 1458.97,1998.73C1340.64,1946.68 1242.77,2021.77 1242.77,2143.89C1242.77,2266.02 1340.65,2341.12 1458.98,2289.05C1525.99,2259.58 1569.34,2286.26 1595.54,2350.34C1632.88,2441.67 1613.72,2639.22 1575,2712.77" style="fill:none;stroke:black;stroke-width:4.17px;"/>
            </g>
            <g transform="matrix(-0.0644558,0,0,0.0644558,13.9766,8.88514)">
                <path d="M437.228,437.228C475.921,510.782 495.081,708.328 457.753,799.662C431.565,863.737 388.202,890.422 321.195,860.945C202.866,808.878 105,883.984 105,1006.11C105,1128.23 202.881,1203.32 321.195,1151.27C388.202,1121.81 431.565,1148.49 457.753,1212.58C495.081,1303.88 475.936,1501.45 437.228,1575C398.504,1648.55 379.374,1846.1 416.702,1937.42C442.875,2001.51 486.238,2028.19 553.261,1998.73C671.59,1946.67 769.456,2021.76 769.456,2143.89C769.456,2266 671.59,2341.11 553.261,2289.04C486.238,2259.56 442.875,2286.28 416.702,2350.35C379.374,2441.66 398.504,2639.22 437.228,2712.77" style="fill:none;stroke:black;stroke-width:4.17px;"/>
            </g>
            <g transform="matrix(-0.0644558,0,0,0.0644558,13.9766,8.88514)">
                <path d="M437.228,2712.77C510.782,2674.06 708.344,2654.89 799.647,2692.23C863.737,2718.43 890.422,2761.8 860.96,2828.8C808.909,2947.13 883.999,3045 1006.11,3045C1128.24,3045 1203.35,2947.12 1151.28,2828.79C1121.81,2761.78 1148.49,2718.43 1212.57,2692.23C1303.9,2654.89 1501.45,2674.05 1575,2712.77C1648.55,2751.5 1846.13,2770.64 1937.43,2733.3C2001.51,2707.12 2028.21,2663.76 1998.73,2596.76C1946.68,2478.44 2021.77,2380.56 2143.9,2380.56C2266.02,2380.56 2341.12,2478.44 2289.04,2596.76C2259.58,2663.76 2286.28,2707.12 2350.35,2733.3C2441.69,2770.64 2639.22,2751.5 2712.77,2712.77" style="fill:none;stroke:black;stroke-width:4.17px;"/>
            </g>
            <g transform="matrix(-0.0644558,0,0,0.0644558,13.9766,8.88514)">
                <path d="M437.228,1575C510.782,1613.72 708.328,1632.85 799.647,1595.53C863.737,1569.35 890.422,1525.99 860.96,1458.97C808.893,1340.64 883.984,1242.77 1006.11,1242.77C1128.23,1242.77 1203.33,1340.64 1151.27,1458.97C1121.79,1525.99 1148.51,1569.35 1212.58,1595.53C1303.88,1632.85 1501.45,1613.72 1575,1575C1648.55,1536.31 1846.1,1517.15 1937.43,1554.47C2001.51,1580.66 2028.19,1624.03 1998.72,1691.03C1946.65,1809.36 2021.76,1907.23 2143.89,1907.23C2266,1907.23 2341.09,1809.35 2289.04,1691.03C2259.58,1624.03 2286.26,1580.66 2350.35,1554.47C2441.66,1517.15 2639.22,1536.29 2712.77,1575" style="fill:none;stroke:black;stroke-width:4.17px;"/>
            </g>
            <g transform="matrix(-0.0644558,0,0,0.0644558,13.9766,8.88514)">
                <path d="M2712.77,437.228C2639.22,475.936 2441.66,495.112 2350.35,457.769C2286.26,431.565 2259.58,388.202 2289.04,321.195C2341.09,202.866 2266,105 2143.89,105C2021.76,105 1946.65,202.881 1998.72,321.21C2028.19,388.217 2001.51,431.565 1937.43,457.769C1846.1,495.112 1648.55,475.952 1575,437.228C1501.45,398.504 1303.87,379.359 1212.57,416.702C1148.49,442.875 1121.79,486.238 1151.27,553.245C1203.32,671.559 1128.23,769.44 1006.1,769.44C883.984,769.44 808.878,671.559 860.96,553.245C890.422,486.238 863.722,442.875 799.647,416.702C708.313,379.359 510.782,398.504 437.228,437.228" style="fill:none;stroke:black;stroke-width:4.17px;"/>
            </g>
        </g>
    </g>
</svg>
