<?xml version="1.0" encoding="utf-8"?>
<!-- Generator: Adobe Illustrator 15.1.0, SVG Export Plug-In . SVG Version: 6.00 Build 0)  -->
<!DOCTYPE svg PUBLIC "-//W3C//DTD SVG 1.1//EN" "http://www.w3.org/Graphics/SVG/1.1/DTD/svg11.dtd">
<svg version="1.1" id="puzzle" xmlns="http://www.w3.org/2000/svg" xmlns:xlink="http://www.w3.org/1999/xlink" x="0px" y="0px"
	 width="756px" height="756px" viewBox="0 0 756 756" enable-background="new 0 0 756 756" xml:space="preserve">
<path d="M671.629,158.835c-29.389-15.464-108.311-23.116-144.795-8.202c-25.6,10.468-36.26,27.789-24.482,54.56
	c20.795,47.274-9.205,86.367-58,86.367c-48.787,0-78.787-39.097-57.99-86.37c11.775-26.773,1.113-44.094-24.484-54.557
	c-36.492-14.914-115.408-7.266-144.797,8.202c15.467,29.392,23.119,108.313,8.203,144.799
	c-10.461,25.599-27.785,36.261-54.555,24.482c-47.274-20.794-86.373,9.205-86.373,57.994c0,48.794,39.099,78.794,86.373,57.995
	c26.77-11.774,44.094-1.11,54.555,24.482c14.916,36.491,7.264,115.426-8.203,144.816h454.564L671.629,158.835z"/>
</svg>
