<?xml version="1.0" encoding="utf-8"?>
<!-- Generator: Adobe Illustrator 15.1.0, SVG Export Plug-In . SVG Version: 6.00 Build 0)  -->
<!DOCTYPE svg PUBLIC "-//W3C//DTD SVG 1.1//EN" "http://www.w3.org/Graphics/SVG/1.1/DTD/svg11.dtd">
<svg version="1.1" id="puzzle" xmlns="http://www.w3.org/2000/svg" xmlns:xlink="http://www.w3.org/1999/xlink" x="0px" y="0px"
	 width="756px" height="756px" viewBox="0 0 756 756" enable-background="new 0 0 756 756" xml:space="preserve">
<path d="M613.396,547.035c-29.389-15.464-108.313-23.119-144.799-8.203c-25.596,10.464-36.258,27.788-24.482,54.557
	c20.799,47.273-9.203,86.369-57.996,86.369c-48.789,0-78.789-39.098-57.994-86.374c11.777-26.768,1.115-44.091-24.482-54.552
	c-36.492-14.916-115.406-7.265-144.799,8.203c-15.467-29.391-23.118-108.305-8.201-144.799
	c10.461-25.598,27.785-36.258,54.555-24.482c47.273,20.797,86.371-9.207,86.371-57.99c0-48.795-39.098-78.795-86.371-58.001
	c-26.77,11.777-44.094,1.117-54.555-24.481c-14.917-36.485-7.266-115.408,8.201-144.798c29.393-15.464,108.307-23.117,144.799-8.203
	c25.598,10.466,36.26,27.788,24.482,54.557c-20.795,47.276,9.205,86.371,57.994,86.371c48.793,0,78.795-39.099,57.996-86.374
	c-11.775-26.77-1.113-44.09,24.482-54.554c36.486-14.914,115.41-7.266,144.799,8.203V547.035z"/>
</svg>
