<?xml version="1.0" encoding="utf-8"?>
<!-- Generator: Adobe Illustrator 15.1.0, SVG Export Plug-In . SVG Version: 6.00 Build 0)  -->
<!DOCTYPE svg PUBLIC "-//W3C//DTD SVG 1.1//EN" "http://www.w3.org/Graphics/SVG/1.1/DTD/svg11.dtd">
<svg version="1.1" id="puzzle" xmlns="http://www.w3.org/2000/svg" xmlns:xlink="http://www.w3.org/1999/xlink" x="0px" y="0px"
	 width="756px" height="756px" viewBox="0 0 756 756" enable-background="new 0 0 756 756" xml:space="preserve">
<path d="M605.275,613.404c15.467-29.392,23.119-108.325,8.203-144.812c-10.467-25.598-27.788-36.261-54.557-24.481
	c-47.275,20.793-86.37-9.206-86.37-57.996c0-48.793,39.099-78.792,86.372-57.994c26.771,11.774,44.094,1.111,54.555-24.482
	c14.916-36.49,7.266-115.412-8.203-144.799c-29.391-15.472-108.312-23.121-144.799-8.206c-25.597,10.463-36.258,27.788-24.48,54.556
	c20.794,47.273-9.207,86.375-58.001,86.375c-48.786,0-78.785-39.102-57.991-86.375c11.775-26.768,1.116-44.093-24.482-54.556
	c-36.491-14.915-115.406-7.266-144.798,8.206c-15.47,29.387-23.118,108.309-8.202,144.799
	c10.461,25.594,27.784,36.257,54.555,24.482c47.272-20.798,86.372,9.201,86.372,57.994c0,48.79-39.097,78.789-86.371,57.996
	c-26.768-11.779-44.091-1.116-54.556,24.481c-14.916,36.486-7.264,115.42,8.202,144.812H605.275z"/>
</svg>
