<?xml version="1.0" encoding="UTF-8" standalone="no"?>
<!DOCTYPE svg PUBLIC "-//W3C//DTD SVG 1.1//EN" "http://www.w3.org/Graphics/SVG/1.1/DTD/svg11.dtd">
<svg width="612px" height="792px" version="1.1" xmlns="http://www.w3.org/2000/svg" xmlns:xlink="http://www.w3.org/1999/xlink" xml:space="preserve" xmlns:serif="http://www.serif.com/" style="fill-rule:evenodd;clip-rule:evenodd;stroke-linejoin:round;stroke-miterlimit:2;">
    <g transform="matrix(0.24,0,0,0.24,0,0)">
        <g transform="matrix(5.45543,0,0,5.45543,150.006,298.925)">
            <path d="M0,51.922C4.742,49.427 17.475,48.192 23.361,50.599C27.491,52.287 29.211,55.082 27.312,59.401C23.956,67.028 28.797,73.336 36.668,73.336C44.541,73.336 49.381,67.027 46.024,59.4C44.126,55.081 45.846,52.287 49.975,50.599C55.862,48.192 68.595,49.427 73.337,51.922C75.832,47.18 77.067,34.448 74.659,28.561C72.972,24.431 70.178,22.711 65.858,24.611C58.231,27.966 51.924,23.126 51.924,15.254C51.924,7.382 58.23,2.542 65.858,5.897C70.177,7.797 72.972,6.077 74.659,1.947C77.067,-3.94 75.831,-16.672 73.337,-21.414L-0.001,-21.414L0,51.922Z" style="fill-rule:nonzero;"/>
        </g>
        <g transform="matrix(5.45543,0,0,5.45543,1161.98,692.995)">
            <path d="M0,91.021C-4.741,93.517 -17.474,94.75 -23.361,92.344C-27.491,90.657 -29.211,87.862 -27.311,83.543C-23.955,75.916 -28.796,69.608 -36.668,69.608C-44.539,69.608 -49.379,75.916 -46.024,83.542C-44.125,87.861 -45.845,90.656 -49.976,92.344C-55.861,94.75 -68.595,93.516 -73.336,91.021C-75.832,86.279 -77.065,73.546 -74.659,67.66C-72.972,63.53 -70.177,61.81 -65.857,63.71C-58.23,67.065 -51.922,62.225 -51.922,54.353C-51.922,46.481 -58.23,41.641 -65.857,44.996C-70.177,46.896 -72.971,45.176 -74.659,41.046C-77.065,35.159 -75.832,22.426 -73.336,17.685C-68.595,20.18 -55.861,21.415 -49.976,19.008C-45.845,17.319 -44.125,14.525 -46.024,10.206C-49.379,2.579 -44.539,-3.729 -36.668,-3.729C-28.796,-3.729 -23.955,2.58 -27.311,10.206C-29.211,14.525 -27.491,17.32 -23.361,19.008C-17.474,21.415 -4.741,20.181 0,17.685C2.495,22.426 3.73,35.159 1.323,41.046C-0.364,45.176 -3.159,46.896 -7.478,44.996C-15.106,41.641 -21.413,46.481 -21.413,54.353C-21.413,62.225 -15.104,67.065 -7.478,63.71C-3.159,61.81 -0.364,63.53 1.323,67.66C3.73,73.546 2.496,86.279 0,91.021" style="fill-rule:nonzero;"/>
        </g>
        <g transform="matrix(5.45543,0,0,5.45543,1790.25,699.005)">
            <path d="M0,-94.75C2.494,-90.008 3.729,-77.275 1.323,-71.389C-0.365,-67.258 -3.16,-65.539 -7.479,-67.438C-15.106,-70.793 -21.413,-65.954 -21.413,-58.082C-21.413,-50.21 -15.105,-45.37 -7.479,-48.725C-3.159,-50.625 -0.365,-48.905 1.323,-44.775C3.729,-38.888 2.495,-26.155 0,-21.414C-4.742,-23.909 -17.475,-25.143 -23.362,-22.737C-27.492,-21.048 -29.212,-18.253 -27.312,-13.935C-23.956,-6.308 -28.797,0 -36.669,0C-44.54,0 -49.38,-6.308 -46.025,-13.935C-44.125,-18.253 -45.846,-21.049 -49.975,-22.737C-55.862,-25.143 -68.595,-23.909 -73.337,-21.414C-70.841,-26.155 -69.606,-38.888 -72.014,-44.775C-73.701,-48.905 -76.496,-50.625 -80.815,-48.725C-88.441,-45.37 -94.75,-50.21 -94.75,-58.082C-94.75,-65.954 -88.442,-70.794 -80.815,-67.438C-76.497,-65.539 -73.702,-67.258 -72.014,-71.389C-69.606,-77.276 -70.841,-90.008 -73.337,-94.75L0,-94.75Z" style="fill-rule:nonzero;"/>
        </g>
        <g transform="matrix(5.45543,0,0,5.45543,2400,877.14)">
            <path d="M0,55.653C-4.741,53.157 -17.476,51.924 -23.361,54.33C-27.491,56.018 -29.212,58.813 -27.312,63.132C-23.956,70.758 -28.796,77.066 -36.669,77.066C-44.54,77.066 -49.38,70.759 -46.024,63.132C-44.125,58.813 -45.845,56.018 -49.976,54.33C-55.862,51.924 -68.594,53.158 -73.336,55.653C-70.841,50.911 -69.606,38.179 -72.013,32.291C-73.701,28.162 -76.495,26.442 -80.815,28.342C-88.441,31.697 -94.749,26.857 -94.749,18.985C-94.749,11.113 -88.442,6.273 -80.815,9.628C-76.496,11.528 -73.702,9.808 -72.013,5.678C-69.606,-0.209 -70.842,-12.941 -73.336,-17.683C-68.594,-20.178 -55.862,-21.413 -49.976,-19.007C-45.845,-17.318 -44.125,-14.523 -46.024,-10.205C-49.38,-2.578 -44.54,3.73 -36.669,3.73C-28.796,3.73 -23.956,-2.578 -27.312,-10.205C-29.212,-14.524 -27.491,-17.318 -23.361,-19.007C-17.476,-21.413 -4.741,-20.179 0,-17.683L0,55.653Z" style="fill-rule:nonzero;"/>
        </g>
        <g transform="matrix(5.45543,0,0,5.45543,1782.62,1451.49)">
            <path d="M0,55.654C-4.741,53.159 -17.475,51.925 -23.36,54.331C-27.49,56.018 -29.211,58.813 -27.311,63.133C-23.956,70.759 -28.796,77.066 -36.668,77.066C-44.539,77.066 -49.38,70.759 -46.024,63.133C-44.125,58.813 -45.845,56.018 -49.975,54.331C-55.862,51.925 -68.594,53.159 -73.335,55.654C-70.84,50.912 -69.606,38.18 -72.012,32.293C-73.7,28.163 -76.495,26.443 -80.814,28.343C-88.441,31.698 -94.749,26.857 -94.749,18.987C-94.749,11.114 -88.441,6.273 -80.814,9.63C-76.495,11.529 -73.7,9.809 -72.012,5.679C-69.606,-0.207 -70.84,-12.94 -73.335,-17.681C-68.594,-20.178 -55.862,-21.412 -49.975,-19.006C-45.845,-17.317 -44.125,-14.523 -46.024,-10.203C-49.38,-2.575 -44.539,3.731 -36.668,3.731C-28.796,3.731 -23.956,-2.577 -27.311,-10.205C-29.211,-14.523 -27.49,-17.318 -23.36,-19.006C-17.475,-21.412 -4.741,-20.178 0,-17.681C-2.495,-12.94 -3.729,-0.207 -1.323,5.679C0.365,9.809 3.16,11.529 7.479,9.63C15.105,6.273 21.413,11.114 21.413,18.987C21.413,26.857 15.105,31.698 7.479,28.343C3.16,26.443 0.365,28.163 -1.323,32.293C-3.729,38.18 -2.495,50.912 0,55.654" style="fill-rule:nonzero;"/>
        </g>
        <g transform="matrix(5.45543,0,0,5.45543,150.001,1398.95)">
            <path d="M0,73.337C4.741,70.841 17.475,69.607 23.361,72.014C27.491,73.701 29.212,76.496 27.311,80.815C23.956,88.442 28.797,94.75 36.669,94.75C44.54,94.75 49.38,88.442 46.025,80.815C44.125,76.496 45.846,73.701 49.975,72.014C55.862,69.607 68.595,70.841 73.336,73.337C70.84,68.595 69.606,55.862 72.013,49.975C73.701,45.846 76.496,44.125 80.814,46.025C88.441,49.38 94.75,44.54 94.75,36.669C94.75,28.797 88.441,23.955 80.814,27.313C76.496,29.211 73.701,27.491 72.013,23.362C69.606,17.475 70.84,4.742 73.336,-0C68.595,2.497 55.862,3.731 49.975,1.323C45.846,-0.364 44.125,-3.159 46.025,-7.478C49.38,-15.105 44.54,-21.413 36.669,-21.413C28.797,-21.413 23.956,-15.105 27.311,-7.478C29.212,-3.159 27.491,-0.364 23.361,1.323C17.475,3.731 4.741,2.497 0,-0L0,73.337Z" style="fill-rule:nonzero;"/>
        </g>
        <g transform="matrix(5.45543,0,0,5.45543,761.923,2601)">
            <path d="M0,73.334C2.496,68.594 3.73,55.861 1.324,49.973C-0.363,45.844 -3.158,44.124 -7.478,46.023C-15.105,49.379 -21.413,44.539 -21.413,36.667C-21.413,28.795 -15.105,23.955 -7.478,27.31C-3.158,29.21 -0.363,27.49 1.324,23.359C3.73,17.474 2.496,4.74 0,-0.001C4.743,2.495 17.476,3.729 23.362,1.322C27.492,-0.366 29.212,-3.161 27.312,-7.48C23.958,-15.107 28.797,-21.415 36.67,-21.415C44.541,-21.415 49.381,-15.107 46.026,-7.48C44.126,-3.161 45.846,-0.366 49.976,1.322C55.863,3.729 68.596,2.495 73.337,-0.001C70.841,4.74 69.607,17.474 72.014,23.359C73.702,27.49 76.497,29.21 80.814,27.31C88.441,23.955 94.751,28.795 94.751,36.667C94.751,44.539 88.441,49.379 80.814,46.023C76.497,44.124 73.702,45.844 72.014,49.973C69.607,55.861 70.841,68.594 73.337,73.334C68.596,70.839 55.863,69.605 49.976,72.011C45.846,73.699 44.126,76.494 46.026,80.813C49.381,88.44 44.541,94.749 36.67,94.749C28.797,94.749 23.958,88.44 27.312,80.813C29.212,76.494 27.492,73.699 23.362,72.011C17.476,69.605 4.743,70.839 0,73.334" style="fill-rule:nonzero;"/>
        </g>
        <g transform="matrix(5.45543,0,0,5.45543,1161.98,1959.62)">
            <path d="M0,77.069C-2.494,72.327 -3.729,59.592 -1.323,53.705C0.365,49.575 3.16,47.855 7.479,49.756C15.105,53.11 21.414,48.269 21.414,40.398C21.414,32.526 15.105,27.686 7.478,31.042C3.159,32.941 0.365,31.221 -1.323,27.091C-3.729,21.204 -2.496,8.472 0,3.729C-4.741,1.235 -17.474,0 -23.361,2.407C-27.491,4.095 -29.211,6.89 -27.311,11.209C-23.955,18.836 -28.796,25.143 -36.668,25.143C-44.539,25.143 -49.379,18.835 -46.024,11.209C-44.125,6.89 -45.845,4.095 -49.976,2.407C-55.861,0 -68.595,1.235 -73.336,3.729C-70.841,8.471 -69.606,21.204 -72.013,27.091C-73.7,31.22 -76.495,32.941 -80.813,31.041C-88.441,27.686 -94.749,32.526 -94.749,40.397C-94.749,48.269 -88.441,53.11 -80.815,49.755C-76.495,47.855 -73.7,49.575 -72.013,53.705C-69.606,59.591 -70.841,72.327 -73.336,77.069L0,77.069Z" style="fill-rule:nonzero;"/>
        </g>
        <g transform="matrix(5.45543,0,0,5.45543,2399.98,2359.72)">
            <path d="M0,-69.61C-4.741,-72.105 -17.475,-73.339 -23.36,-70.933C-27.49,-69.245 -29.21,-66.45 -27.311,-62.131C-23.955,-54.504 -28.796,-48.197 -36.668,-48.197C-44.539,-48.197 -49.38,-54.505 -46.024,-62.131C-44.124,-66.451 -45.844,-69.246 -49.975,-70.933C-55.862,-73.339 -68.594,-72.105 -73.335,-69.61C-70.84,-64.868 -69.605,-52.134 -72.012,-46.249C-73.699,-42.118 -76.494,-40.398 -80.813,-42.299C-88.441,-45.653 -94.748,-40.813 -94.748,-32.942C-94.748,-25.069 -88.441,-20.229 -80.813,-23.585C-76.494,-25.484 -73.699,-23.764 -72.012,-19.635C-69.605,-13.747 -70.84,-1.012 -73.335,3.729L0.003,3.729L0,-69.61Z" style="fill-rule:nonzero;"/>
        </g>
        <g transform="matrix(5.45543,0,0,5.45543,1782.62,1959.63)">
            <path d="M0,77.068C2.496,72.327 3.73,59.591 1.323,53.705C-0.365,49.575 -3.159,47.854 -7.479,49.755C-15.105,53.109 -21.413,48.269 -21.413,40.398C-21.413,32.526 -15.104,27.685 -7.478,31.042C-3.159,32.941 -0.364,31.22 1.323,27.092C3.73,21.204 2.497,8.471 0,3.73C-4.741,1.234 -17.475,0 -23.36,2.406C-27.49,4.094 -29.211,6.889 -27.311,11.208C-23.956,18.836 -28.796,25.143 -36.668,25.143C-44.539,25.143 -49.38,18.836 -46.024,11.208C-44.125,6.889 -45.845,4.094 -49.975,2.406C-55.862,0 -68.594,1.234 -73.335,3.73C-75.831,8.471 -77.065,21.204 -74.658,27.092C-72.971,31.22 -70.176,32.941 -65.857,31.042C-58.23,27.685 -51.922,32.526 -51.922,40.398C-51.922,48.269 -58.23,53.109 -65.857,49.755C-70.176,47.854 -72.971,49.575 -74.658,53.705C-77.065,59.591 -75.831,72.327 -73.335,77.068L0,77.068Z" style="fill-rule:nonzero;"/>
        </g>
        <g transform="matrix(5.45543,0,0,5.45543,1382.64,2998.44)">
            <path d="M0,-73.336C4.743,-75.832 17.475,-77.066 23.362,-74.659C27.492,-72.971 29.212,-70.177 27.312,-65.858C23.958,-58.231 28.797,-51.923 36.668,-51.923C44.541,-51.923 49.381,-58.231 46.026,-65.858C44.126,-70.177 45.846,-72.971 49.976,-74.659C55.863,-77.066 68.596,-75.832 73.337,-73.336C75.832,-68.594 77.067,-55.861 74.66,-49.975C72.973,-45.845 70.178,-44.125 65.859,-46.024C58.231,-49.38 51.925,-44.539 51.925,-36.668C51.925,-28.796 58.231,-23.956 65.859,-27.311C70.178,-29.211 72.973,-27.49 74.66,-23.361C77.067,-17.474 75.832,-4.741 73.337,0C68.596,2.496 55.863,3.73 49.976,1.323C45.846,-0.364 44.126,-3.159 46.026,-7.478C49.381,-15.105 44.541,-21.413 36.668,-21.413C28.797,-21.413 23.958,-15.105 27.312,-7.478C29.212,-3.159 27.492,-0.364 23.362,1.323C17.475,3.73 4.743,2.496 0,0C-2.494,-4.741 -3.729,-17.474 -1.323,-23.361C0.366,-27.49 3.161,-29.211 7.479,-27.311C15.106,-23.956 21.414,-28.796 21.414,-36.668C21.414,-44.539 15.105,-49.38 7.479,-46.024C3.16,-44.125 0.365,-45.845 -1.323,-49.975C-3.729,-55.861 -2.495,-68.594 0,-73.336" style="fill-rule:nonzero;"/>
        </g>
        <g transform="matrix(5.45543,0,0,5.45543,550.091,1959.62)">
            <path d="M0,77.067C2.494,72.325 3.73,59.589 1.322,53.704C-0.365,49.573 -3.16,47.853 -7.479,49.754C-15.106,53.108 -21.413,48.267 -21.413,40.396C-21.413,32.524 -15.105,27.684 -7.479,31.04C-3.159,32.939 -0.365,31.22 1.322,27.09C3.73,21.202 2.495,8.469 0,3.728C-4.742,1.232 -17.475,-0.002 -23.362,2.405C-27.491,4.092 -29.211,6.887 -27.313,11.206C-23.956,18.834 -28.796,25.141 -36.668,25.141C-44.54,25.141 -49.381,18.834 -46.025,11.206C-44.126,6.887 -45.846,4.092 -49.976,2.405C-55.861,-0.002 -68.595,1.232 -73.337,3.728L-73.338,77.069L0,77.067Z" style="fill-rule:nonzero;"/>
        </g>
        <g transform="matrix(5.45543,0,0,5.45543,1161.98,1381.39)">
            <path d="M0,73.336C-4.741,70.842 -17.474,69.607 -23.361,72.013C-27.491,73.701 -29.211,76.496 -27.311,80.815C-23.955,88.442 -28.796,94.75 -36.668,94.75C-44.539,94.75 -49.379,88.441 -46.024,80.815C-44.125,76.496 -45.845,73.701 -49.976,72.013C-55.861,69.607 -68.595,70.841 -73.336,73.336C-75.832,68.595 -77.065,55.862 -74.659,49.976C-72.972,45.845 -70.177,44.125 -65.857,46.024C-58.23,49.38 -51.922,44.54 -51.922,36.668C-51.922,28.797 -58.23,23.956 -65.857,27.312C-70.177,29.212 -72.972,27.49 -74.659,23.36C-77.065,17.475 -75.832,4.741 -73.336,0C-68.595,2.495 -55.861,3.731 -49.976,1.324C-45.845,-0.365 -44.125,-3.16 -46.024,-7.479C-49.379,-15.106 -44.539,-21.414 -36.668,-21.414C-28.796,-21.414 -23.955,-15.105 -27.311,-7.478C-29.211,-3.159 -27.491,-0.365 -23.361,1.324C-17.474,3.731 -4.741,2.496 0,0C2.496,4.741 3.73,17.476 1.323,23.361C-0.364,27.491 -3.159,29.212 -7.478,27.312C-15.104,23.957 -21.413,28.797 -21.413,36.669C-21.413,44.54 -15.104,49.381 -7.478,46.024C-3.159,44.125 -0.364,45.846 1.323,49.976C3.73,55.863 2.496,68.595 0,73.336" style="fill-rule:nonzero;"/>
        </g>
        <g transform="matrix(5.45543,0,0,5.45543,2400,1469.06)">
            <path d="M0,55.653C-4.741,53.158 -17.476,51.923 -23.361,54.329C-27.49,56.017 -29.211,58.813 -27.312,63.132C-23.956,70.758 -28.796,77.066 -36.668,77.066C-44.54,77.066 -49.38,70.758 -46.024,63.131C-44.124,58.811 -45.845,56.017 -49.976,54.329C-55.862,51.923 -68.594,53.157 -73.336,55.653C-75.832,50.912 -77.065,38.18 -74.659,32.292C-72.972,28.162 -70.177,26.441 -65.857,28.341C-58.231,31.697 -51.923,26.856 -51.923,18.985C-51.923,11.113 -58.231,6.273 -65.857,9.628C-70.177,11.528 -72.972,9.808 -74.659,5.678C-77.065,-0.209 -75.832,-12.941 -73.336,-17.683C-68.594,-20.178 -55.862,-21.413 -49.976,-19.007C-45.845,-17.318 -44.124,-14.523 -46.024,-10.205C-49.38,-2.577 -44.54,3.73 -36.668,3.73C-28.796,3.73 -23.956,-2.577 -27.312,-10.205C-29.211,-14.524 -27.49,-17.319 -23.361,-19.007C-17.476,-21.413 -4.741,-20.179 0,-17.683L0,55.653Z" style="fill-rule:nonzero;"/>
        </g>
        <g transform="matrix(5.45543,0,0,5.45543,150.001,807.032)">
            <path d="M0,73.337C4.741,75.833 17.475,77.066 23.361,74.66C27.491,72.972 29.212,70.177 27.311,65.858C23.956,58.232 28.797,51.923 36.669,51.923C44.54,51.923 49.38,58.232 46.025,65.858C44.125,70.177 45.846,72.972 49.975,74.66C55.862,77.066 68.595,75.833 73.336,73.337C70.84,68.595 69.606,55.862 72.013,49.976C73.701,45.845 76.496,44.126 80.814,46.025C88.441,49.381 94.75,44.541 94.75,36.669C94.75,28.797 88.441,23.957 80.814,27.312C76.496,29.212 73.701,27.492 72.013,23.362C69.606,17.475 70.842,4.742 73.336,0.001C68.595,-2.495 55.862,-3.729 49.975,-1.323C45.846,0.365 44.125,3.16 46.025,7.479C49.38,15.106 44.54,21.414 36.668,21.414C28.797,21.414 23.956,15.107 27.311,7.479C29.212,3.16 27.491,0.365 23.361,-1.323C17.475,-3.729 4.741,-2.495 0,0.001L0,73.337Z" style="fill-rule:nonzero;"/>
        </g>
        <g transform="matrix(5.45543,0,0,5.45543,1390.16,859.585)">
            <path d="M0,55.652C4.742,53.156 17.475,51.923 23.362,54.329C27.491,56.017 29.212,58.812 27.312,63.131C23.957,70.758 28.797,77.066 36.668,77.066C44.54,77.066 49.381,70.758 46.025,63.131C44.125,58.812 45.845,56.017 49.975,54.329C55.861,51.923 68.595,53.156 73.337,55.652C75.832,50.911 77.066,38.178 74.66,32.291C72.972,28.161 70.178,26.441 65.858,28.34C58.231,31.696 51.924,26.856 51.924,18.984C51.924,11.112 58.23,6.273 65.857,9.627C70.177,11.527 72.972,9.807 74.66,5.677C77.066,-0.209 75.831,-12.942 73.337,-17.684C68.595,-20.179 55.862,-21.414 49.975,-19.008C45.845,-17.319 44.125,-14.524 46.025,-10.205C49.381,-2.578 44.54,3.729 36.668,3.729C28.797,3.729 23.957,-2.578 27.312,-10.206C29.212,-14.524 27.491,-17.32 23.362,-19.008C17.475,-21.414 4.742,-20.179 0,-17.684C2.496,-12.942 3.73,-0.21 1.323,5.677C-0.365,9.807 -3.16,11.527 -7.479,9.627C-15.105,6.272 -21.413,11.112 -21.413,18.984C-21.413,26.855 -15.104,31.696 -7.479,28.34C-3.159,26.441 -0.364,28.161 1.323,32.291C3.73,38.178 2.496,50.91 0,55.652" style="fill-rule:nonzero;"/>
        </g>
        <g transform="matrix(5.45543,0,0,5.45543,1169.6,202.446)">
            <path d="M0,69.607C-4.742,72.103 -17.474,73.336 -23.361,70.93C-27.492,69.242 -29.211,66.447 -27.312,62.128C-23.957,54.502 -28.797,48.193 -36.668,48.193C-44.541,48.193 -49.381,54.501 -46.025,62.128C-44.126,66.446 -45.846,69.241 -49.975,70.93C-55.862,73.336 -68.596,72.102 -73.336,69.607C-70.841,64.865 -69.606,52.132 -72.014,46.246C-73.701,42.115 -76.495,40.396 -80.814,42.295C-88.441,45.65 -94.75,40.81 -94.75,32.939C-94.75,25.067 -88.442,20.226 -80.815,23.582C-76.497,25.482 -73.701,23.761 -72.014,19.632C-69.606,13.745 -70.841,1.012 -73.336,-3.729L0,-3.729C2.495,1.012 3.729,13.745 1.323,19.632C-0.365,23.761 -3.16,25.482 -7.479,23.582C-15.105,20.226 -21.414,25.067 -21.414,32.939C-21.414,40.81 -15.105,45.65 -7.479,42.295C-3.159,40.396 -0.364,42.115 1.323,46.246C3.729,52.132 2.495,64.865 0,69.607" style="fill-rule:nonzero;"/>
        </g>
        <g transform="matrix(5.45543,0,0,5.45543,1999.9,298.923)">
            <path d="M0,51.922C2.496,47.18 3.729,34.448 1.323,28.561C-0.364,24.43 -3.159,22.711 -7.478,24.61C-15.104,27.966 -21.414,23.126 -21.414,15.254C-21.414,7.382 -15.104,2.542 -7.479,5.897C-3.16,7.797 -0.365,6.077 1.323,1.947C3.729,-3.94 2.496,-16.673 0,-21.414L73.34,-21.414L73.337,51.922C68.595,49.426 55.861,48.192 49.976,50.598C45.845,52.286 44.125,55.081 46.025,59.4C49.38,67.027 44.54,73.336 36.668,73.336C28.796,73.336 23.956,67.027 27.312,59.401C29.211,55.082 27.492,52.287 23.362,50.598C17.474,48.192 4.741,49.426 0,51.922" style="fill-rule:nonzero;"/>
        </g>
    </g>
</svg>
