<?xml version="1.0" encoding="utf-8"?>
<!-- Generator: Adobe Illustrator 15.1.0, SVG Export Plug-In . SVG Version: 6.00 Build 0)  -->
<!DOCTYPE svg PUBLIC "-//W3C//DTD SVG 1.1//EN" "http://www.w3.org/Graphics/SVG/1.1/DTD/svg11.dtd">
<svg version="1.1" id="puzzle" xmlns="http://www.w3.org/2000/svg" xmlns:xlink="http://www.w3.org/1999/xlink" x="0px" y="0px"
	 width="756px" height="756px" viewBox="0 0 756 756" enable-background="new 0 0 756 756" xml:space="preserve">
<g>
	<path d="M605.275,605.277c-29.391-15.467-108.309-23.119-144.799-8.203c-25.597,10.465-36.258,27.787-24.48,54.557
		C456.79,698.904,426.789,738,378,738c-48.791,0-78.79-39.096-57.996-86.371c11.775-26.77,1.116-44.092-24.482-54.555
		c-36.488-14.916-115.406-7.264-144.798,8.201c-15.469-29.391-23.118-108.305-8.202-144.799
		c10.46-25.598,27.784-36.258,54.554-24.482c47.272,20.797,86.372-9.205,86.372-57.992c0-48.793-39.1-78.795-86.372-57.998
		c-26.771,11.775-44.094,1.115-54.554-24.482c-14.916-36.484-7.268-115.408,8.202-144.799
		c29.392,15.467,108.313,23.119,144.798,8.205c25.599-10.465,36.258-27.789,24.482-54.559C299.21,57.095,329.209,18,378.004,18
		c48.785,0,78.786,39.1,57.992,86.373c-11.777,26.77-1.116,44.092,24.48,54.555c36.493,14.914,115.408,7.266,144.799-8.205
		c15.469,29.391,23.119,108.316,8.203,144.801c-10.461,25.598-27.784,36.26-54.555,24.482
		c-47.273-20.795-86.372,9.205-86.372,57.999c0,48.788,39.099,78.788,86.372,57.991c26.771-11.775,44.094-1.115,54.555,24.482
		C628.395,496.971,620.744,575.887,605.275,605.277z"/>
</g>
</svg>
