<?xml version="1.0" encoding="UTF-8" standalone="no"?>
<!DOCTYPE svg PUBLIC "-//W3C//DTD SVG 1.1//EN" "http://www.w3.org/Graphics/SVG/1.1/DTD/svg11.dtd">
<svg width="756px" height="756px" version="1.1" xmlns="http://www.w3.org/2000/svg" xmlns:xlink="http://www.w3.org/1999/xlink" xml:space="preserve" xmlns:serif="http://www.serif.com/" style="fill-rule:evenodd;clip-rule:evenodd;stroke-linejoin:round;stroke-miterlimit:2;">
    <g transform="matrix(0.24,0,0,0.24,0,0)">
        <g id="PolpoDesign_Puzzle_26_2x2_corners-single-line" transform="matrix(2.84932,0,0,2.84932,7.62787,-83.8614)">
            <g transform="matrix(4.16667,0,0,4.16667,0,0)">
                <path d="M132.022,235.747C135.287,229.538 136.906,212.863 133.753,205.157C131.544,199.749 127.884,197.497 122.23,199.986C112.243,204.377 103.986,198.039 103.986,187.733C103.986,177.426 112.245,171.089 122.23,175.483C127.886,177.97 131.544,175.719 133.753,170.312C136.906,162.602 135.289,145.931 132.022,139.724C135.289,133.515 136.906,116.845 133.753,109.137C131.544,103.73 127.886,101.478 122.23,103.965C112.243,108.358 103.986,102.021 103.986,91.714C103.986,81.407 112.242,75.07 122.23,79.463C127.884,81.951 131.544,79.699 133.753,74.291C136.906,66.583 135.287,49.913 132.022,43.705" style="fill:none;fill-rule:nonzero;stroke:black;stroke-width:0.35px;"/>
            </g>
            <g transform="matrix(4.16667,0,0,4.16667,0,0)">
                <path d="M36,43.705L36.001,139.724L36,235.749L132.022,235.747L228.046,235.747" style="fill:none;fill-rule:nonzero;stroke:black;stroke-width:0.35px;"/>
            </g>
            <g transform="matrix(4.16667,0,0,4.16667,0,0)">
                <path d="M228.042,139.724C221.833,136.456 205.161,134.84 197.456,137.99C192.047,140.2 189.795,143.86 192.282,149.515C196.675,159.501 190.338,167.761 180.031,167.761C169.725,167.761 163.387,159.501 167.781,149.516C170.268,143.861 168.017,140.202 162.61,137.99C154.901,134.84 138.229,136.456 132.022,139.724C125.813,136.457 109.142,134.84 101.434,137.991C96.028,140.202 93.776,143.86 96.261,149.515C100.656,159.501 94.319,167.761 84.011,167.761C73.705,167.761 67.367,159.502 71.761,149.516C74.247,143.861 71.995,140.202 66.588,137.991C58.882,134.84 42.21,136.457 36.001,139.724" style="fill:none;fill-rule:nonzero;stroke:black;stroke-width:0.35px;"/>
            </g>
            <g transform="matrix(4.16667,0,0,4.16667,0,0)">
                <path d="M228.046,235.747L228.042,139.724L228.046,43.705L36,43.705" style="fill:none;fill-rule:nonzero;stroke:black;stroke-width:0.35px;"/>
            </g>
        </g>
    </g>
</svg>
