<?xml version="1.0" encoding="utf-8"?>
<!-- Generator: Adobe Illustrator 15.1.0, SVG Export Plug-In . SVG Version: 6.00 Build 0)  -->
<!DOCTYPE svg PUBLIC "-//W3C//DTD SVG 1.1//EN" "http://www.w3.org/Graphics/SVG/1.1/DTD/svg11.dtd">
<svg version="1.1" id="puzzle" xmlns="http://www.w3.org/2000/svg" xmlns:xlink="http://www.w3.org/1999/xlink" x="0px" y="0px"
	 width="900px" height="900px" viewBox="0 0 900 900" enable-background="new 0 0 900 900" xml:space="preserve">
<path d="M791.971,687.201c3.711,8.439,3.545,16.479-0.474,22.631c-4.191,6.424-12.084,10.107-21.659,10.107
	c-9.572,0-17.469-3.684-21.659-10.107c-4.015-6.152-4.185-14.191-0.47-22.633c3.115-7.082,3.548-13.506,1.289-19.092
	c-2.386-5.9-7.687-10.566-15.752-13.863c-16.539-6.762-49.356-4.652-67.091,1.701c-5.265-15.242-7.141-45.104-1.646-58.547
	c2.122-5.193,4.731-8.447,7.757-9.67c2.708-1.092,6.229-0.703,10.471,1.164c11.984,5.27,23.763,4.797,33.158-1.336
	c9.618-6.277,15.136-17.557,15.136-30.943c0-13.391-5.518-24.67-15.136-30.947c-9.396-6.133-21.167-6.607-33.158-1.336
	c-4.241,1.865-7.763,2.258-10.471,1.162c-3.025-1.223-5.635-4.477-7.757-9.668c-5.9-14.438-3.302-47.813,2.865-61.678
	c13.863-6.162,47.24-8.766,61.681-2.865c5.19,2.123,8.442,4.732,9.665,7.758c1.096,2.707,0.703,6.23-1.159,10.471
	c-5.274,11.984-4.802,23.76,1.332,33.156c6.277,9.619,17.555,15.135,30.945,15.135c13.39,0,24.668-5.516,30.945-15.135
	c6.133-9.398,6.606-21.174,1.336-33.158c-1.866-4.24-2.256-7.762-1.16-10.471c1.22-3.023,4.475-5.633,9.666-7.756
	c13.982-5.713,45.701-3.455,60.287,2.289v201.512c-18.188-5.666-48.72-7.283-64.482-0.838c-8.065,3.297-13.366,7.963-15.752,13.865
	C788.419,673.697,788.855,680.121,791.971,687.201z M610.556,800.781c9.398,6.135,21.169,6.611,33.157,1.334
	c4.241-1.863,7.763-2.252,10.471-1.16c3.025,1.223,5.635,4.475,7.757,9.668c5.714,13.977,3.455,45.699-2.286,60.289H453.571
	c-5.743-14.59-7.999-46.313-2.289-60.289c2.123-5.193,4.734-8.445,7.757-9.668c2.712-1.092,6.233-0.703,10.472,1.16
	c11.987,5.273,23.762,4.801,33.157-1.334c9.618-6.275,15.136-17.555,15.136-30.943c0-13.391-5.518-24.668-15.136-30.945
	c-9.396-6.131-21.17-6.605-33.157-1.336c-4.241,1.865-7.763,2.258-10.472,1.162c-3.025-1.223-5.634-4.477-7.753-9.668
	c-5.904-14.438-3.306-47.814,2.862-61.678c13.862-6.166,47.24-8.766,61.676-2.865c5.194,2.123,8.446,4.732,9.669,7.756
	c1.097,2.707,0.706,6.23-1.159,10.471c-5.274,11.986-4.801,23.76,1.332,33.158c6.277,9.619,17.556,15.135,30.945,15.135
	c13.391,0,24.668-5.516,30.945-15.135c6.134-9.398,6.606-21.174,1.336-33.158c-1.866-4.24-2.256-7.764-1.159-10.471
	c1.219-3.023,4.474-5.633,9.665-7.756c14.439-5.9,47.813-3.301,61.677,2.865c6.167,13.863,8.769,47.24,2.865,61.678
	c-2.122,5.191-4.731,8.445-7.753,9.668c-2.712,1.096-6.233,0.703-10.472-1.162c-11.984-5.27-23.759-4.797-33.157,1.336
	c-9.619,6.277-15.136,17.555-15.136,30.945C595.423,783.227,600.937,794.506,610.556,800.781z M245.753,806.43
	c-3.299-8.07-7.963-13.367-13.867-15.752c-5.587-2.26-12.011-1.826-19.091,1.289c-8.438,3.711-16.479,3.545-22.632-0.471
	c-6.424-4.191-10.105-12.088-10.105-21.658c0-9.576,3.682-17.469,10.105-21.66c6.157-4.018,14.193-4.186,22.636-0.471
	c7.08,3.115,13.507,3.547,19.091,1.291c5.903-2.387,10.567-7.688,13.863-15.754c6.763-16.541,4.65-49.338-1.703-67.076
	c8.687-2.996,22.362-5.018,35.12-5.018c9.812,0,18.131,1.191,23.429,3.357c5.193,2.123,8.445,4.732,9.668,7.756
	c1.097,2.709,0.703,6.23-1.159,10.473c-5.274,11.984-4.801,23.758,1.333,33.156c6.276,9.617,17.555,15.133,30.944,15.135
	c13.391,0,24.672-5.516,30.945-15.135c6.134-9.396,6.606-21.172,1.336-33.156c-1.865-4.24-2.256-7.764-1.163-10.473
	c1.223-3.023,4.479-5.633,9.669-7.756c5.298-2.166,13.62-3.357,23.429-3.357c12.757,0,26.434,2.021,35.123,5.018
	c-6.354,17.738-8.466,50.535-1.706,67.076c3.299,8.066,7.963,13.367,13.866,15.754c5.584,2.258,12.012,1.824,19.091-1.291
	c8.443-3.715,16.476-3.547,22.633,0.471c6.424,4.191,10.108,12.088,10.108,21.66c0,9.574-3.685,17.467-10.108,21.658
	c-6.153,4.018-14.189,4.182-22.633,0.471c-7.079-3.113-13.503-3.549-19.091-1.289c-5.9,2.385-10.564,7.682-13.866,15.752
	c-6.44,15.762-4.827,46.291,0.836,64.482H244.916C250.58,852.721,252.196,822.191,245.753,806.43z M152.291,687.197
	c3.712,8.443,3.545,16.48-0.473,22.635c-4.191,6.422-12.084,10.105-21.656,10.105c-9.575,0-17.472-3.684-21.663-10.105
	c-4.015-6.156-4.185-14.191-0.47-22.635c3.115-7.08,3.549-13.504,1.29-19.09c-2.386-5.902-7.687-10.568-15.753-13.863
	c-15.762-6.445-46.291-4.832-64.479,0.836V458.139c9.998,3.115,23.715,5.008,36.669,5.008c10.614,0,20.713-1.268,27.81-4.17
	c8.066-3.297,13.367-7.961,15.753-13.863c2.259-5.586,1.825-12.01-1.29-19.092c-3.715-8.441-3.545-16.479,0.47-22.633
	c4.191-6.424,12.088-10.107,21.663-10.107c9.572,0,17.465,3.684,21.656,10.107c4.018,6.154,4.185,14.191,0.473,22.633
	c-3.115,7.082-3.552,13.506-1.292,19.092c2.385,5.902,7.686,10.566,15.752,13.863c14.756,6.031,42.439,5,60.841,0.201
	c-4.802,18.402-5.831,46.088,0.199,60.84c5.804,14.195,14.81,17.174,21.343,17.172c3.615,0,7.523-0.91,11.615-2.709
	c4.024-1.771,7.959-2.672,11.688-2.672c12.394,0,21.053,10.199,21.053,24.803c0,14.602-8.659,24.797-21.053,24.797
	c-3.729,0-7.663-0.896-11.688-2.668c-4.092-1.799-8-2.713-11.615-2.713c-6.533,0-15.539,2.98-21.343,17.176
	c-6.03,14.752-5.001,42.439-0.199,60.84c-18.401-4.801-46.085-5.83-60.841,0.201c-8.066,3.295-13.367,7.961-15.752,13.863
	C148.739,673.693,149.176,680.117,152.291,687.197z M99.214,289.439c6.277,9.617,17.555,15.135,30.948,15.135
	c13.387,0,24.665-5.518,30.941-15.135c6.134-9.398,6.607-21.174,1.336-33.158c-1.865-4.24-2.255-7.764-1.159-10.471
	c1.22-3.025,4.475-5.635,9.665-7.756c13.447-5.494,43.306-3.619,58.549,1.643c-6.354,17.74-8.463,50.555-1.699,67.096
	c3.295,8.066,7.963,13.365,13.863,15.752c5.59,2.258,12.014,1.822,19.091-1.291c8.442-3.715,16.479-3.547,22.632,0.469
	c6.424,4.191,10.108,12.088,10.108,21.66c0,9.574-3.685,17.469-10.108,21.66c-6.157,4.018-14.193,4.184-22.632,0.471
	c-7.084-3.115-13.507-3.551-19.091-1.291c-5.904,2.387-10.568,7.686-13.867,15.754c-6.76,16.541-4.65,49.354,1.703,67.092
	c-15.243,5.264-45.105,7.139-58.549,1.645c-5.19-2.121-8.445-4.73-9.665-7.756c-1.096-2.709-0.706-6.23,1.159-10.471
	c5.271-11.984,4.798-23.762-1.336-33.158c-6.276-9.619-17.555-15.135-30.941-15.135c-13.391,0-24.671,5.516-30.948,15.135
	c-6.134,9.398-6.606,21.174-1.333,33.158c1.862,4.24,2.256,7.762,1.16,10.471c-1.224,3.025-4.475,5.635-9.669,7.756
	c-13.977,5.715-45.698,3.455-60.284-2.289v-206.08c14.59-5.744,46.308-8,60.284-2.289c5.194,2.123,8.445,4.732,9.669,7.758
	c1.096,2.707,0.702,6.23-1.16,10.471C92.607,268.268,93.08,280.043,99.214,289.439z M244.916,29.088h201.513
	c5.74,14.59,7.999,46.309,2.288,60.281c-2.122,5.193-4.734,8.445-7.759,9.668c-2.709,1.096-6.23,0.705-10.472-1.16
	c-11.981-5.271-23.759-4.797-33.157,1.334c-9.619,6.277-15.133,17.557-15.133,30.945c0,13.391,5.518,24.67,15.133,30.947
	c9.398,6.131,21.173,6.607,33.16,1.334c4.241-1.865,7.76-2.256,10.472-1.162c3.021,1.223,5.634,4.477,7.753,9.668
	c5.904,14.438,3.302,47.813-2.865,61.678c-13.863,6.166-47.24,8.766-61.677,2.865c-5.19-2.121-8.446-4.732-9.665-7.756
	c-1.097-2.707-0.706-6.23,1.159-10.471c5.271-11.984,4.798-23.762-1.336-33.158c-6.277-9.619-17.555-15.135-30.941-15.135
	c-13.391,0-24.672,5.516-30.948,15.135c-6.134,9.396-6.607,21.172-1.333,33.156c1.862,4.24,2.256,7.764,1.159,10.471
	c-1.223,3.025-4.475,5.635-9.668,7.758c-13.44,5.494-43.306,3.617-58.549-1.645c6.357-17.738,8.466-50.549,1.703-67.092
	c-3.296-8.068-7.96-13.367-13.863-15.754c-5.584-2.258-12.015-1.824-19.091,1.291c-8.442,3.713-16.479,3.547-22.636-0.471
	c-6.424-4.191-10.105-12.086-10.105-21.66c0-9.572,3.682-17.469,10.105-21.66c6.153-4.016,14.193-4.182,22.632-0.469
	c7.08,3.113,13.507,3.549,19.091,1.291c5.904-2.387,10.568-7.686,13.867-15.754C252.196,77.805,250.58,47.279,244.916,29.088z
	 M661.943,89.371c-2.125,5.193-4.734,8.445-7.76,9.668c-2.708,1.096-6.229,0.703-10.471-1.162
	c-11.981-5.271-23.759-4.797-33.157,1.336c-9.619,6.275-15.133,17.555-15.133,30.945c0,13.389,5.517,24.668,15.133,30.945
	c9.401,6.131,21.173,6.607,33.16,1.334c4.238-1.865,7.76-2.256,10.472-1.16c3.021,1.223,5.631,4.475,7.753,9.668
	c5.497,13.445,3.614,43.314-1.649,58.553c-10.021-3.6-24.928-5.889-39.464-5.889c-7.933,0-19.168,0.725-27.623,4.182
	c-8.066,3.299-13.367,7.963-15.753,13.865c-2.259,5.588-1.822,12.012,1.293,19.092c3.711,8.439,3.545,16.479-0.474,22.633
	c-4.19,6.422-12.084,10.105-21.659,10.105c-9.572,0-17.468-3.684-21.659-10.107c-4.015-6.154-4.185-14.191-0.47-22.633
	c3.115-7.08,3.548-13.504,1.289-19.09c-2.386-5.902-7.683-10.568-15.752-13.865c-8.456-3.457-19.69-4.184-27.623-4.184
	c-11.758,0-23.752,1.5-33.214,3.977c4.797-18.402,5.827-46.084-0.204-60.834c-3.295-8.068-7.959-13.367-13.863-15.754
	c-5.587-2.258-12.011-1.824-19.09,1.291c-8.443,3.713-16.479,3.547-22.636-0.471c-6.424-4.191-10.105-12.086-10.105-21.66
	c0-9.572,3.682-17.469,10.105-21.66c6.153-4.016,14.192-4.182,22.632-0.469c7.08,3.113,13.507,3.549,19.091,1.291
	c5.904-2.387,10.568-7.686,13.866-15.754c6.444-15.76,4.828-46.285-0.836-64.477h201.509
	C665.396,43.678,667.654,75.396,661.943,89.371z M604.314,368.918c5.888,6.678,14.144,10.355,23.246,10.354
	c5.277,0,10.715-1.215,16.155-3.607c2.676-1.176,5.081-1.773,7.149-1.773c2.952,0,7.311,1.066,11.075,10.281
	c5.497,13.439,3.621,43.301-1.643,58.545c-10.019-3.6-24.935-5.881-39.468-5.881c-7.936,0-19.171,0.725-27.626,4.182
	c-8.066,3.297-13.367,7.963-15.753,13.863c-2.259,5.586-1.822,12.01,1.293,19.092c3.711,8.441,3.545,16.479-0.474,22.635
	c-4.19,6.422-12.087,10.105-21.659,10.105c-9.575,0-17.468-3.684-21.659-10.105c-4.015-6.154-4.185-14.191-0.47-22.633
	c3.115-7.08,3.548-13.504,1.289-19.092c-2.386-5.902-7.683-10.568-15.752-13.865c-8.456-3.455-19.69-4.182-27.623-4.182
	c-11.748,0-23.745,1.49-33.204,3.963c4.794-18.4,5.813-46.076-0.214-60.822c-5.8-14.195-14.806-17.174-21.339-17.174
	c-3.618,0-7.523,0.912-11.614,2.711c-4.028,1.771-7.96,2.67-11.691,2.67c-12.394,0-21.05-10.199-21.05-24.801
	c0-14.6,8.656-24.799,21.05-24.799c3.729,0,7.663,0.898,11.688,2.67c4.092,1.799,8,2.711,11.618,2.711
	c6.53,0,15.535-2.98,21.339-17.174c6.761-16.539,4.655-49.348-1.699-67.088c8.687-2.99,22.369-5.008,35.117-5.008
	c9.812,0,18.131,1.193,23.428,3.359c5.194,2.123,8.446,4.732,9.669,7.758c1.097,2.707,0.706,6.23-1.159,10.471
	c-5.274,11.984-4.801,23.758,1.332,33.156c6.277,9.617,17.556,15.135,30.945,15.135c13.391,0,24.672-5.516,30.945-15.135
	c6.134-9.396,6.606-21.172,1.336-33.156c-1.866-4.24-2.256-7.764-1.163-10.471c1.223-3.023,4.478-5.635,9.669-7.758
	c5.297-2.166,13.62-3.357,23.429-3.357c14.409,0,30.016,2.576,38.251,6.225c6.164,13.867,8.763,47.242,2.865,61.676
	c-3.768,9.215-8.129,10.279-11.081,10.279c-2.069,0-4.471-0.596-7.149-1.773c-5.441-2.393-10.875-3.607-16.152-3.607
	c-18.621,0-32.138,15.094-32.138,35.889C595.423,353.344,598.581,362.41,604.314,368.918z M654.044,654.043
	c-18.401-4.801-46.088-5.83-60.84,0.201c-8.066,3.297-13.367,7.963-15.753,13.863c-2.259,5.586-1.822,12.01,1.293,19.092
	c3.711,8.441,3.545,16.479-0.474,22.633c-4.19,6.424-12.087,10.107-21.659,10.107s-17.468-3.684-21.659-10.107
	c-4.015-6.152-4.185-14.191-0.47-22.633c3.115-7.082,3.548-13.506,1.289-19.092c-2.386-5.9-7.687-10.566-15.752-13.863
	c-14.753-6.031-42.439-5.002-60.841-0.201c4.801-18.4,5.831-46.088-0.2-60.84c-5.8-14.193-14.806-17.174-21.339-17.174
	c-3.618,0-7.523,0.912-11.614,2.711c-4.028,1.771-7.96,2.67-11.691,2.67c-12.394,0-21.05-10.197-21.05-24.797
	c0-14.604,8.656-24.803,21.05-24.803c3.731,0,7.663,0.898,11.691,2.672c4.091,1.799,7.996,2.711,11.614,2.709
	c6.533,0,15.539-2.98,21.339-17.174c6.764-16.541,4.651-49.338-1.702-67.076c8.686-2.996,22.362-5.018,35.12-5.018
	c9.809,0,18.131,1.193,23.428,3.357c5.194,2.123,8.446,4.732,9.669,7.758c1.097,2.707,0.706,6.23-1.159,10.471
	c-5.274,11.984-4.801,23.76,1.332,33.156c6.277,9.619,17.556,15.135,30.945,15.135c13.391,0,24.668-5.516,30.945-15.135
	c6.134-9.398,6.606-21.174,1.336-33.158c-1.866-4.24-2.256-7.762-1.159-10.469c1.219-3.025,4.474-5.635,9.665-7.758
	c5.297-2.164,13.62-3.357,23.432-3.357c12.758,0,26.434,2.021,35.12,5.018c-6.354,17.74-8.466,50.537-1.706,67.076
	c3.298,8.066,7.963,13.367,13.866,15.754c5.584,2.258,12.011,1.824,19.091-1.289c8.439-3.715,16.479-3.549,22.633,0.469
	c6.427,4.191,10.108,12.088,10.108,21.662c0,9.572-3.682,17.465-10.108,21.656c-6.154,4.016-14.187,4.186-22.633,0.471
	c-7.083-3.115-13.507-3.549-19.091-1.289c-5.903,2.385-10.568,7.686-13.866,15.752C648.214,607.957,649.243,635.643,654.044,654.043
	z M365.518,687.201c3.712,8.439,3.545,16.479-0.473,22.631c-4.191,6.424-12.084,10.107-21.66,10.107
	c-9.571,0-17.468-3.684-21.659-10.107c-4.015-6.154-4.185-14.191-0.47-22.631c3.115-7.084,3.548-13.506,1.289-19.094
	c-2.385-5.9-7.683-10.566-15.752-13.863c-8.456-3.455-19.69-4.182-27.623-4.182c-14.533,0-29.449,2.281-39.471,5.881
	c-5.261-15.244-7.137-45.105-1.643-58.545c3.765-9.217,8.126-10.283,11.077-10.283c2.069,0,4.475,0.598,7.15,1.775
	c5.44,2.393,10.875,3.605,16.152,3.605c18.624,0,32.141-15.09,32.141-35.885s-13.517-35.891-32.141-35.891
	c-5.277,0-10.712,1.215-16.152,3.609c-2.676,1.176-5.081,1.771-7.15,1.771c-2.951,0.002-7.31-1.063-11.077-10.279
	c-5.494-13.439-3.618-43.301,1.643-58.545c10.021,3.598,24.94,5.883,39.474,5.883c7.933,0,19.164-0.727,27.62-4.184
	c8.069-3.299,13.367-7.963,15.752-13.865c2.259-5.588,1.826-12.01-1.289-19.09c-3.715-8.441-3.545-16.479,0.47-22.633
	c4.191-6.424,12.088-10.107,21.663-10.107c9.572,0,17.465,3.684,21.656,10.107c4.018,6.154,4.185,14.191,0.473,22.633
	c-3.115,7.082-3.552,13.506-1.293,19.092c2.386,5.902,7.687,10.566,15.753,13.863c8.459,3.457,19.693,4.184,27.626,4.184
	c14.533,0,29.449-2.285,39.468-5.881c5.265,15.242,7.14,45.104,1.643,58.545c-3.765,9.215-8.123,10.279-11.074,10.279
	c-2.069,0.002-4.475-0.596-7.15-1.773c-5.443-2.393-10.878-3.607-16.155-3.607c-18.621,0-32.138,15.096-32.138,35.891
	s13.517,35.885,32.138,35.885c5.277,0,10.712-1.215,16.155-3.605c2.676-1.178,5.081-1.775,7.15-1.775
	c2.951,0,7.31,1.064,11.074,10.281c5.494,13.441,3.618,43.301-1.643,58.545c-10.019-3.6-24.938-5.881-39.471-5.881
	c-7.933,0-19.167,0.727-27.623,4.182c-8.066,3.297-13.367,7.963-15.753,13.865C361.966,673.697,362.402,680.121,365.518,687.201z
	 M289.444,312.438c-9.398-6.129-21.169-6.605-33.16-1.334c-4.241,1.865-7.76,2.256-10.472,1.16
	c-3.021-1.223-5.634-4.475-7.756-9.666c-5.494-13.447-3.612-43.316,1.652-58.555c17.741,6.355,50.545,8.471,67.084,1.707
	c8.069-3.299,13.367-7.963,15.752-13.865c2.259-5.586,1.826-12.01-1.289-19.092c-3.715-8.439-3.545-16.477,0.47-22.631
	c4.191-6.424,12.088-10.107,21.663-10.107c9.572,0,17.465,3.684,21.656,10.107c4.018,6.154,4.185,14.191,0.473,22.633
	c-3.115,7.082-3.552,13.506-1.293,19.092c2.386,5.902,7.687,10.566,15.753,13.863c7.1,2.902,17.194,4.17,27.81,4.17
	c14.123,0,29.149-2.25,39.274-5.879c5.268,15.236,7.149,45.109,1.655,58.555c-3.768,9.215-8.129,10.281-11.077,10.281
	c-2.072,0-4.479-0.596-7.153-1.773c-5.44-2.395-10.875-3.607-16.152-3.607c-18.621,0-32.138,15.092-32.138,35.887
	s13.517,35.889,32.138,35.889c5.277,0,10.712-1.215,16.155-3.607c2.676-1.178,5.081-1.773,7.15-1.773
	c2.951,0,7.31,1.064,11.074,10.279c5.904,14.439,3.299,47.822-2.872,61.678c-8.232,3.648-23.832,6.225-38.238,6.225
	c-9.812,0-18.131-1.193-23.432-3.359c-5.19-2.121-8.446-4.73-9.665-7.756c-1.097-2.709-0.706-6.23,1.159-10.471
	c5.271-11.984,4.798-23.762-1.336-33.158c-6.277-9.619-17.555-15.135-30.941-15.135c-13.391,0-24.672,5.516-30.948,15.135
	c-6.134,9.396-6.607,21.172-1.333,33.158c1.862,4.236,2.256,7.762,1.159,10.469c-1.223,3.023-4.475,5.637-9.668,7.758
	c-5.298,2.166-13.617,3.359-23.426,3.359c-14.409,0-30.005-2.576-38.244-6.225c-6.171-13.857-8.772-47.238-2.872-61.678
	c2.122-5.191,4.73-8.445,7.756-9.668c2.709-1.094,6.23-0.703,10.472,1.162c11.984,5.271,23.759,4.799,33.16-1.334
	c9.615-6.277,15.133-17.557,15.133-30.947C304.577,329.994,299.06,318.715,289.444,312.438z M806.43,441.018
	c-8.065,3.297-13.366,7.963-15.752,13.863c-2.259,5.586-1.822,12.01,1.293,19.092c3.711,8.441,3.545,16.479-0.474,22.635
	c-4.191,6.422-12.087,10.105-21.659,10.105c-9.575,0-17.469-3.684-21.659-10.105c-4.015-6.154-4.185-14.191-0.47-22.633
	c3.115-7.08,3.548-13.504,1.289-19.092c-2.386-5.902-7.683-10.568-15.752-13.865c-14.753-6.031-42.439-5-60.841-0.201
	c4.801-18.4,5.83-46.086-0.2-60.84c-5.801-14.193-14.806-17.174-21.34-17.174c-3.618,0-7.522,0.912-11.614,2.711
	c-4.027,1.771-7.959,2.67-11.69,2.67c-5.961,0-11.121-2.281-14.927-6.598c-3.947-4.48-6.123-10.945-6.123-18.201
	c0-14.602,8.655-24.801,21.05-24.801c3.728,0,7.663,0.898,11.688,2.67c4.091,1.799,7.999,2.711,11.614,2.711
	c6.533,0,15.539-2.979,21.343-17.172c6.76-16.541,4.651-49.346-1.706-67.084c15.239-5.268,45.105-7.148,58.556-1.654
	c5.19,2.123,8.442,4.734,9.665,7.758c1.096,2.707,0.703,6.23-1.159,10.471c-5.274,11.984-4.802,23.76,1.332,33.158
	c6.277,9.617,17.555,15.133,30.945,15.133c13.39,0,24.668-5.516,30.945-15.135c6.133-9.398,6.606-21.172,1.336-33.158
	c-1.866-4.238-2.256-7.762-1.16-10.471c1.22-3.023,4.475-5.633,9.666-7.756c13.982-5.713,45.701-3.455,60.287,2.291v201.51
	C852.725,436.189,822.192,434.574,806.43,441.018z M870.912,228.627c-18.188-5.664-48.72-7.279-64.482-0.836
	c-8.065,3.297-13.366,7.961-15.752,13.863c-2.259,5.586-1.822,12.01,1.293,19.092c3.711,8.441,3.545,16.479-0.474,22.635
	c-4.191,6.422-12.087,10.105-21.659,10.105c-9.575,0-17.469-3.682-21.659-10.105c-4.015-6.154-4.185-14.191-0.47-22.633
	c3.115-7.08,3.548-13.504,1.289-19.092c-2.386-5.902-7.683-10.566-15.752-13.865c-14.747-6.027-42.43-5.004-60.831-0.209
	c4.798-18.402,5.82-46.084-0.21-60.832c-3.295-8.066-7.959-13.367-13.863-15.754c-5.584-2.256-12.011-1.824-19.091,1.291
	c-8.442,3.715-16.481,3.547-22.636-0.469c-6.423-4.191-10.104-12.086-10.104-21.66s3.682-17.469,10.104-21.66
	c6.154-4.016,14.193-4.182,22.633-0.471c7.083,3.113,13.503,3.551,19.091,1.291c5.903-2.385,10.568-7.686,13.866-15.752
	c6.443-15.762,4.828-46.287-0.836-64.479h199.543V228.627z M233.202,29.088c5.74,14.59,7.999,46.309,2.289,60.281
	c-2.126,5.193-4.734,8.445-7.76,9.668c-2.709,1.096-6.23,0.705-10.472-1.16c-11.98-5.271-23.759-4.797-33.157,1.334
	c-9.618,6.277-15.133,17.557-15.133,30.945c0,13.391,5.518,24.67,15.133,30.947c9.398,6.131,21.173,6.607,33.16,1.334
	c4.238-1.865,7.76-2.256,10.472-1.162c3.022,1.223,5.631,4.477,7.753,9.668c5.498,13.447,3.615,43.316-1.649,58.553
	c-17.741-6.355-50.545-8.469-67.087-1.705c-8.066,3.297-13.367,7.961-15.752,13.863c-2.26,5.586-1.823,12.01,1.292,19.092
	c3.712,8.439,3.545,16.479-0.473,22.633c-4.191,6.424-12.084,10.107-21.656,10.107c-9.575,0-17.472-3.684-21.663-10.107
	c-4.015-6.154-4.185-14.191-0.47-22.633c3.115-7.08,3.549-13.504,1.29-19.09c-2.386-5.902-7.684-10.568-15.753-13.865
	c-15.759-6.443-46.287-4.828-64.479,0.836V29.088H233.202z M29.088,666.797c14.59-5.746,46.311-8.002,60.284-2.291
	c5.194,2.123,8.445,4.734,9.669,7.758c1.096,2.707,0.702,6.23-1.16,10.469c-5.273,11.984-4.801,23.762,1.333,33.16
	c6.277,9.617,17.558,15.133,30.948,15.133c13.387,0,24.665-5.516,30.941-15.133c6.134-9.398,6.607-21.174,1.336-33.16
	c-1.865-4.238-2.255-7.762-1.159-10.469c1.22-3.023,4.475-5.635,9.665-7.758c14.443-5.9,47.817-3.297,61.677,2.867
	c6.167,13.863,8.77,47.24,2.865,61.678c-2.122,5.189-4.73,8.443-7.753,9.666c-2.712,1.096-6.233,0.705-10.472-1.16
	c-11.983-5.271-23.758-4.799-33.16,1.334c-9.615,6.277-15.133,17.557-15.133,30.947c0,13.389,5.515,24.668,15.133,30.943
	c9.402,6.135,21.173,6.607,33.157,1.334c4.241-1.863,7.763-2.252,10.472-1.16c3.025,1.223,5.634,4.475,7.756,9.668
	c5.714,13.977,3.459,45.699-2.285,60.289H29.088V666.797z M671.369,870.912c5.664-18.191,7.279-48.721,0.836-64.482
	c-3.298-8.07-7.963-13.367-13.866-15.752c-5.588-2.26-12.011-1.826-19.091,1.289c-8.439,3.711-16.479,3.545-22.633-0.471
	c-6.423-4.191-10.104-12.084-10.104-21.658c0-9.572,3.682-17.469,10.104-21.66c6.157-4.018,14.193-4.186,22.636-0.471
	c7.084,3.115,13.507,3.549,19.091,1.291c5.904-2.387,10.568-7.688,13.863-15.754c6.764-16.541,4.651-49.346-1.706-67.084
	c15.239-5.264,45.108-7.146,58.556-1.652c5.19,2.123,8.442,4.732,9.665,7.756c1.096,2.707,0.703,6.23-1.159,10.471
	c-5.274,11.986-4.802,23.76,1.332,33.158c6.277,9.619,17.555,15.135,30.945,15.135c13.39,0,24.671-5.516,30.945-15.135
	c6.133-9.398,6.606-21.172,1.336-33.156c-1.866-4.24-2.256-7.764-1.163-10.473c1.223-3.023,4.478-5.633,9.669-7.756
	c13.973-5.713,45.697-3.457,60.287,2.289v204.115H671.369z"/>
</svg>
